<svg width="272" height="300" viewBox="0 0 272 300" fill="none" xmlns="http://www.w3.org/2000/svg">
<path d="M260.342 299.697C260.221 299.697 260.113 249.305 260.113 187.19C260.113 125.076 260.221 74.6429 260.342 74.6429C260.463 74.6429 260.585 124.981 260.585 187.156C260.585 249.332 260.47 299.697 260.342 299.697Z" fill="#E0E0E0"/>
<path d="M259.695 147.658C258.95 147.11 258.254 146.499 257.614 145.832C256.374 144.66 254.696 143.003 252.898 141.116C251.099 139.23 249.489 137.552 248.317 136.326C247.647 135.704 247.03 135.028 246.471 134.305C247.209 134.861 247.903 135.473 248.546 136.138C249.785 137.31 251.469 138.967 253.261 140.853C255.054 142.74 256.664 144.417 257.843 145.643C258.511 146.266 259.13 146.94 259.695 147.658Z" fill="#E0E0E0"/>
<path d="M261.049 100.513C262.673 100.123 264.224 99.4776 265.644 98.5994C267.12 97.6332 268.378 96.3687 269.336 94.8874C270.497 93.1301 271.193 91.1062 271.357 89.006V88.8039L271.62 89.0263C269.49 89.4074 267.544 90.4772 266.082 92.0713C264.885 93.32 263.846 94.7116 262.99 96.2146C262.249 97.4878 261.73 98.5523 261.379 99.2933C261.215 99.6877 261.024 100.07 260.807 100.439C260.9 100.023 261.037 99.6186 261.218 99.2327C261.651 98.1532 262.148 97.1004 262.707 96.0798C263.535 94.5268 264.566 93.0905 265.772 91.8086C267.29 90.1281 269.323 88.9999 271.552 88.6018L271.842 88.5614V88.8241V89.033C271.68 91.0199 271.055 92.9413 270.019 94.6443C268.983 96.3473 267.563 97.7847 265.873 98.842C264.819 99.5063 263.666 99.9976 262.457 100.297C262.126 100.378 261.791 100.441 261.454 100.486C261.321 100.514 261.185 100.523 261.049 100.513Z" fill="#E0E0E0"/>
<path d="M261.049 100.513C260.955 100.432 262.363 98.6803 264.202 96.5918C266.041 94.5034 267.611 92.8663 267.705 92.9404C267.8 93.0145 266.392 94.7661 264.553 96.8613C262.713 98.9565 261.144 100.587 261.049 100.513Z" fill="#E0E0E0"/>
<path d="M197.109 231.795L181.399 300L188.041 299.98L203.785 232.442L197.109 231.795Z" fill="#E0E0E0"/>
<path d="M225.761 231.795L241.526 300H247.838L232.586 231.795H225.761Z" fill="#E0E0E0"/>
<path d="M186.505 180.568L195.452 227.524H205.611L196.058 180.568H186.505Z" fill="#E0E0E0"/>
<path d="M30.7271 231.795L17.9135 300H24.4348L37.8211 231.795H30.7271Z" fill="#E0E0E0"/>
<path d="M57.6681 231.795L72.3142 299.629H78.7615L64.6206 231.795H57.6681Z" fill="#E0E0E0"/>
<path d="M20.1232 180.568L29.0699 227.524H39.2359L29.6762 180.568H20.1232Z" fill="#E0E0E0"/>
<path d="M0 176.303L1.83244 184.839H205.914L203.536 176.303H0Z" fill="#EBEBEB"/>
<path d="M3.90068 192.883L6.0565 201.418H208.764L206.918 192.883H3.90068Z" fill="#EBEBEB"/>
<path d="M7.92937 210.048L9.93697 218.584H212.011L210.105 210.048H7.92937Z" fill="#EBEBEB"/>
<path d="M241.283 227.524H23.3772V236.06H241.283V227.524Z" fill="#EBEBEB"/>
<path d="M48.5463 21.731C48.4119 21.7191 48.2766 21.7191 48.1421 21.731L46.9564 21.7647C46.6937 21.7647 46.3972 21.7647 46.0806 21.8051L45.0296 21.9534L43.8103 22.1285L42.4629 22.4654C40.1119 23.0592 37.8746 24.0356 35.8405 25.3555C32.8251 27.2648 30.2878 29.8404 28.4238 32.884C26.5598 35.9276 25.4187 39.3582 25.0883 42.9119C24.9948 43.9759 24.9723 45.045 25.021 46.112C25.0614 46.6509 25.021 47.2034 25.1288 47.7491C25.2365 48.2948 25.2904 48.8472 25.378 49.3996C25.7948 51.6686 26.5439 53.8638 27.6012 55.9142C28.7265 58.0634 30.1611 60.0359 31.8589 61.7686C33.6622 63.5456 35.7304 65.0319 37.9896 66.1746C40.3252 67.3744 42.8545 68.1521 45.4608 68.4719C46.13 68.5732 46.8052 68.6294 47.4819 68.6403C48.1551 68.6776 48.8298 68.6776 49.503 68.6403C50.8622 68.5861 52.2144 68.4171 53.5451 68.135C56.4093 67.5183 59.1343 66.3762 61.5823 64.7666H61.3398L69.5251 68.0542L70.0102 68.2495L69.8687 67.7443C69.0468 64.7396 68.2384 61.8225 67.4636 58.9863L67.4232 59.2018C69.6438 56.2587 71.1394 52.8335 71.7887 49.2042C72.1021 47.5168 72.2107 45.7977 72.1121 44.0842C72.0923 43.2599 72.0135 42.4382 71.8763 41.6252L71.6944 40.426C71.6203 40.0285 71.4991 39.6513 71.4047 39.2673C70.0346 33.8888 66.7997 29.1713 62.2762 25.9551C60.6041 24.7538 58.7747 23.7881 56.8395 23.0852L55.6134 22.6473L54.4344 22.398L53.37 22.1353C53.0264 22.0679 52.6963 22.0342 52.3931 21.987C51.7733 21.9129 51.2276 21.8051 50.7493 21.7782L49.5501 21.7378H48.8158C48.7329 21.7301 48.6495 21.7301 48.5665 21.7378C48.6493 21.7481 48.733 21.7481 48.8158 21.7378L49.5434 21.7984L50.7426 21.8792C51.2142 21.8792 51.7531 22.0342 52.3662 22.1218C56.8065 22.8968 60.9264 24.9441 64.2258 28.0151C67.5253 31.0861 69.8623 35.0488 70.9534 39.4222C71.0409 39.7995 71.1622 40.1768 71.2296 40.5608C71.2969 40.9448 71.3508 41.3422 71.4047 41.7397C71.5412 42.5366 71.6133 43.3431 71.6203 44.1515C71.7134 45.834 71.6026 47.5215 71.2902 49.1773C70.6413 52.7302 69.1667 56.0809 66.9853 58.9593L66.9112 59.0536V59.1749C67.6792 62.0044 68.4742 64.9237 69.2961 67.9329L69.6464 67.6297L61.4947 64.3489L61.3667 64.295L61.2522 64.3691C57.7361 66.6853 53.6559 68.0011 49.4491 68.1754C48.7931 68.1991 48.1363 68.1856 47.4819 68.135C46.8278 68.1252 46.175 68.0712 45.5282 67.9733C42.976 67.6531 40.5011 66.8821 38.2186 65.6962C36.005 64.5856 33.9759 63.1404 32.2025 61.4116C30.5416 59.7149 29.1327 57.7888 28.0189 55.6919C26.9799 53.6836 26.24 51.5343 25.8227 49.312C25.7351 48.7731 25.6542 48.2341 25.5734 47.6952C25.4926 47.1562 25.4993 46.624 25.4589 46.0918C25.4092 45.0452 25.4272 43.9966 25.5128 42.9524C25.8258 39.4547 26.9312 36.0742 28.7451 33.0673C30.5591 30.0604 33.0339 27.5061 35.982 25.598C37.9809 24.274 40.1808 23.2821 42.4966 22.6607L43.8439 22.2969L45.0566 22.1016L46.0941 21.9264C46.4107 21.8927 46.7004 21.886 46.9632 21.8658L48.1421 21.7782C48.2783 21.7787 48.414 21.7628 48.5463 21.731Z" fill="#263238"/>
<path d="M44.8747 43.1074H46.1749L48.9169 39.1124L48.863 36.5254C48.863 36.5254 50.884 36.3637 50.6954 39.7524C50.5068 43.141 50.7695 42.2787 50.7695 42.2787C50.7695 42.2787 55.0205 42.2046 55.3776 42.5684C55.7346 42.9322 55.8424 47.0485 55.9367 49.339C55.976 49.8909 55.8296 50.44 55.5207 50.8991C55.2118 51.3581 54.7583 51.7006 54.2323 51.8721C54.083 51.9138 53.9291 51.9364 53.7742 51.9395C52.7165 51.9395 47.2798 51.2119 47.2798 51.2119L45.0431 51.259L44.8747 43.1074Z" fill="#008CAA"/>
<path d="M41.1559 42.4741L42.1328 51.3129L44.3492 51.2725L44.1741 42.5886L41.1559 42.4741Z" fill="#008CAA"/>
<path d="M43.3454 269.825C44.031 270.155 44.6436 270.619 45.147 271.189C45.6503 271.76 46.0342 272.425 46.276 273.147C46.7469 274.595 46.8783 276.133 46.66 277.64C46.3299 280.557 44.6726 283.501 42.894 285.832C40.4351 283.683 39.8692 279.944 39.7007 278.031C39.438 275.006 40.7989 269.374 43.3454 269.825Z" fill="#008CAA"/>
<path d="M45.7438 290.609C45.5774 289.776 45.6337 288.914 45.907 288.109C46.1802 287.305 46.6607 286.587 47.3 286.028C47.9481 285.48 48.6991 285.067 49.5089 284.814C50.3188 284.56 51.1711 284.471 52.0158 284.552C52.4086 284.547 52.7978 284.627 53.1562 284.787C53.5146 284.948 53.8336 285.185 54.0908 285.482C54.2761 285.799 54.3738 286.159 54.3738 286.526C54.3738 286.893 54.2761 287.254 54.0908 287.57C53.7166 288.205 53.1823 288.73 52.5413 289.093C50.4125 290.44 48.1084 291.33 45.7033 290.609" fill="#008CAA"/>
<path d="M42.5976 299.549C42.6109 299.347 42.6402 299.146 42.6852 298.949C42.7593 298.531 42.8604 297.986 42.9816 297.332C43.2546 295.528 43.8189 293.781 44.6524 292.158C45.5184 290.537 46.7994 289.174 48.3644 288.21C48.8409 287.926 49.3498 287.7 49.8802 287.537C50.0216 287.492 50.1656 287.456 50.3114 287.429C50.3648 287.418 50.4197 287.418 50.4731 287.429C49.7693 287.671 49.0921 287.985 48.452 288.365C46.9375 289.342 45.697 290.69 44.8477 292.279C44.0232 293.886 43.4463 295.607 43.1366 297.386C42.9884 298.06 42.8671 298.612 42.7728 298.989C42.7319 299.181 42.6733 299.368 42.5976 299.549Z" fill="#263238"/>
<path d="M42.6852 274.171C42.6987 274.258 42.6987 274.346 42.6852 274.433C42.6852 274.629 42.6852 274.878 42.7324 275.188C42.7324 275.862 42.7997 276.785 42.8401 277.95C42.9143 280.288 42.9749 283.521 42.9614 287.085C42.9479 290.649 42.8604 293.883 42.7593 296.221C42.7121 297.386 42.665 298.336 42.6246 298.983C42.6246 299.293 42.6246 299.542 42.5774 299.737C42.5868 299.825 42.5868 299.913 42.5774 300C42.5675 299.913 42.5675 299.825 42.5774 299.737C42.5774 299.542 42.5774 299.293 42.5774 298.983C42.5774 298.309 42.6178 297.366 42.6448 296.214C42.6987 293.876 42.766 290.649 42.7795 287.085C42.793 283.521 42.7795 280.294 42.7256 277.957C42.7256 276.805 42.6919 275.868 42.6785 275.188V274.433C42.6735 274.346 42.6758 274.258 42.6852 274.171Z" fill="#263238"/>
<path d="M41.4995 292.387C41.2033 290.619 40.4895 288.946 39.4174 287.508C38.3454 286.071 36.9459 284.91 35.3352 284.121C34.52 283.73 33.4489 283.447 32.7684 284.081C32.088 284.714 32.2497 285.792 32.5798 286.641C33.3008 288.401 34.5269 289.909 36.1035 290.973C37.68 292.038 39.5365 292.612 41.4389 292.623" fill="#008CAA"/>
<path d="M35.7327 286.89C35.9148 286.946 36.0908 287.021 36.2582 287.112C36.4199 287.193 36.622 287.294 36.8443 287.429C37.1023 287.572 37.3519 287.729 37.5921 287.9C37.8925 288.108 38.1805 288.333 38.4544 288.574C38.7715 288.82 39.0751 289.083 39.3639 289.362C40.0255 290.038 40.6086 290.786 41.102 291.592C41.5813 292.405 41.9634 293.271 42.2406 294.173C42.3619 294.566 42.4586 294.966 42.5303 295.372C42.5996 295.723 42.649 296.079 42.6785 296.436C42.7073 296.729 42.7207 297.024 42.7189 297.319C42.734 297.543 42.734 297.768 42.7189 297.992C42.7151 298.182 42.6948 298.372 42.6583 298.558C42.6111 298.558 42.6919 297.75 42.5505 296.456C42.5107 296.105 42.4522 295.757 42.3753 295.412C42.2979 295.016 42.199 294.625 42.0789 294.24C41.7895 293.358 41.4079 292.509 40.9403 291.707C40.457 290.912 39.8876 290.174 39.2426 289.504C38.9586 289.214 38.6571 288.942 38.3399 288.689C38.0754 288.45 37.7988 288.225 37.5112 288.015C36.4535 287.267 35.7125 286.93 35.7327 286.89Z" fill="#263238"/>
<path d="M182.746 274.784L183.224 298.949L153.157 299.697C153.265 296.82 168.652 290.669 168.652 290.669L167.709 275.174L182.746 274.784Z" fill="#386DA7"/>
<g opacity="0.6">
<path d="M177.936 289.133C178.221 289.214 178.467 289.394 178.629 289.642C178.792 289.889 178.859 290.187 178.818 290.481C178.75 290.773 178.573 291.029 178.322 291.194C178.071 291.36 177.767 291.423 177.471 291.37C177.161 291.284 176.895 291.087 176.723 290.815C176.551 290.544 176.486 290.218 176.541 289.901C176.646 289.602 176.862 289.355 177.145 289.212C177.427 289.069 177.754 289.041 178.057 289.133" fill="white"/>
</g>
<g opacity="0.6">
<path d="M183.224 298.949L183.083 296.517L154.309 298.12C154.309 298.12 152.962 298.74 153.157 299.677L183.224 298.949Z" fill="white"/>
</g>
<path d="M168.181 290.528C168.181 290.676 168.929 290.723 169.663 291.202C170.397 291.68 170.795 292.266 170.929 292.205C171.064 292.145 170.822 291.303 169.926 290.764C169.03 290.225 168.147 290.393 168.181 290.528Z" fill="#263238"/>
<path d="M165.062 291.909C165.062 292.05 165.675 292.286 166.187 292.893C166.699 293.499 166.86 294.159 167.009 294.146C167.157 294.132 167.231 293.303 166.571 292.562C165.91 291.821 165.062 291.767 165.062 291.909Z" fill="#263238"/>
<path d="M163.364 295.729C163.499 295.729 163.687 295.021 163.29 294.226C162.892 293.432 162.198 293.128 162.138 293.25C162.077 293.371 162.515 293.795 162.811 294.449C163.108 295.102 163.222 295.715 163.364 295.729Z" fill="#263238"/>
<path d="M168.363 286.978C168.423 287.112 169.09 286.89 169.926 286.924C170.761 286.957 171.408 287.207 171.482 287.079C171.556 286.951 170.923 286.445 169.939 286.405C168.956 286.364 168.289 286.863 168.363 286.978Z" fill="#263238"/>
<path d="M168.962 283.393C169.458 283.513 169.977 283.497 170.465 283.346C171.329 283.173 172.15 282.832 172.883 282.342C173.051 282.247 173.201 282.124 173.328 281.979C173.422 281.873 173.478 281.738 173.487 281.596C173.495 281.454 173.456 281.314 173.375 281.197C173.297 281.093 173.195 281.009 173.078 280.953C172.96 280.897 172.831 280.87 172.701 280.874C172.511 280.877 172.323 280.909 172.142 280.968C171.822 281.053 171.511 281.168 171.212 281.312C170.717 281.557 170.263 281.878 169.865 282.262C169.191 282.935 168.962 283.474 169.009 283.501C169.057 283.528 169.407 283.084 170.108 282.531C170.519 282.208 170.972 281.943 171.455 281.743C171.732 281.623 172.018 281.526 172.31 281.453C172.627 281.359 172.903 281.352 172.984 281.494C173.065 281.635 172.984 281.568 172.984 281.662C172.887 281.766 172.776 281.857 172.654 281.932C172.402 282.102 172.141 282.259 171.873 282.403C171.413 282.647 170.93 282.846 170.431 282.996C169.932 283.091 169.441 283.224 168.962 283.393Z" fill="#263238"/>
<path d="M169.185 283.596C169.46 283.16 169.585 282.647 169.542 282.134C169.563 281.238 169.33 280.355 168.868 279.587C168.783 279.39 168.648 279.219 168.477 279.09C168.306 278.962 168.104 278.88 167.891 278.853C167.758 278.859 167.629 278.902 167.519 278.979C167.409 279.055 167.323 279.161 167.271 279.284C167.2 279.463 167.152 279.651 167.13 279.843C167.079 280.178 167.079 280.519 167.13 280.854C167.223 281.416 167.454 281.946 167.803 282.396C168.41 283.158 169.03 283.319 169.036 283.272C169.043 283.225 168.565 282.922 168.1 282.188C167.832 281.762 167.658 281.284 167.588 280.786C167.547 280.496 167.547 280.201 167.588 279.91C167.628 279.594 167.743 279.331 167.857 279.365C167.972 279.398 168.268 279.587 168.396 279.843C168.554 280.099 168.687 280.37 168.794 280.652C168.974 281.13 169.085 281.631 169.124 282.14C169.245 283.023 169.104 283.575 169.185 283.596Z" fill="#263238"/>
<path d="M207.255 274.305L207.733 298.471L177.673 299.225C177.774 296.349 193.168 290.191 193.168 290.191L192.225 274.696L207.255 274.305Z" fill="#386DA7"/>
<g opacity="0.6">
<path d="M202.445 288.689C202.726 288.774 202.969 288.956 203.129 289.202C203.289 289.449 203.357 289.744 203.321 290.036C203.251 290.328 203.073 290.582 202.823 290.748C202.573 290.913 202.269 290.976 201.973 290.925C201.664 290.841 201.397 290.645 201.225 290.374C201.053 290.104 200.989 289.779 201.043 289.463C201.145 289.162 201.361 288.913 201.644 288.77C201.928 288.626 202.256 288.599 202.559 288.695" fill="white"/>
</g>
<g opacity="0.6">
<path d="M207.733 298.471L207.592 296.039L178.818 297.669C178.818 297.669 177.471 298.282 177.673 299.225L207.733 298.471Z" fill="white"/>
</g>
<path d="M192.69 290.036C192.69 290.184 193.438 290.232 194.172 290.71C194.906 291.188 195.304 291.768 195.438 291.707C195.573 291.646 195.331 290.804 194.435 290.272C193.539 289.74 192.656 289.915 192.69 290.036Z" fill="#263238"/>
<path d="M189.571 291.437C189.571 291.579 190.184 291.815 190.696 292.421C191.208 293.027 191.369 293.681 191.518 293.674C191.666 293.667 191.74 292.832 191.086 292.084C190.433 291.336 189.571 291.296 189.571 291.437Z" fill="#263238"/>
<path d="M187.873 295.25C188.008 295.284 188.196 294.543 187.799 293.748C187.401 292.953 186.707 292.65 186.647 292.771C186.586 292.893 187.024 293.317 187.32 293.977C187.617 294.637 187.731 295.244 187.873 295.25Z" fill="#263238"/>
<path d="M192.872 286.499C192.932 286.634 193.599 286.418 194.435 286.452C195.27 286.486 195.917 286.735 195.991 286.607C196.065 286.479 195.432 285.933 194.448 285.933C193.464 285.933 192.791 286.391 192.872 286.499Z" fill="#263238"/>
<path d="M193.498 282.915C193.993 283.04 194.513 283.026 195 282.875C195.541 282.763 196.065 282.587 196.563 282.349C196.858 282.208 197.144 282.048 197.419 281.871C197.585 281.771 197.735 281.646 197.864 281.5C197.958 281.394 198.014 281.26 198.022 281.118C198.031 280.976 197.992 280.836 197.911 280.719C197.832 280.616 197.729 280.534 197.612 280.479C197.495 280.424 197.366 280.398 197.237 280.402C197.048 280.407 196.86 280.436 196.678 280.49C196.358 280.577 196.046 280.694 195.748 280.84C195.254 281.084 194.799 281.402 194.401 281.783C193.727 282.457 193.498 283.003 193.545 283.03C193.592 283.057 193.943 282.605 194.643 282.053C195.056 281.732 195.509 281.468 195.991 281.265C196.269 281.148 196.555 281.051 196.846 280.975C197.163 280.887 197.439 280.874 197.52 281.015C197.601 281.157 197.52 281.089 197.52 281.184C197.422 281.288 197.311 281.378 197.19 281.453C196.939 281.626 196.678 281.784 196.408 281.925C195.947 282.168 195.465 282.369 194.967 282.524C194.468 282.619 193.978 282.75 193.498 282.915Z" fill="#263238"/>
<path d="M193.694 283.124C193.968 282.688 194.093 282.175 194.051 281.662C194.069 280.765 193.836 279.88 193.377 279.109C193.291 278.913 193.156 278.742 192.985 278.614C192.814 278.485 192.612 278.403 192.4 278.375C192.265 278.377 192.133 278.42 192.023 278.498C191.912 278.576 191.828 278.686 191.78 278.812C191.708 278.989 191.66 279.175 191.639 279.365C191.591 279.702 191.591 280.045 191.639 280.382C191.733 280.942 191.965 281.47 192.312 281.918C192.919 282.686 193.539 282.841 193.552 282.794C193.566 282.747 193.08 282.45 192.609 281.709C192.34 281.284 192.165 280.806 192.097 280.308C192.056 280.02 192.056 279.727 192.097 279.439C192.137 279.116 192.252 278.853 192.373 278.887C192.494 278.92 192.777 279.116 192.912 279.365C193.064 279.623 193.195 279.894 193.303 280.173C193.482 280.654 193.593 281.157 193.633 281.669C193.754 282.551 193.613 283.104 193.694 283.124Z" fill="#263238"/>
<path d="M153.467 156.018C153.178 156.018 154.815 186.334 156.081 193.806C158.028 205.555 164.509 285.94 164.509 285.94H184.208L184.612 174.107L188.189 217.156L189.537 286.169L208.791 285.657L210.812 212.447C210.206 206.983 211.843 156.732 211.843 156.732L153.467 156.018Z" fill="#263238"/>
<path d="M162.38 42.885C160.056 41.8071 158.601 39.429 157.745 37.0172C156.89 34.6053 156.499 32.0116 155.549 29.6604C154.875 27.8886 155.616 25.0658 154.026 24.0081C152.039 22.6944 152.059 19.1912 152.827 17.4464C153.663 15.5466 155.933 14.1318 156.088 13.5322C156.492 11.949 155.118 10.2378 155.63 8.68835C156.829 5.04367 159.8 5.522 159.8 5.522C161.147 3.88492 162.98 1.71563 165.951 0.947619C169.164 0.118977 173.914 -0.50082 176.777 1.18341C179.64 2.86765 181.749 3.99945 182.672 7.19276" fill="#263238"/>
<path d="M188.87 50.7403L182.133 62.3143L172.822 71.6113L167.359 64.1063V56.5408V50.2013C167.359 50.2013 158.944 49.0426 158.695 40.6483C158.574 36.6062 159.005 28.2254 159.49 20.6599C159.738 16.7351 161.455 13.0476 164.299 10.3312C167.143 7.61484 170.905 6.06864 174.837 6.00031H175.645C184.403 6.3641 188.971 13.9903 188.365 22.7214L188.917 50.7537" fill="#CE947A"/>
<path d="M161.902 26.8713C161.907 27.1837 162.032 27.482 162.252 27.7042C162.472 27.9263 162.769 28.0551 163.081 28.0637C163.234 28.0728 163.387 28.0513 163.532 28.0004C163.676 27.9496 163.809 27.8703 163.923 27.7675C164.036 27.6646 164.128 27.5401 164.193 27.4012C164.258 27.2624 164.294 27.112 164.3 26.9589C164.295 26.6465 164.17 26.3482 163.95 26.1261C163.73 25.9039 163.434 25.7751 163.121 25.7665C162.968 25.7574 162.815 25.7789 162.671 25.8298C162.526 25.8807 162.393 25.9599 162.28 26.0627C162.166 26.1656 162.074 26.2901 162.009 26.429C161.944 26.5678 161.908 26.7182 161.902 26.8713Z" fill="#263238"/>
<path d="M161.181 24.2911C161.336 24.446 162.232 23.7589 163.519 23.7387C164.806 23.7184 165.769 24.3517 165.904 24.19C166.038 24.0283 165.816 23.8397 165.398 23.5163C164.834 23.1356 164.165 22.9402 163.485 22.9572C162.811 22.9784 162.162 23.2145 161.632 23.6309C161.242 23.9273 161.107 24.2237 161.181 24.2911Z" fill="#263238"/>
<path d="M174.022 26.5816C174.023 26.8939 174.147 27.1932 174.366 27.4159C174.585 27.6386 174.882 27.7671 175.194 27.7741C175.347 27.7832 175.5 27.7616 175.645 27.7108C175.789 27.6599 175.922 27.5807 176.036 27.4778C176.149 27.3749 176.241 27.2504 176.306 27.1116C176.371 26.9727 176.407 26.8223 176.413 26.6692C176.41 26.3563 176.285 26.057 176.065 25.8345C175.845 25.612 175.547 25.4838 175.234 25.4768C175.082 25.4677 174.929 25.4893 174.785 25.5402C174.64 25.5912 174.508 25.6705 174.395 25.7735C174.282 25.8764 174.191 26.001 174.127 26.1398C174.062 26.2786 174.027 26.4288 174.022 26.5816Z" fill="#263238"/>
<path d="M174.035 23.7117C174.17 23.8801 175.133 23.294 176.42 23.4153C177.707 23.5366 178.583 24.2641 178.738 24.089C178.892 23.9138 178.69 23.7252 178.306 23.4153C177.788 22.9756 177.145 22.7094 176.467 22.654C175.798 22.5902 175.125 22.7412 174.547 23.0852C174.129 23.3614 173.968 23.6309 174.035 23.7117Z" fill="#263238"/>
<path d="M169.481 34.4032C168.797 34.2023 168.091 34.0869 167.379 34.0596C167.049 34.0596 166.739 33.972 166.705 33.7497C166.675 33.4091 166.745 33.067 166.907 32.7661C167.204 31.9644 167.514 31.1223 167.844 30.2465C169.131 26.649 170.06 23.6982 169.919 23.6443C169.777 23.5904 168.605 26.4671 167.312 30.0646L166.422 32.5977C166.223 33.0004 166.168 33.4596 166.267 33.8979C166.318 34.0131 166.394 34.1153 166.49 34.1969C166.585 34.2786 166.698 34.3376 166.82 34.3695C167.003 34.4157 167.191 34.4384 167.379 34.4369C168.078 34.5141 168.785 34.5028 169.481 34.4032Z" fill="#263238"/>
<path d="M173.294 35.2319C173.085 35.2319 173.105 36.6264 171.947 37.6369C170.788 38.6475 169.252 38.5262 169.252 38.7216C169.252 38.8092 169.589 38.9843 170.215 38.9911C171.037 38.9907 171.832 38.6996 172.459 38.1692C173.06 37.658 173.439 36.9334 173.516 36.1481C173.557 35.5687 173.388 35.2184 173.294 35.2319Z" fill="#263238"/>
<path d="M174.116 19.4607C174.224 19.8178 175.517 19.7369 177.02 20.0199C178.522 20.3028 179.714 20.8014 179.93 20.4982C180.031 20.3567 179.842 20.0131 179.371 19.6359C178.745 19.1715 178.017 18.8621 177.249 18.7331C176.483 18.5855 175.692 18.6247 174.945 18.8477C174.352 19.0363 174.076 19.2923 174.116 19.4607Z" fill="#263238"/>
<path d="M161.727 20.99C161.956 21.2797 162.845 20.99 163.91 20.9293C164.974 20.8687 165.89 21.091 166.092 20.7811C166.18 20.6329 166.032 20.3365 165.634 20.067C165.097 19.743 164.476 19.586 163.85 19.616C163.224 19.646 162.621 19.8616 162.118 20.2354C161.74 20.5588 161.626 20.8485 161.727 20.99Z" fill="#263238"/>
<path d="M182.045 6.59317C182.049 7.52642 181.847 8.44895 181.453 9.29518C181.059 10.1414 180.484 10.8906 179.769 11.4893C179.053 12.0881 178.214 12.5218 177.311 12.7596C176.409 12.9974 175.465 13.0335 174.547 12.8653C173.126 12.6093 171.569 11.8884 170.343 12.6497C169.117 13.4109 168.996 15.3916 167.851 16.3887C166.214 17.8102 163.606 16.4763 161.525 17.0624C159.921 17.5407 158.917 19.0834 157.853 20.3635C156.789 21.6435 155.158 22.8831 153.582 22.3845C153.629 20.9369 153.842 19.4993 154.215 18.0998C154.602 16.6887 155.463 15.454 156.654 14.6034C157.348 14.2408 158.022 13.8428 158.675 13.4109C160.022 12.333 160.319 10.4602 161.141 8.95783C161.683 7.99224 162.447 7.16962 163.37 6.55809C164.293 5.94655 165.349 5.56368 166.449 5.44116C168.282 5.25252 170.161 5.79822 171.947 5.35358C173.26 5.01673 174.412 4.16114 175.746 3.91187C178.347 3.41334 180.759 5.25926 182.645 7.13886" fill="#263238"/>
<path d="M173.732 10.2917C174.897 9.95489 177.282 9.20035 177.902 8.18982C179.25 5.99358 181.655 4.49798 184.1 4.63272C185.365 4.73078 186.564 5.23609 187.517 6.07293C188.471 6.90977 189.127 8.03306 189.389 9.27446C190.907 9.32972 192.383 9.79304 193.661 10.6158C194.939 11.4385 195.972 12.5902 196.651 13.9499C197.349 15.3768 197.69 16.952 197.644 18.5398C197.598 20.1277 197.167 21.6806 196.388 23.065C195.884 23.7187 195.557 24.4914 195.438 25.3084C195.438 26.3458 196.193 27.161 196.732 28.0031C198.201 30.3341 198.079 33.5409 196.954 36.0874C195.829 38.634 195.014 39.5165 193.397 40.0286C190.224 41.0189 193.397 47.3988 188.102 47.3988L187.037 28.5353C186.884 28.6215 186.718 28.6829 186.546 28.7172C183.42 29.4246 183.009 23.3277 183.709 21.5828C182.532 20.62 181.479 19.5133 180.577 18.2885C179.714 17.0152 178.953 13.5726 179.135 11.976C178.01 12.0164 173.22 10.4534 173.732 10.2917Z" fill="#263238"/>
<path d="M186.6 28.6431C186.741 28.5758 192.339 26.8376 192.252 32.5775C192.164 38.3174 186.418 37.0508 186.411 36.8891C186.404 36.7274 186.6 28.6431 186.6 28.6431Z" fill="#CE947A"/>
<path d="M188.196 34.7064C188.196 34.7064 188.297 34.7805 188.466 34.8613C188.705 34.9598 188.974 34.9598 189.213 34.8613C189.827 34.6457 190.352 33.6891 190.392 32.6583C190.413 32.1671 190.325 31.6773 190.136 31.2234C190.084 31.0436 189.989 30.879 189.86 30.7431C189.731 30.6072 189.572 30.5039 189.395 30.4419C189.28 30.4101 189.158 30.4189 189.049 30.4667C188.94 30.5146 188.85 30.5986 188.796 30.7046C188.722 30.8663 188.755 30.9808 188.722 30.9876C188.688 30.9943 188.6 30.8933 188.648 30.6575C188.685 30.516 188.768 30.3906 188.883 30.3004C189.042 30.1828 189.24 30.132 189.436 30.1589C189.671 30.2092 189.89 30.3193 190.07 30.4786C190.251 30.6379 190.387 30.841 190.467 31.0684C190.704 31.5682 190.815 32.1189 190.79 32.6718C190.736 33.8306 190.116 34.9017 189.294 35.1308C189.14 35.1734 188.979 35.181 188.821 35.153C188.664 35.125 188.515 35.0622 188.385 34.9691C188.21 34.8681 188.176 34.7401 188.196 34.7064Z" fill="#A56349"/>
<path d="M196.126 37.7919C195.775 38.1722 195.512 38.6243 195.354 39.1167C195.197 39.6091 195.148 40.1299 195.212 40.6429C195.276 41.156 195.452 41.6489 195.726 42.0873C196 42.5257 196.366 42.8991 196.799 43.1815C196.564 43.3936 196.288 43.556 195.988 43.659C195.688 43.762 195.371 43.8035 195.054 43.781C194.832 44.5019 195.849 45.0004 196.058 45.728C196.106 45.9509 196.094 46.1825 196.023 46.3991C195.952 46.6157 195.824 46.8096 195.654 46.9609C195.313 47.2664 194.911 47.496 194.475 47.6346C193.2 48.0919 191.861 48.3487 190.507 48.3958C190.116 48.4503 189.718 48.4181 189.341 48.3017C188.963 48.1853 188.616 47.9875 188.324 47.7222C187.959 47.1718 187.788 46.5148 187.839 45.856L187.698 40.9583C187.633 40.478 187.723 39.9898 187.954 39.5637C188.322 39.1505 188.826 38.8828 189.375 38.8092L196.334 37.0306" fill="#263238"/>
<path d="M213.776 149.713C212.88 144.458 207.497 119.086 207.497 119.086L210.826 58.4541C209.29 57.4233 188.856 50.0127 188.856 50.0127C188.856 50.0127 185.71 59.3501 175.713 61.3981C165.715 63.4461 167.305 55.9614 167.305 55.9614C167.305 55.9614 147.768 66.3969 146.629 67.1649C145.491 67.9329 140.627 87.5374 140.627 87.5374L136.948 100.223L152.396 103.814C152.396 103.814 152.78 134.056 152.396 136.232C152.012 138.408 151.237 155.971 151.237 155.971L211.87 156.739C211.87 156.739 214.672 154.967 213.776 149.713Z" fill="#386DA7"/>
<path d="M210.826 58.4742C210.826 58.4742 214.565 62.1391 215.818 65.7636C217.071 69.3881 220.944 93.156 220.944 93.156C220.944 93.156 199.683 96.1606 199.683 95.7834C199.683 95.4061 201.556 82.1478 202.182 78.0248C202.809 73.9018 210.826 58.4742 210.826 58.4742Z" fill="#386DA7"/>
<path d="M165.19 87.6923L163.782 90.9665H162.899L161.498 87.6923H162.502L163.391 89.8279L164.3 87.6923H165.19Z" fill="white"/>
<path d="M165.169 89.3294C165.145 88.9639 165.231 88.5994 165.417 88.2835C165.602 87.9676 165.879 87.7148 166.21 87.558C166.541 87.4013 166.912 87.3477 167.274 87.4044C167.635 87.4611 167.972 87.6254 168.239 87.8759C168.507 88.1264 168.693 88.4516 168.773 88.8091C168.853 89.1666 168.823 89.54 168.688 89.8806C168.553 90.2212 168.319 90.5133 168.016 90.719C167.713 90.9247 167.355 91.0344 166.988 91.0339C166.755 91.0486 166.522 91.0154 166.302 90.9365C166.082 90.8575 165.881 90.7344 165.71 90.5747C165.54 90.4151 165.404 90.2222 165.311 90.008C165.218 89.7939 165.17 89.5629 165.169 89.3294ZM167.864 89.3294C167.855 89.1556 167.795 88.9882 167.691 88.8482C167.588 88.7082 167.446 88.6016 167.282 88.5416C167.119 88.4817 166.941 88.4711 166.772 88.5111C166.602 88.5511 166.448 88.64 166.329 88.7667C166.21 88.8934 166.13 89.0524 166.1 89.2239C166.07 89.3954 166.091 89.5719 166.161 89.7316C166.23 89.8912 166.345 90.0269 166.491 90.1219C166.637 90.2169 166.807 90.2669 166.982 90.2659C167.103 90.268 167.224 90.2449 167.336 90.198C167.448 90.1511 167.549 90.0813 167.632 89.9933C167.716 89.9052 167.78 89.8007 167.821 89.6864C167.862 89.5722 167.879 89.4506 167.871 89.3294H167.864Z" fill="white"/>
<path d="M169.292 87.6923H170.215V90.2321H171.778V90.9665H169.292V87.6923Z" fill="white"/>
<path d="M172.081 89.5113V87.6923H173.004V89.4776C173.004 90.0435 173.24 90.2658 173.631 90.2658C174.022 90.2658 174.244 90.0435 174.244 89.4776V87.6923H175.16V89.5113C175.134 89.902 174.961 90.2682 174.675 90.5357C174.389 90.8033 174.012 90.9522 173.621 90.9522C173.229 90.9522 172.852 90.8033 172.567 90.5357C172.281 90.2682 172.107 89.902 172.081 89.5113Z" fill="white"/>
<path d="M178.899 87.6923V90.9665H178.138L176.689 89.2216V90.9665H175.78V87.6923H176.541L177.99 89.4372V87.6923H178.899Z" fill="white"/>
<path d="M180.247 88.4267H179.243V87.6923H182.173V88.4267H181.176V90.9665H180.247V88.4267Z" fill="white"/>
<path d="M185.131 90.2524V90.9665H182.503V87.6923H185.07V88.4064H183.42V88.9589H184.875V89.6326H183.42V90.2321L185.131 90.2524Z" fill="white"/>
<path d="M188.29 90.2524V90.9665H185.663V87.6923H188.23V88.4064H186.579V88.9589H188.034V89.6326H186.579V90.2321L188.29 90.2524Z" fill="white"/>
<path d="M190.231 90.0974H189.725V90.9665H188.802V87.6923H190.298C191.194 87.6923 191.753 88.1572 191.753 88.905C191.761 89.1208 191.704 89.334 191.59 89.5175C191.476 89.701 191.31 89.8465 191.113 89.9357L191.821 90.9665H190.824L190.231 90.0974ZM190.231 88.4199H189.712V89.3833H190.231C190.615 89.3833 190.803 89.2014 190.803 88.905C190.803 88.6085 190.628 88.4199 190.244 88.4199H190.231Z" fill="white"/>
<path d="M152.45 113.906C152.414 113.799 152.396 113.688 152.396 113.576C152.396 113.313 152.342 112.99 152.302 112.606C152.241 111.77 152.174 110.584 152.127 109.048C152.026 106.037 151.992 101.887 152.026 97.2925C152.059 92.6979 152.14 88.5345 152.228 85.5433C152.275 84.0814 152.322 82.8485 152.349 81.9862C152.349 81.5954 152.389 81.2788 152.403 81.016C152.403 80.9021 152.419 80.7887 152.45 80.6792C152.466 80.7909 152.466 80.9043 152.45 81.016C152.45 81.2788 152.45 81.6022 152.45 81.9862C152.45 82.8822 152.45 84.0881 152.45 85.55C152.45 88.6018 152.389 92.7316 152.349 97.2992C152.309 101.867 152.315 106.057 152.349 109.042C152.349 110.544 152.389 111.736 152.416 112.599C152.416 112.99 152.416 113.272 152.416 113.569C152.442 113.679 152.454 113.792 152.45 113.906Z" fill="#263238"/>
<path d="M201.603 74.3667C201.637 74.6283 201.637 74.8933 201.603 75.1549C201.603 75.741 201.603 76.4551 201.569 77.304C201.569 79.2038 201.529 81.6695 201.502 84.4047C201.475 87.1399 201.428 89.6865 201.333 91.5055C201.286 92.4149 201.239 93.1493 201.185 93.6545C201.172 93.9181 201.134 94.1799 201.07 94.436C201.036 94.1744 201.036 93.9094 201.07 93.6478C201.07 93.0617 201.07 92.3476 201.07 91.4987C201.07 89.5989 201.111 87.1332 201.138 84.398C201.165 81.6628 201.219 79.1162 201.306 77.2973C201.353 76.3878 201.407 75.6535 201.454 75.1482C201.478 74.8835 201.528 74.6217 201.603 74.3667Z" fill="#263238"/>
<path d="M210.186 58.9594C207.256 59.9879 204.697 61.8638 202.836 64.3489C202.99 63.92 203.218 63.5211 203.509 63.1699C204.179 62.2809 204.978 61.4974 205.881 60.8457C206.779 60.1882 207.768 59.6662 208.818 59.2962C209.25 59.1021 209.713 58.988 210.186 58.9594Z" fill="#263238"/>
<path d="M151.325 73.9558C151.237 74.0096 150.348 72.4736 149.034 70.7422C147.721 69.0109 146.501 67.7174 146.575 67.6432C148.607 69.3611 150.22 71.5201 151.291 73.9558H151.325Z" fill="#263238"/>
<path d="M188.533 111.972C188.472 112.083 188.4 112.186 188.317 112.282C188.142 112.504 187.927 112.787 187.644 113.124C187.071 113.859 186.209 114.896 185.117 116.149C182.266 119.421 179.241 122.538 176.056 125.487C172.87 128.432 169.531 131.207 166.052 133.8C164.704 134.79 163.613 135.572 162.838 136.084L161.942 136.677C161.843 136.753 161.734 136.816 161.619 136.865C161.705 136.775 161.799 136.694 161.902 136.623L162.758 135.949C163.512 135.397 164.583 134.602 165.904 133.571C168.531 131.55 172.095 128.646 175.82 125.204C179.546 121.761 182.706 118.433 184.935 115.961C186.047 114.728 186.957 113.717 187.543 113.01L188.216 112.208C188.432 112.053 188.499 111.966 188.533 111.972Z" fill="#263238"/>
<path d="M214.147 189.656L222.184 165.046C223.383 161.367 224.697 157.514 227.574 154.94C229.251 153.431 231.804 152.448 233.758 153.593C234.397 154.024 234.923 154.603 235.289 155.281C235.655 155.959 235.851 156.716 235.86 157.487C235.87 159.028 235.617 160.559 235.112 162.014C231.878 173.218 227.944 184.199 223.855 195.119L224.272 194.365" fill="#386DA7"/>
<path d="M224.879 184.024C224.879 184.132 223.605 183.855 222.184 183.242C220.762 182.629 219.678 181.942 219.738 181.841C219.799 181.74 220.931 182.259 222.346 182.852C223.76 183.444 224.926 183.909 224.879 184.024Z" fill="#263238"/>
<path d="M227.574 178.082C227.526 178.19 226.226 177.657 224.576 177.011C222.925 176.364 221.625 175.832 221.659 175.717C221.692 175.603 223.087 175.96 224.731 176.62C226.374 177.28 227.574 177.974 227.574 178.082Z" fill="#263238"/>
<path d="M230.039 173.17C229.972 173.272 228.692 172.45 226.974 171.715C225.256 170.981 223.794 170.604 223.821 170.476C223.848 170.348 225.391 170.563 227.142 171.325C228.894 172.086 230.107 173.083 230.039 173.17Z" fill="#263238"/>
<path d="M231.616 166.979C231.535 167.074 230.43 166.164 228.88 165.376C227.331 164.588 225.963 164.204 225.99 164.082C226.017 163.961 227.472 164.17 229.076 164.999C230.679 165.827 231.69 166.905 231.616 166.979Z" fill="#263238"/>
<path d="M213.985 168.61H211.587V173.359H213.985V168.61Z" fill="#263238"/>
<path d="M211.304 182.629V172.719H214.228V180.985C214.228 180.985 217.306 181.073 217.69 182.427C218.533 185.405 218.162 192.101 218.162 192.101L211.304 182.629Z" fill="#455A64"/>
<path d="M236.601 208.964C235.772 203.985 234.499 199.061 234.257 194.021C234.095 190.565 234.425 187.082 233.994 183.646C233.475 179.51 231.878 175.596 230.295 171.742C229.271 169.243 228.153 166.622 226.017 164.958C224.724 163.988 223.16 163.444 221.544 163.402C218.607 162.196 210.549 161.852 208.003 167.255C206.655 170.125 206.494 173.393 205.719 176.478C204.681 180.628 205.429 181.996 204.068 186.052C201.178 194.722 196.793 205.481 198.073 214.535C198.322 216.294 201.252 219.19 202.249 220.659C203.684 222.781 206.292 223.731 208.825 224.27C215.979 225.767 223.424 224.97 230.1 221.993C232.485 220.922 234.863 219.467 236.069 217.149C237.349 214.683 237.059 211.713 236.601 208.964ZM228.961 181.006C227.614 182.137 225.647 181.585 223.902 181.497C221.807 181.39 219.759 182.07 217.69 182.427C215.622 182.784 213.311 182.771 211.627 181.491C210.396 180.444 209.622 178.957 209.471 177.347C209.327 175.755 209.415 174.151 209.734 172.584C209.876 171.361 210.189 170.164 210.664 169.027C211.146 167.879 212.047 166.956 213.183 166.447C214.531 165.773 219.395 165.329 221.268 165.046C222.933 165.881 224.381 167.092 225.499 168.583C226.996 170.657 228.208 172.923 229.103 175.32C229.541 176.237 229.825 177.22 229.945 178.23C230.006 178.737 229.95 179.252 229.779 179.733C229.608 180.215 229.329 180.65 228.961 181.006Z" fill="#FAFAFA"/>
<path d="M228.961 181.006C229.29 180.672 229.541 180.269 229.696 179.827C229.872 179.298 229.934 178.737 229.878 178.183C229.784 177.435 229.585 176.705 229.285 176.014C228.542 174.124 227.666 172.289 226.664 170.523C225.407 168.252 223.512 166.4 221.214 165.194H221.308L217.367 165.713C216.693 165.807 216.02 165.915 215.306 166.043C214.614 166.152 213.936 166.337 213.285 166.595C212.215 167.074 211.363 167.934 210.893 169.007C210.471 169.967 210.183 170.98 210.037 172.019C209.869 173.049 209.7 174.04 209.633 175.064C209.55 176.041 209.605 177.025 209.795 177.987C209.987 178.9 210.375 179.76 210.933 180.507C211.479 181.205 212.206 181.739 213.035 182.05C213.829 182.331 214.666 182.47 215.508 182.461C217.034 182.401 218.55 182.175 220.028 181.787C221.272 181.486 222.548 181.343 223.828 181.363C224.953 181.43 225.903 181.605 226.684 181.605C227.285 181.635 227.884 181.526 228.436 181.289C228.806 181.107 228.968 180.958 228.982 180.972C228.832 181.126 228.66 181.256 228.47 181.356C227.913 181.623 227.301 181.755 226.684 181.74C225.889 181.74 224.926 181.605 223.821 181.558C222.56 181.561 221.304 181.719 220.082 182.03C218.585 182.422 217.048 182.648 215.501 182.703C214.625 182.721 213.753 182.58 212.927 182.286C212.042 181.966 211.265 181.403 210.684 180.662C209.53 179.013 209.033 176.993 209.29 174.996C209.357 173.972 209.525 172.975 209.694 171.911C209.847 170.843 210.144 169.8 210.576 168.812C211.083 167.653 212.006 166.727 213.163 166.218C213.847 165.948 214.559 165.756 215.285 165.645C215.959 165.517 216.673 165.41 217.36 165.315L221.295 164.81H221.349H221.396C223.744 166.049 225.672 167.958 226.934 170.294C227.933 172.078 228.793 173.936 229.507 175.852C229.803 176.564 229.994 177.315 230.073 178.082C230.119 178.656 230.039 179.233 229.837 179.773C229.71 180.109 229.52 180.417 229.278 180.682C229.191 180.807 229.084 180.916 228.961 181.006Z" fill="#263238"/>
<path d="M236.601 208.964C236.601 208.964 236.736 209.536 236.877 210.648C236.972 211.334 237.026 212.024 237.039 212.716C237.065 213.664 236.968 214.61 236.749 215.532C236.468 216.696 235.911 217.775 235.126 218.678C234.182 219.734 233.057 220.612 231.804 221.272C228.761 222.869 225.488 223.985 222.103 224.58C217.998 225.325 213.792 225.325 209.687 224.58C208.558 224.396 207.446 224.114 206.366 223.738C205.233 223.36 204.18 222.775 203.26 222.013C202.8 221.618 202.392 221.165 202.047 220.666C201.704 220.181 201.313 219.716 200.922 219.244C200.102 218.305 199.341 217.315 198.645 216.28C198.275 215.739 198.022 215.126 197.904 214.481C197.843 213.841 197.749 213.201 197.729 212.555C197.664 211.248 197.687 209.938 197.796 208.634C198.042 205.952 198.511 203.295 199.198 200.691C199.871 198.037 200.713 195.375 201.616 192.701C202.074 191.354 202.539 190.006 203.004 188.659C203.469 187.311 203.967 185.964 204.351 184.563C204.677 183.151 204.875 181.712 204.944 180.265C205.067 178.823 205.313 177.394 205.679 175.993C206.319 173.231 206.541 170.375 207.619 167.768C207.748 167.442 207.901 167.127 208.077 166.824C208.239 166.513 208.431 166.217 208.65 165.942C209.069 165.384 209.568 164.892 210.132 164.48C211.249 163.689 212.517 163.136 213.857 162.856C215.155 162.572 216.485 162.463 217.812 162.533C219.113 162.579 220.399 162.827 221.625 163.267H221.726V163.382L221.571 163.22C223.467 163.264 225.283 163.997 226.678 165.282C227.94 166.545 228.938 168.048 229.615 169.701C230.945 172.693 232.108 175.756 233.098 178.877C233.534 180.316 233.861 181.787 234.075 183.276C234.253 184.668 234.341 186.07 234.337 187.473C234.337 190.168 234.243 192.647 234.412 194.884C234.563 196.881 234.817 198.868 235.173 200.839C235.469 202.564 235.752 204.039 235.975 205.238C236.197 206.438 236.359 207.354 236.466 207.98C236.513 208.283 236.547 208.519 236.574 208.688C236.601 208.856 236.574 208.93 236.574 208.93C236.574 208.93 236.574 208.849 236.52 208.694C236.466 208.539 236.439 208.29 236.385 207.987C236.257 207.354 236.082 206.437 235.847 205.252C235.611 204.066 235.308 202.591 234.991 200.866C234.624 198.891 234.356 196.899 234.189 194.897C234.007 192.647 234.108 190.181 234.081 187.487C234.072 186.094 233.976 184.703 233.792 183.323C233.577 181.848 233.25 180.39 232.815 178.964C231.808 175.858 230.634 172.809 229.298 169.829C228.633 168.214 227.653 166.749 226.415 165.517C225.075 164.289 223.334 163.589 221.517 163.55H221.362V163.382L221.463 163.53C220.27 163.116 219.02 162.889 217.758 162.856C216.461 162.79 215.16 162.897 213.891 163.173C212.595 163.444 211.37 163.981 210.293 164.749C209.756 165.14 209.279 165.607 208.879 166.137C208.673 166.4 208.492 166.682 208.34 166.979C208.17 167.274 208.021 167.58 207.895 167.896C206.851 170.429 206.622 173.285 205.982 176.061C205.617 177.445 205.374 178.858 205.254 180.285C205.184 181.75 204.983 183.207 204.655 184.637C204.277 186.058 203.772 187.406 203.307 188.767C202.842 190.127 202.384 191.461 201.919 192.809C201.017 195.503 200.181 198.131 199.507 200.778C198.82 203.362 198.349 205.999 198.099 208.661C197.991 209.949 197.966 211.243 198.025 212.534C198.025 213.174 198.147 213.808 198.201 214.434C198.301 215.034 198.531 215.604 198.874 216.105C199.559 217.131 200.308 218.112 201.118 219.042C201.508 219.521 201.899 219.985 202.256 220.484C202.58 220.983 202.97 221.437 203.415 221.831C204.306 222.568 205.324 223.134 206.42 223.502C207.486 223.872 208.581 224.154 209.694 224.344C213.762 225.1 217.934 225.118 222.009 224.398C225.374 223.821 228.631 222.728 231.663 221.158C232.9 220.515 234.015 219.66 234.957 218.631C235.729 217.749 236.281 216.696 236.567 215.559C236.922 213.969 236.988 212.329 236.763 210.715C236.695 210.17 236.641 209.752 236.608 209.456C236.574 209.159 236.601 208.964 236.601 208.964Z" fill="#263238"/>
<path d="M228.961 181.006C229.281 180.667 229.526 180.265 229.682 179.827C229.858 179.298 229.92 178.737 229.864 178.183C229.771 177.436 229.569 176.708 229.265 176.02C228.522 174.131 227.644 172.299 226.637 170.536C225.384 168.269 223.491 166.42 221.194 165.221H221.308L217.367 165.74C216.693 165.841 216.02 165.942 215.312 166.07C214.621 166.179 213.944 166.362 213.291 166.615C212.232 167.095 211.388 167.949 210.92 169.014C210.5 169.971 210.214 170.983 210.071 172.019C209.896 173.043 209.734 174.04 209.66 175.064C209.416 176.958 209.876 178.876 210.954 180.453C211.493 181.148 212.217 181.677 213.042 181.982C213.831 182.263 214.663 182.404 215.501 182.4C217.025 182.336 218.538 182.11 220.015 181.726C221.26 181.422 222.539 181.279 223.821 181.302C224.953 181.369 225.896 181.551 226.678 181.551C227.275 181.583 227.872 181.477 228.422 181.241C228.793 181.066 228.955 180.918 228.975 180.931C228.829 181.091 228.656 181.224 228.463 181.322C227.908 181.596 227.296 181.73 226.678 181.713C225.883 181.713 224.919 181.578 223.814 181.538C222.555 181.543 221.302 181.704 220.082 182.016C218.584 182.423 217.045 182.663 215.494 182.73C214.616 182.742 213.743 182.601 212.914 182.313C212.021 181.99 211.236 181.423 210.65 180.675C209.493 179.017 208.994 176.988 209.249 174.983C209.316 173.959 209.485 172.962 209.653 171.897C209.801 170.823 210.1 169.775 210.543 168.785C211.052 167.62 211.98 166.69 213.143 166.178C213.828 165.902 214.542 165.707 215.272 165.598C215.946 165.463 216.666 165.362 217.347 165.268L221.288 164.763H221.349H221.403C223.755 166.007 225.687 167.92 226.954 170.26C227.948 172.048 228.806 173.908 229.521 175.825C229.819 176.538 230.007 177.292 230.08 178.062C230.123 178.638 230.041 179.218 229.837 179.759C229.71 180.095 229.52 180.404 229.278 180.669C229.194 180.799 229.087 180.914 228.961 181.006Z" fill="#263238"/>
<path d="M231.144 202.106C231.089 201.659 230.922 201.233 230.66 200.867C230.397 200.501 230.047 200.206 229.642 200.01C228.389 199.465 226.947 200.219 226.038 201.257C225.128 202.294 224.636 203.601 223.821 204.686C223.105 205.624 222.181 206.384 221.122 206.905C220.063 207.426 218.898 207.695 217.717 207.691C214.847 207.691 211.984 206 209.242 206.848C208.306 207.138 207.369 207.872 207.363 208.87C207.423 209.542 207.733 210.167 208.232 210.621C209.601 212.084 211.402 213.071 213.372 213.437C216.781 213.322 220.134 212.539 223.242 211.133C226.839 209.597 229.487 207.697 230.726 204.747C231.107 203.922 231.251 203.008 231.144 202.106Z" fill="#E0E0E0"/>
<path d="M230.672 206.148C230.51 206.383 230.317 206.595 230.1 206.781C229.539 207.324 228.947 207.835 228.328 208.31C224.199 211.477 219.203 213.31 214.005 213.565C213.225 213.615 212.442 213.615 211.661 213.565C211.375 213.565 211.089 213.529 210.812 213.457C210.812 213.377 212.031 213.457 213.985 213.289C219.085 212.871 223.976 211.073 228.133 208.088C229.736 206.929 230.625 206.087 230.672 206.148Z" fill="#263238"/>
<path d="M229.682 190.936C229.689 191.296 229.656 191.655 229.581 192.007C229.487 192.681 229.339 193.678 229.096 194.89C228.817 196.319 228.423 197.723 227.917 199.088C227.3 200.775 226.403 202.347 225.263 203.736C224.11 205.135 222.625 206.224 220.944 206.902C219.567 207.423 218.097 207.652 216.626 207.576C215.64 207.54 214.663 207.37 213.722 207.071C213.392 206.963 213.143 206.862 212.975 206.788C212.806 206.714 212.725 206.667 212.732 206.653C214.003 207.015 215.312 207.223 216.633 207.273C218.06 207.298 219.477 207.039 220.803 206.512C222.414 205.841 223.835 204.784 224.939 203.433C227.338 200.563 228.234 197.161 228.8 194.803C229.083 193.604 229.278 192.627 229.419 191.946C229.473 191.602 229.561 191.263 229.682 190.936Z" fill="#263238"/>
<path d="M207.908 202.725C207.482 202.448 207.119 202.083 206.844 201.654C206.102 200.678 205.559 199.566 205.247 198.38C204.929 197.193 204.842 195.956 204.991 194.735C205.022 194.229 205.155 193.734 205.382 193.28C205.524 193.28 204.904 195.571 205.652 198.266C206.399 200.96 208.036 202.645 207.908 202.725Z" fill="#263238"/>
<path d="M208.946 182.501C208.66 181.663 208.455 180.799 208.333 179.921C207.914 177.811 207.782 175.653 207.942 173.507C208.119 171.337 208.878 169.254 210.138 167.478C210.524 166.946 210.977 166.466 211.486 166.05C211.66 165.88 211.863 165.743 212.085 165.645C211.474 166.28 210.907 166.955 210.388 167.666C209.241 169.439 208.547 171.465 208.367 173.568C208.212 175.68 208.3 177.802 208.629 179.894C208.79 180.756 208.895 181.626 208.946 182.501Z" fill="#263238"/>
<path d="M203.442 95.5004L208.73 119.268L210.314 156.577L221.834 155.722L223.504 117.699L219.759 93.3244L203.442 95.5004Z" fill="#CE947A"/>
<path d="M211.54 170.321C211.426 170.374 211.302 170.402 211.176 170.402C211.05 170.401 210.926 170.373 210.813 170.319C210.699 170.265 210.599 170.186 210.52 170.088C210.441 169.991 210.384 169.877 210.354 169.755C209.916 168.125 208.784 163.692 208.811 162.048C208.852 159.98 210.037 152.01 210.037 152.01L222.049 152.091L225.067 163.052C225.067 163.052 224.279 167.552 223.491 167.815C222.989 167.942 222.481 168.041 221.968 168.111L221.638 169.492C220.965 171.601 218.465 171.021 218.465 171.021C218.354 171.428 218.151 171.804 217.872 172.121C217.593 172.437 217.245 172.686 216.855 172.847C216.494 172.975 216.105 172.998 215.731 172.914C215.358 172.829 215.017 172.64 214.746 172.369C214.746 172.369 213.103 173.332 212.382 172.531C211.661 171.729 211.863 170.004 211.863 170.004C211.795 170.144 211.681 170.256 211.54 170.321Z" fill="#CE947A"/>
<path d="M211.89 170.907C211.909 170.784 211.909 170.659 211.89 170.536C211.894 170.201 211.878 169.866 211.843 169.533C211.775 168.691 211.6 167.512 211.405 166.258C211.226 165.177 211.111 164.086 211.061 162.991C211.061 162.156 211.162 161.644 211.129 161.644C211.073 161.754 211.034 161.872 211.014 161.994C210.945 162.324 210.907 162.66 210.9 162.998C210.903 164.104 211 165.209 211.189 166.299C211.385 167.572 211.58 168.724 211.688 169.56C211.796 170.395 211.856 170.907 211.89 170.907Z" fill="#A56349"/>
<path d="M214.679 172.382C214.79 172.103 214.854 171.807 214.868 171.507C214.95 170.791 214.97 170.07 214.928 169.351C214.881 168.509 214.8 167.747 214.726 167.208C214.709 166.909 214.654 166.612 214.564 166.326C214.557 167.338 214.602 168.35 214.699 169.357C214.739 170.069 214.739 170.782 214.699 171.493C214.667 171.788 214.66 172.086 214.679 172.382Z" fill="#A56349"/>
<path d="M218.492 171.042C218.674 170.199 218.735 169.335 218.674 168.475C218.683 167.612 218.561 166.754 218.31 165.928C218.25 165.928 218.405 167.074 218.445 168.482C218.485 169.89 218.425 171.035 218.492 171.042Z" fill="#A56349"/>
<path d="M221.638 169.492C221.917 168.185 221.889 166.832 221.557 165.538C221.536 166.198 221.552 166.859 221.605 167.518C221.632 168.603 221.578 169.485 221.638 169.492Z" fill="#A56349"/>
<path d="M218.142 164.285C218.142 164.285 218.209 164.143 218.142 163.914C218.085 163.615 217.928 163.344 217.697 163.146C217.459 162.952 217.162 162.845 216.855 162.843C216.626 162.843 216.491 162.91 216.498 162.937C216.874 162.976 217.234 163.105 217.549 163.314C217.825 163.583 218.029 163.917 218.142 164.285Z" fill="#A56349"/>
<path d="M221.551 163.139C221.611 163.139 221.551 162.688 221.086 162.398C220.968 162.299 220.826 162.233 220.674 162.208C220.522 162.183 220.367 162.2 220.224 162.257C220.224 162.324 220.601 162.338 220.965 162.587C221.328 162.836 221.51 163.159 221.551 163.139Z" fill="#A56349"/>
<path d="M214.16 163.725C214.221 163.725 214.241 163.402 213.951 163.18C213.662 162.957 213.352 163.045 213.372 163.106C213.392 163.166 213.608 163.186 213.817 163.355C214.026 163.523 214.1 163.732 214.16 163.725Z" fill="#A56349"/>
<path d="M210.058 152.01C210.055 152.041 210.055 152.073 210.058 152.104L210.01 152.401C209.963 152.67 209.903 153.074 209.828 153.539C209.674 154.529 209.458 155.978 209.215 157.797C209.101 158.713 208.973 159.71 208.865 160.802C208.792 161.367 208.768 161.937 208.791 162.506C208.84 163.112 208.921 163.714 209.033 164.311C209.256 165.538 209.552 166.824 209.882 168.158C209.97 168.488 210.051 168.832 210.138 169.169C210.186 169.337 210.233 169.506 210.273 169.681C210.314 169.872 210.402 170.051 210.529 170.2C210.666 170.356 210.852 170.461 211.056 170.498C211.261 170.534 211.471 170.5 211.654 170.402C211.708 170.362 211.746 170.305 211.762 170.24C211.781 170.192 211.796 170.142 211.809 170.092C211.809 169.997 211.85 169.91 211.863 169.816C211.887 169.626 211.9 169.434 211.903 169.243C211.903 169.214 211.892 169.187 211.872 169.167C211.852 169.146 211.824 169.135 211.796 169.135C211.767 169.135 211.74 169.146 211.719 169.167C211.699 169.187 211.688 169.214 211.688 169.243C211.676 169.729 211.694 170.215 211.742 170.698C211.78 171.199 211.891 171.691 212.072 172.16C212.171 172.415 212.345 172.633 212.57 172.787C212.81 172.922 213.085 172.981 213.359 172.955C213.884 172.898 214.392 172.73 214.847 172.463H214.706C214.898 172.661 215.127 172.819 215.38 172.928C215.708 173.058 216.063 173.107 216.415 173.072C216.766 173.037 217.104 172.918 217.401 172.726C217.972 172.326 218.386 171.74 218.573 171.069L218.438 171.149C219.113 171.294 219.815 171.24 220.459 170.994C220.769 170.864 221.046 170.667 221.269 170.416C221.493 170.166 221.658 169.868 221.753 169.546C221.861 169.074 221.968 168.616 222.076 168.158L221.995 168.239C222.292 168.199 222.588 168.145 222.878 168.091L223.309 168.003L223.531 167.943C223.613 167.906 223.686 167.853 223.747 167.788C223.935 167.554 224.081 167.29 224.178 167.006C224.286 166.737 224.373 166.467 224.454 166.198C224.743 165.175 224.979 164.139 225.162 163.092V163.052L222.925 155.082C222.656 154.145 222.447 153.404 222.299 152.886C222.224 152.643 222.164 152.448 222.123 152.306C222.11 152.241 222.087 152.177 222.056 152.118C222.065 152.184 222.078 152.249 222.096 152.313C222.137 152.461 222.184 152.65 222.245 152.899C222.379 153.425 222.581 154.166 222.831 155.116C223.349 157.036 224.091 159.778 224.987 163.106V163.065C224.801 164.103 224.563 165.131 224.272 166.144C224.192 166.407 224.104 166.669 223.996 166.932C223.907 167.19 223.775 167.432 223.605 167.646C223.569 167.69 223.523 167.724 223.471 167.747L223.269 167.801L222.844 167.889C222.555 167.943 222.265 167.99 221.968 168.03C221.948 168.035 221.929 168.045 221.914 168.059C221.899 168.073 221.887 168.091 221.881 168.111C221.773 168.569 221.665 169.027 221.551 169.458C221.472 169.758 221.325 170.035 221.121 170.269C220.918 170.502 220.664 170.686 220.378 170.806C219.78 171.03 219.131 171.079 218.506 170.947C218.477 170.944 218.449 170.95 218.424 170.965C218.4 170.979 218.381 171.002 218.371 171.028C218.198 171.645 217.817 172.183 217.293 172.551C217.023 172.725 216.715 172.833 216.395 172.864C216.076 172.896 215.753 172.851 215.454 172.733C215.225 172.64 215.016 172.502 214.841 172.328C214.82 172.314 214.795 172.306 214.77 172.306C214.745 172.306 214.72 172.314 214.699 172.328C214.275 172.58 213.802 172.738 213.311 172.793C213.078 172.818 212.843 172.771 212.638 172.659C212.454 172.526 212.311 172.344 212.227 172.133C212.057 171.683 211.95 171.211 211.91 170.732C211.866 170.259 211.848 169.785 211.856 169.31H211.641C211.637 169.488 211.624 169.666 211.6 169.842C211.6 169.93 211.6 170.024 211.553 170.105C211.506 170.186 211.479 170.274 211.499 170.301C211.353 170.357 211.195 170.373 211.041 170.348C210.885 170.313 210.744 170.23 210.637 170.112C210.529 169.993 210.457 169.846 210.428 169.688C210.388 169.512 210.34 169.344 210.293 169.176C210.206 168.839 210.118 168.502 210.037 168.165C209.7 166.818 209.364 165.558 209.168 164.338C209.054 163.748 208.971 163.152 208.919 162.553C208.895 161.993 208.915 161.432 208.98 160.876C209.081 159.791 209.195 158.787 209.31 157.878C209.539 156.072 209.721 154.624 209.849 153.606C209.916 153.121 209.963 152.737 209.997 152.468C209.997 152.347 209.997 152.246 209.997 152.172C209.997 152.097 210.058 152.01 210.058 152.01Z" fill="#A56349"/>
<path d="M167.305 50.2013C171.183 50.2086 174.975 49.0618 178.199 46.907C178.199 46.907 175.713 52.9702 167.318 52.3773L167.305 50.2013Z" fill="#A56349"/>
<path opacity="0.3" d="M201.091 95.8171L203.442 95.5005L207.733 114.788L207.497 119.086L209.027 126.329L209.539 138.401C209.539 138.401 203.752 120.252 203.442 115.92C203.105 111.272 201.091 95.7901 201.091 95.7901" fill="black"/>
<path d="M95.9541 285.536C95.9541 285.536 96.7154 290.319 96.6884 291.154L100.057 294.065L108.653 292.145L109.361 285.111L95.9541 285.536Z" fill="#F4C3AE"/>
<path d="M108.828 291.087V291.855C108.828 291.855 121.824 296.894 121.992 299.347L96.3112 299.522L96.6008 290.973C98.5107 291.87 100.592 292.345 102.702 292.365C104.812 292.385 106.902 291.949 108.828 291.087Z" fill="#386DA7"/>
<g opacity="0.6">
<path d="M96.3246 299.522L96.392 297.467L120.982 298.046C120.982 298.046 122.127 298.538 122.006 299.347L96.3246 299.522Z" fill="white"/>
</g>
<path d="M108.936 291.922C108.936 292.05 108.303 292.111 107.69 292.515C107.077 292.919 106.753 293.458 106.632 293.404C106.511 293.351 106.7 292.63 107.454 292.151C108.209 291.673 108.963 291.808 108.936 291.922Z" fill="#263238"/>
<path d="M111.638 293.021C111.638 293.142 111.126 293.357 110.701 293.89C110.277 294.422 110.162 294.988 110.028 294.981C109.893 294.974 109.819 294.267 110.358 293.634C110.897 293 111.631 292.899 111.638 293.021Z" fill="#263238"/>
<path d="M113.187 296.234C113.073 296.234 112.898 295.635 113.187 294.947C113.477 294.26 114.09 293.977 114.144 294.085C114.198 294.193 113.834 294.557 113.585 295.129C113.335 295.702 113.315 296.221 113.187 296.234Z" fill="#263238"/>
<path d="M123.919 285.536C123.919 285.536 124.68 290.319 124.653 291.154L128.022 294.065L136.625 292.145L137.339 285.111L123.919 285.536Z" fill="#F4C3AE"/>
<path d="M136.8 291.087V291.855C136.8 291.855 149.796 296.894 149.964 299.347L124.276 299.522L124.566 290.973C126.477 291.87 128.559 292.345 130.671 292.365C132.782 292.385 134.873 291.949 136.8 291.087Z" fill="#386DA7"/>
<g opacity="0.6">
<path d="M124.29 299.522L124.364 297.467L148.954 298.046C148.954 298.046 150.099 298.538 149.978 299.347L124.29 299.522Z" fill="white"/>
</g>
<path d="M136.901 291.922C136.901 292.05 136.275 292.111 135.655 292.515C135.035 292.919 134.718 293.458 134.604 293.404C134.489 293.351 134.671 292.63 135.419 292.151C136.167 291.673 136.928 291.808 136.901 291.922Z" fill="#263238"/>
<path d="M139.603 293.021C139.603 293.142 139.091 293.357 138.666 293.89C138.242 294.422 138.127 294.988 137.993 294.981C137.858 294.974 137.784 294.267 138.323 293.634C138.862 293 139.603 292.899 139.603 293.021Z" fill="#263238"/>
<path d="M141.152 296.234C141.044 296.234 140.863 295.635 141.152 294.947C141.442 294.26 142.055 293.977 142.109 294.085C142.163 294.193 141.799 294.557 141.55 295.129C141.3 295.702 141.28 296.221 141.152 296.234Z" fill="#263238"/>
<path d="M145.524 165.612H89.069L83.2348 192.344L94.8964 287.388H112.951L117.081 203.675L121.426 287.388H140.782L148.913 193.395L145.524 165.612Z" fill="#263238"/>
<path d="M102.368 286.061C102.267 286.061 102.024 269.307 101.815 248.651C101.606 227.996 101.519 211.214 101.593 211.214C101.667 211.214 101.937 227.955 102.139 248.624C102.341 269.293 102.462 286.055 102.368 286.061Z" fill="#455A64"/>
<path d="M131.276 285.738C131.27 285.668 131.27 285.599 131.276 285.529C131.276 285.374 131.31 285.172 131.336 284.916C131.397 284.357 131.478 283.569 131.592 282.565C131.822 280.544 132.131 277.573 132.482 273.921C132.832 270.27 133.155 265.918 133.513 261.074C133.87 256.23 134.085 250.908 134.247 245.316C134.409 239.725 134.429 234.382 134.395 229.532C134.361 224.681 134.227 220.316 134.078 216.651C133.93 212.986 133.789 210.015 133.667 207.967C133.62 206.963 133.58 206.175 133.546 205.609C133.546 205.353 133.546 205.151 133.546 204.996C133.542 204.926 133.542 204.857 133.546 204.787C133.568 204.855 133.579 204.925 133.58 204.996L133.641 205.602C133.681 206.168 133.748 206.95 133.829 207.96C133.991 209.981 134.173 212.972 134.348 216.637C134.523 220.302 134.665 224.674 134.739 229.532C134.813 234.389 134.739 239.725 134.617 245.323C134.496 250.922 134.179 256.257 133.856 261.101C133.533 265.945 133.135 270.297 132.751 273.948C132.367 277.6 132.024 280.551 131.747 282.585C131.606 283.582 131.505 284.364 131.424 284.923C131.424 285.179 131.357 285.381 131.336 285.536C131.323 285.605 131.303 285.673 131.276 285.738Z" fill="#455A64"/>
<path d="M114.979 79.8438L93.421 81.0093L91.6627 89.134C91.6627 89.134 97.6114 93.9105 98.2042 94.1059C98.7971 94.3013 112.352 96.1943 112.352 96.1943C112.352 96.1943 126.937 89.3968 126.742 89.4574C126.547 89.518 114.979 79.8438 114.979 79.8438Z" fill="#F4C3AE"/>
<path d="M96.2034 42.2181C94.9773 40.9448 92.9023 41.1873 91.1642 41.5444C90.1402 41.691 89.1435 41.9884 88.2066 42.4269C87.74 42.6521 87.3278 42.9759 86.9986 43.3761C86.6694 43.7762 86.4311 44.2431 86.3001 44.7444C85.9969 46.2872 87.095 47.8164 86.8997 49.3794C86.7969 49.9236 86.5775 50.439 86.2565 50.8902C85.9356 51.3415 85.5206 51.7178 85.0403 51.9933C84.0759 52.5402 83.0363 52.942 81.9548 53.1858C82.4856 53.8562 83.1504 54.4085 83.9067 54.8076C84.663 55.2066 85.4942 55.4435 86.3472 55.5033C86.2462 56.0624 85.5321 56.2241 84.9999 56.2982C84.4676 56.3723 83.7198 56.689 83.8007 57.2549C83.8791 57.5366 84.0623 57.7776 84.3127 57.9286C87.3003 60.1657 90.9813 61.2774 94.7078 61.068C96.4459 60.9669 98.2851 60.5021 99.4236 59.2019C100.562 57.9016 100.771 56.2578 100.771 54.6342C100.739 52.4024 100.231 50.2032 99.2822 48.183C98.3331 46.1628 96.9643 44.3682 95.2669 42.9187" fill="#E0E0E0"/>
<path d="M95.2534 43.0265C94.9853 41.9156 94.9756 40.7581 95.225 39.6429C95.4744 38.5277 95.9762 37.4845 96.692 36.5937C97.4078 35.7029 98.3184 34.9882 99.3537 34.5045C100.389 34.0208 101.522 33.781 102.664 33.8036C103.461 33.9158 104.273 33.863 105.049 33.6487C105.693 33.2849 106.269 32.8132 106.753 32.2541C108.33 30.8259 110.526 30.3476 112.621 30.0175C115.606 29.5459 118.732 29.2764 121.581 30.2668C124.431 31.2571 126.93 33.8171 126.971 36.8353C126.971 38.1826 126.546 39.4492 126.472 40.7696C126.398 42.0901 126.836 43.6059 128.035 44.1381C128.81 44.5019 129.821 44.4345 130.373 45.088C130.575 45.3888 130.678 45.745 130.669 46.1071C130.659 46.4693 130.537 46.8195 130.319 47.1091C129.853 47.6768 129.269 48.1365 128.608 48.4565C129.156 48.6044 129.641 48.9285 129.986 49.379C130.332 49.8295 130.52 50.3812 130.521 50.9491C130.501 51.5166 130.355 52.0725 130.094 52.5768C129.833 53.0812 129.463 53.5215 129.012 53.8662C128.104 54.5469 127.058 55.0205 125.947 55.254C120.739 56.5543 115.208 55.2136 110.31 53.0241C104.908 50.5968 100.013 47.1678 95.8867 42.9187L96.3044 42.4404" fill="#E0E0E0"/>
<path d="M93.9196 45.5326C94.088 45.0543 95.496 41.8273 96.0013 41.861C96.3583 41.861 95.5229 44.8792 95.7116 45.1891C97.5373 48.1196 98.1167 51.6902 97.9415 55.1395C97.7335 58.4885 97.1505 61.8036 96.2034 65.0226" fill="#E0E0E0"/>
<path d="M96.2034 65.0226C94.9925 61.9099 94.0548 58.6977 93.4008 55.4224L96.2034 65.0226Z" fill="#E0E0E0"/>
<path d="M106.053 92.5833C103.564 92.6021 101.167 91.6461 99.374 89.92C97.5811 88.1939 96.535 85.8346 96.4594 83.347L95.5297 52.2224C95.0109 43.8619 99.4438 36.5927 107.811 36.3098H108.586C112.345 36.4038 115.93 37.9096 118.629 40.5273C121.328 43.1451 122.942 46.683 123.151 50.4371C123.562 57.686 123.919 65.6962 123.778 69.57C123.481 77.6004 115.424 78.6581 115.424 78.6581C115.424 78.6581 115.424 80.5175 115.478 82.8754C115.501 84.1335 115.275 85.3837 114.812 86.5539C114.35 87.7242 113.661 88.7913 112.784 89.6938C111.907 90.5963 110.86 91.3163 109.704 91.8122C108.547 92.3081 107.304 92.5702 106.046 92.5833H106.053Z" fill="#F4C3AE"/>
<path d="M115.437 78.7524C111.726 78.6461 108.123 77.477 105.056 75.384C105.056 75.384 107.461 81.2855 115.491 80.7735L115.437 78.7524Z" fill="#CC937F"/>
<path d="M109.805 65.7771C109.981 65.586 110.199 65.437 110.44 65.3413C110.682 65.2455 110.942 65.2054 111.201 65.2239C111.461 65.2424 111.712 65.3191 111.938 65.4482C112.164 65.5774 112.357 65.7557 112.505 65.9699C112.652 66.1841 112.749 66.4287 112.789 66.6856C112.829 66.9425 112.81 67.2051 112.735 67.4538C112.659 67.7026 112.529 67.9311 112.353 68.1225C112.177 68.3139 111.96 68.4633 111.719 68.5595C111.27 68.7241 110.781 68.7383 110.324 68.5999C109.972 68.5162 109.656 68.3227 109.421 68.0475C109.278 67.8318 109.192 67.5837 109.17 67.326C109.147 67.0683 109.19 66.8091 109.293 66.5721C109.449 66.1733 109.71 65.8241 110.048 65.5615" fill="#CC937F"/>
<path d="M121.13 55.8267C121.127 56.1258 121.006 56.4116 120.795 56.6231C120.583 56.8346 120.297 56.955 119.998 56.9585C119.852 56.9666 119.705 56.9454 119.567 56.896C119.429 56.8465 119.302 56.77 119.194 56.6708C119.086 56.5715 118.999 56.4517 118.938 56.3183C118.877 56.1849 118.844 56.0406 118.839 55.894C118.845 55.5955 118.966 55.3106 119.177 55.0995C119.388 54.8883 119.673 54.7674 119.971 54.7622C120.118 54.7541 120.264 54.7753 120.402 54.8247C120.54 54.8742 120.667 54.9507 120.775 55.0499C120.883 55.1492 120.97 55.269 121.031 55.4024C121.092 55.5358 121.126 55.6801 121.13 55.8267Z" fill="#263238"/>
<path d="M121.379 54.3513C121.231 54.4928 120.375 53.8325 119.143 53.8056C117.91 53.7786 116.987 54.3715 116.859 54.2233C116.731 54.0751 116.946 53.8864 117.351 53.6102C117.893 53.2525 118.533 53.0714 119.183 53.0915C119.825 53.1045 120.445 53.3216 120.955 53.7113C121.325 54.0077 121.447 54.2839 121.379 54.3513Z" fill="#263238"/>
<path d="M109.576 55.8267C109.571 56.1264 109.449 56.4122 109.237 56.6235C109.024 56.8349 108.737 56.955 108.438 56.9585C108.292 56.9657 108.146 56.9438 108.009 56.8939C107.871 56.8441 107.745 56.7674 107.638 56.6682C107.531 56.5691 107.444 56.4496 107.384 56.3166C107.323 56.1837 107.29 56.04 107.286 55.894C107.289 55.5949 107.409 55.3091 107.621 55.0976C107.832 54.8861 108.118 54.7657 108.417 54.7622C108.564 54.7541 108.71 54.7753 108.849 54.8247C108.987 54.8742 109.113 54.9507 109.221 55.0499C109.329 55.1492 109.416 55.269 109.477 55.4024C109.538 55.5358 109.572 55.6801 109.576 55.8267Z" fill="#263238"/>
<path d="M109.495 54.358C109.354 54.5062 108.498 53.8392 107.265 53.8123C106.033 53.7854 105.11 54.3849 104.982 54.23C104.854 54.075 105.062 53.8931 105.467 53.6169C106.01 53.2601 106.65 53.079 107.299 53.0982C107.942 53.1157 108.563 53.3323 109.078 53.718C109.448 54.0211 109.569 54.2906 109.495 54.358Z" fill="#263238"/>
<path d="M113.463 63.628C114.12 63.4349 114.8 63.3285 115.484 63.3114C115.801 63.3114 116.104 63.2306 116.158 63.015C116.195 62.6908 116.129 62.3633 115.97 62.0785L115.067 59.633C113.854 56.1905 112.985 53.3542 113.12 53.3071C113.255 53.2599 114.359 56.0018 115.565 59.4646C115.862 60.3135 116.138 61.1286 116.401 61.9034C116.594 62.2868 116.642 62.7271 116.535 63.143C116.488 63.2523 116.415 63.3492 116.324 63.4263C116.233 63.5033 116.126 63.5585 116.01 63.5876C115.834 63.6348 115.653 63.6553 115.471 63.6482C114.803 63.7231 114.129 63.7163 113.463 63.628Z" fill="#263238"/>
<path d="M109.812 64.3893C110.014 64.3893 109.98 65.7367 111.105 66.7001C112.231 67.6634 113.659 67.5691 113.666 67.7578C113.666 67.8386 113.342 68.007 112.743 68.0138C111.956 68.0027 111.198 67.7167 110.6 67.2053C110.029 66.7153 109.671 66.0216 109.603 65.2718C109.563 64.7127 109.718 64.3826 109.812 64.3893Z" fill="#263238"/>
<path d="M109.677 49.5276C109.543 49.8577 108.33 49.6691 106.868 49.8106C105.406 49.952 104.234 50.3158 104.045 50.0127C103.964 49.8645 104.173 49.5546 104.658 49.2447C105.294 48.8526 106.015 48.6214 106.76 48.571C107.502 48.498 108.251 48.6043 108.943 48.8809C109.435 49.1099 109.677 49.3794 109.677 49.5276Z" fill="#E0E0E0"/>
<path d="M120.975 50.875C120.753 51.1512 119.911 50.875 118.887 50.8009C117.863 50.7268 116.994 50.9424 116.805 50.646C116.717 50.5045 116.859 50.2283 117.25 49.9723C117.762 49.6634 118.357 49.5177 118.954 49.5546C119.556 49.5794 120.135 49.7914 120.611 50.1609C120.962 50.4169 121.076 50.7066 120.975 50.875Z" fill="#E0E0E0"/>
<path d="M96.035 58.2856C95.9002 58.225 90.5578 56.5205 90.5983 62.0179C90.6387 67.5152 96.1495 66.3363 96.1562 66.1746C96.163 66.0129 96.035 58.2856 96.035 58.2856Z" fill="#F4C3AE"/>
<path d="M94.4652 64.0929C94.4652 64.0929 94.3709 64.1603 94.2092 64.2344C93.9804 64.328 93.724 64.328 93.4951 64.2344C92.909 64.0323 92.4105 63.1093 92.3768 62.119C92.3652 61.6561 92.4549 61.1962 92.6395 60.7716C92.6884 60.5989 92.7792 60.4409 92.9038 60.3116C93.0283 60.1823 93.1829 60.0858 93.3537 60.0305C93.463 59.9989 93.5801 60.0072 93.6838 60.0542C93.7875 60.1011 93.8711 60.1835 93.9196 60.2865C93.9937 60.4415 93.96 60.5493 93.9869 60.556C94.0139 60.5627 94.1082 60.4684 94.061 60.2394C94.0243 60.1045 93.9467 59.9845 93.8387 59.8958C93.7644 59.8372 93.6786 59.7949 93.587 59.7717C93.4953 59.7485 93.3997 59.7449 93.3065 59.761C93.0816 59.8084 92.8725 59.9125 92.6992 60.0634C92.5258 60.2143 92.394 60.4071 92.3162 60.6234C92.0862 61.0992 91.9774 61.6246 91.9995 62.1526C92.0399 63.2642 92.6126 64.295 93.4143 64.5173C93.5614 64.5589 93.7161 64.5666 93.8666 64.5397C94.0172 64.5129 94.1596 64.4523 94.2833 64.3624C94.4518 64.2276 94.4855 64.1064 94.4652 64.0929Z" fill="#CC937F"/>
<path d="M119.634 41.605C120.517 41.0997 117.613 38.1489 115.424 37.1923C112.096 35.7506 107.036 34.9152 104.005 35.8449C100.353 36.9498 97.3419 38.8226 95.5566 42.1911C93.8373 45.6178 93.0629 49.441 93.3132 53.2666C93.3604 54.4254 91.1574 55.0923 91.7974 56.0692C92.5722 57.2549 92.3903 56.6957 93.7174 58.3395C94.088 58.8044 94.6673 59.3298 95.0648 59.7745C96.1023 60.9669 98.696 61.2027 99.2552 60.1585C100.411 58.2052 101.044 55.9871 101.094 53.718C101.142 52.0337 101.175 49.4804 100.731 47.8568C100.563 47.254 100.488 46.6294 100.508 46.0042C100.51 44.9777 100.81 43.9738 101.371 43.114C101.52 42.9318 101.684 42.7628 101.862 42.6088C102.518 42.0486 103.309 41.6699 104.156 41.5103C105.004 41.3508 105.878 41.4159 106.693 41.6993C109.825 42.7368 112.352 44.448 115.936 42.9119C116.55 42.5775 117.077 42.1018 117.472 41.5241C117.773 41.2578 118.163 41.1142 118.564 41.1217C118.966 41.1292 119.35 41.2872 119.641 41.5646L119.634 41.605Z" fill="#E0E0E0"/>
<path d="M101.377 42.8311C102.264 42.3369 103.241 42.0266 104.251 41.919C105.26 41.8113 106.281 41.9085 107.252 42.2046C108.889 42.7099 110.304 43.7608 111.88 44.4345C113.651 45.1675 115.584 45.4233 117.485 45.1762C119.385 44.9291 121.188 44.1879 122.713 43.0265C123.157 42.7389 123.536 42.3612 123.825 41.9179C124.114 41.4745 124.307 40.9755 124.391 40.453C124.394 40.0113 124.298 39.5744 124.111 39.1746C123.923 38.7747 123.648 38.4219 123.306 38.1422C122.619 37.5914 121.832 37.1774 120.989 36.9228C117.122 35.6739 113.015 35.3599 109.004 36.0066C105.777 36.4647 102.482 37.4685 100.158 39.7389C99.8385 40.0256 99.5836 40.377 99.4102 40.7696C99.3226 40.9724 99.289 41.1943 99.3126 41.4139C99.3362 41.6335 99.4163 41.8432 99.5449 42.0227C99.6825 42.1938 99.8819 42.3039 100.1 42.3291C100.318 42.3543 100.537 42.2926 100.71 42.1574" fill="#E0E0E0"/>
<path d="M122.841 55.4965C122.841 55.5909 122.545 55.7054 122.168 55.8267C121.79 55.9479 121.494 56.049 121.433 55.9681C121.373 55.8873 121.642 55.638 122.053 55.4965C122.464 55.3551 122.834 55.4022 122.841 55.4965Z" fill="#CC937F"/>
<path d="M123.313 56.3656C123.313 56.4599 122.902 56.4801 122.43 56.4869C121.959 56.4936 121.561 56.4869 121.548 56.3656C121.534 56.2443 121.925 56.1298 122.43 56.1298C122.936 56.1298 123.326 56.2646 123.313 56.3656Z" fill="#CC937F"/>
<path d="M104.173 55.8604C104.173 55.9614 103.627 55.9816 102.967 55.9816C102.307 55.9816 101.768 55.9816 101.761 55.8604C101.755 55.7391 102.287 55.6246 102.967 55.6313C103.648 55.638 104.187 55.766 104.173 55.8604Z" fill="#CC937F"/>
<path d="M104.106 56.9719C104.106 57.073 103.621 57.0595 103.055 57.0595C102.489 57.0595 102.031 57.0595 102.011 56.9787C101.99 56.8978 102.455 56.7092 103.055 56.7092C103.654 56.7092 104.126 56.8844 104.106 56.9719Z" fill="#CC937F"/>
<path d="M109.179 58.7707C109.179 58.7707 109.024 59.02 108.626 59.2423C108.102 59.5221 107.507 59.6416 106.915 59.5859C106.32 59.5231 105.756 59.2891 105.291 58.9122C104.948 58.6158 104.813 58.3665 104.847 58.3395C105.472 58.789 106.19 59.0907 106.949 59.2221C107.716 59.2369 108.477 59.0828 109.179 58.7707Z" fill="#CC937F"/>
<path d="M109.738 58.5012C109.778 58.5888 109.192 58.892 108.39 58.892C108.152 58.9213 107.909 58.9025 107.678 58.8365C107.446 58.7706 107.231 58.6588 107.043 58.5079C107.043 58.4136 107.663 58.5484 108.39 58.5079C109.118 58.4675 109.677 58.4069 109.738 58.5012Z" fill="#CC937F"/>
<path d="M121.669 57.7332C121.073 58.1114 120.396 58.3429 119.693 58.4084C118.991 58.474 118.282 58.3719 117.627 58.1105C117.627 58.0094 118.543 58.1644 119.648 58.0566C120.753 57.9488 121.629 57.6119 121.669 57.7332Z" fill="#CC937F"/>
<path d="M121.069 58.1576C120.616 58.6631 120.007 59.0035 119.339 59.1255C118.67 59.2474 117.981 59.1439 117.378 58.8313C118.011 58.8611 118.646 58.8476 119.277 58.7909C119.888 58.6191 120.487 58.4076 121.069 58.1576Z" fill="#CC937F"/>
<path d="M118.509 48.3689C118.063 48.5477 117.593 48.6611 117.115 48.7057C115.976 48.8742 114.823 48.9351 113.672 48.8876C112.521 48.8426 111.378 48.6869 110.257 48.4228C109.786 48.3494 109.331 48.1991 108.909 47.9781C108.909 47.8703 111.038 48.443 113.699 48.5373C116.36 48.6316 118.489 48.2611 118.509 48.3689Z" fill="#CC937F"/>
<path d="M119.345 47.4055C116.403 47.9713 113.38 47.9713 110.439 47.4055C110.439 47.3044 112.46 47.4931 114.892 47.4931C117.324 47.4931 119.331 47.3044 119.345 47.4055Z" fill="#CC937F"/>
<path d="M113.079 51.387C112.978 51.387 112.951 51.131 112.938 50.8548C112.924 50.5786 112.938 50.3361 113.039 50.3091C113.14 50.2822 113.282 50.5179 113.288 50.8413C113.295 51.1647 113.167 51.414 113.079 51.387Z" fill="#CC937F"/>
<path d="M114.77 51.6094C114.737 51.6969 114.346 51.6094 114.184 51.1512C114.023 50.6931 114.218 50.3698 114.306 50.4169C114.393 50.4641 114.386 50.7268 114.508 51.0232C114.629 51.3197 114.818 51.5487 114.77 51.6094Z" fill="#CC937F"/>
<path d="M109.63 64.039C109.63 64.14 109.239 64.2007 108.896 64.4904C108.552 64.78 108.397 65.164 108.303 65.1102C108.209 65.0563 108.209 64.5914 108.673 64.2141C109.138 63.8369 109.677 63.9447 109.63 64.039Z" fill="#CC937F"/>
<path d="M108.188 63.9379C108.188 64.0322 107.959 64.0861 107.804 64.2748C107.649 64.4634 107.609 64.6655 107.515 64.6992C107.42 64.7329 107.407 64.652 107.387 64.5173C107.376 64.4321 107.384 64.3456 107.411 64.2641C107.438 64.1825 107.482 64.1079 107.542 64.0457C107.597 63.9791 107.665 63.9252 107.743 63.888C107.821 63.8508 107.907 63.831 107.993 63.8301C108.128 63.8301 108.195 63.8908 108.188 63.9379Z" fill="#CC937F"/>
<path d="M102.974 85.4422C102.974 85.4422 102.812 85.4422 102.597 85.2536C102.31 84.99 102.125 84.6352 102.071 84.2498C101.985 83.6938 102.008 83.1262 102.139 82.579C102.307 81.9661 102.307 81.3191 102.139 80.7061C102.024 80.4097 101.802 80.1335 101.667 79.7832C101.555 79.444 101.555 79.0781 101.667 78.739C101.743 78.4863 101.743 78.2169 101.667 77.9642C101.577 77.7408 101.462 77.5284 101.323 77.3309C101.203 77.1741 101.121 76.9913 101.084 76.7972C101.046 76.6031 101.055 76.403 101.108 76.2126C101.222 75.9297 101.411 75.896 101.411 75.9162C101.411 75.9364 101.29 76.0172 101.236 76.2463C101.217 76.4165 101.233 76.5889 101.284 76.7525C101.335 76.916 101.42 77.0672 101.532 77.1962C101.696 77.4031 101.834 77.6294 101.943 77.8699C102.037 78.1772 102.037 78.5057 101.943 78.8131C101.852 79.0886 101.852 79.3863 101.943 79.6619C102.051 79.9449 102.267 80.2143 102.415 80.5781C102.614 81.2509 102.614 81.9669 102.415 82.6396C102.277 83.1508 102.23 83.6819 102.273 84.2093C102.304 84.5559 102.435 84.8859 102.651 85.1592C102.859 85.3479 102.987 85.4152 102.974 85.4422Z" fill="#CC937F"/>
<path d="M106.464 86.1092C106.464 86.1092 106.289 86.1091 106.046 85.9677C105.728 85.715 105.493 85.3722 105.372 84.9841C104.939 83.7827 104.637 82.5382 104.47 81.272C104.435 80.9048 104.424 80.5358 104.436 80.1672C104.459 79.8419 104.459 79.5155 104.436 79.1903C104.436 78.584 103.83 78.3752 103.446 78.0248C103.257 77.8671 103.13 77.6474 103.089 77.405C103.078 77.3099 103.089 77.2135 103.122 77.1235C103.155 77.0335 103.208 76.9523 103.277 76.8863C103.526 76.664 103.735 76.7987 103.708 76.8122C103.681 76.8257 103.533 76.8122 103.378 76.9806C103.334 77.0347 103.303 77.0975 103.285 77.165C103.268 77.2324 103.265 77.3028 103.277 77.3714C103.335 77.5577 103.45 77.7206 103.607 77.8362C103.782 77.9844 104.018 78.0989 104.281 78.2808C104.419 78.3844 104.534 78.5149 104.619 78.6643C104.705 78.8137 104.759 78.9789 104.779 79.1499C104.806 79.493 104.806 79.8376 104.779 80.1806C104.773 80.5337 104.787 80.8868 104.82 81.2384C104.99 82.478 105.254 83.7031 105.608 84.9032C105.691 85.2604 105.865 85.59 106.113 85.8599C106.309 86.0418 106.47 86.0822 106.464 86.1092Z" fill="#CC937F"/>
<path d="M108.006 32.7796C108.103 32.7129 108.207 32.6586 108.316 32.6179C108.527 32.5146 108.837 32.3866 109.246 32.2339C110.406 31.8194 111.612 31.5457 112.837 31.4187C114.66 31.2201 116.503 31.3363 118.287 31.7623C119.352 31.9941 120.378 32.3799 121.332 32.9076C122.394 33.4546 123.259 34.3206 123.803 35.3839C124.348 36.4471 124.547 37.6544 124.37 38.8361C124.24 39.9305 123.857 40.9797 123.252 41.9014C122.698 42.7197 121.974 43.409 121.13 43.9225C120.403 44.3838 119.607 44.7272 118.772 44.9398C117.575 45.2555 116.33 45.3447 115.1 45.2025C114.768 45.1647 114.437 45.1084 114.11 45.0341C113.994 45.0161 113.88 44.9821 113.773 44.933C113.773 44.933 114.252 45.0071 115.121 45.0678C116.332 45.1499 117.548 45.0269 118.718 44.704C119.52 44.4797 120.284 44.1344 120.982 43.6799C121.788 43.1703 122.477 42.4951 123.003 41.6993C123.569 40.814 123.929 39.8122 124.054 38.7687C124.213 37.6543 124.023 36.5178 123.509 35.5162C122.995 34.5146 122.182 33.6972 121.184 33.1771C120.258 32.6638 119.265 32.2828 118.233 32.0453C116.483 31.6117 114.673 31.4751 112.877 31.641C111.666 31.7375 110.469 31.9633 109.307 32.3147C108.465 32.6246 108.02 32.8133 108.006 32.7796Z" fill="white"/>
<path d="M126.735 36.3367C126.872 36.7734 126.888 37.2389 126.782 37.6841C126.575 38.7706 126.082 39.7822 125.354 40.6147C124.639 41.4353 123.811 42.1498 122.895 42.7368C122.544 43.0167 122.153 43.2437 121.736 43.4105C122.039 43.0828 122.381 42.7932 122.754 42.5482C123.6 41.9089 124.383 41.1892 125.091 40.3991C125.772 39.5993 126.26 38.6545 126.52 37.6369C126.728 36.8554 126.675 36.3434 126.735 36.3367Z" fill="white"/>
<path d="M106.309 37.3068C104.789 37.7939 103.338 38.4731 101.99 39.3279C100.926 40.0959 99.9693 40.8909 99.6662 41.6724C99.5031 42.1017 99.4566 42.5666 99.5314 43.0197C99.5314 43.0197 99.4236 42.9187 99.363 42.6694C99.2815 42.3111 99.3049 41.9369 99.4304 41.5915C99.7335 40.682 100.697 39.8332 101.788 39.045C102.761 38.386 103.832 37.8857 104.961 37.5628C105.392 37.3975 105.848 37.3108 106.309 37.3068Z" fill="white"/>
<path d="M101.02 36.1953C101.02 36.2357 100.731 36.4917 100.232 36.9026C99.5702 37.4117 98.9967 38.0263 98.5344 38.7216C98.0915 39.4143 97.888 40.2331 97.955 41.0526C98.0175 41.3936 98.0985 41.7309 98.1975 42.0631C98.1975 42.0631 97.8539 41.7734 97.7125 41.093C97.5618 40.2049 97.7467 39.2924 98.2312 38.533C98.719 37.8109 99.3495 37.1965 100.084 36.7275C100.359 36.4917 100.677 36.3111 101.02 36.1953Z" fill="white"/>
<path d="M90.066 46.1053C90.1829 45.6954 90.3953 45.319 90.6858 45.0072C91.3265 44.1967 92.1652 43.5652 93.121 43.1734C94.0769 42.7816 95.1176 42.6428 96.1428 42.7705C96.5695 42.7865 96.9859 42.9067 97.3554 43.1208C97.3554 43.1747 96.8771 43.0534 96.1225 43.0198C95.1427 42.9622 94.1624 43.1254 93.2541 43.4974C92.3457 43.8694 91.5325 44.4406 90.8745 45.1688C90.3625 45.7213 90.1401 46.1592 90.066 46.1053Z" fill="white"/>
<path d="M94.0745 48.955C93.8954 48.6642 93.8085 48.326 93.8252 47.9849C93.7864 47.1597 94.0264 46.3454 94.5067 45.6732C94.987 45.0011 95.6796 44.5101 96.4729 44.2796C96.7895 44.1519 97.1379 44.126 97.4699 44.2055C97.1703 44.3251 96.8645 44.4286 96.5537 44.5154C95.8444 44.7847 95.2305 45.2578 94.7894 45.8752C94.3482 46.4925 94.0995 47.2265 94.0745 47.9849C94.0913 48.308 94.0913 48.6318 94.0745 48.955Z" fill="white"/>
<path d="M128.904 48.6316C128.514 48.7592 128.096 48.7733 127.699 48.6721C126.715 48.5195 125.809 48.0489 125.12 47.3321C124.43 46.6154 123.994 45.6922 123.879 44.704C123.795 44.3044 123.823 43.8896 123.96 43.5048C124.02 43.5048 123.96 43.9629 124.121 44.6636C124.294 45.5756 124.729 46.4175 125.373 47.0863C126.016 47.7551 126.841 48.2219 127.746 48.4295C128.446 48.5979 128.898 48.5777 128.904 48.6316Z" fill="white"/>
<path d="M128.81 51.0973C127.795 51.3539 126.728 51.3094 125.738 50.9693C124.709 50.7434 123.771 50.2156 123.043 49.4535C123.939 49.9077 124.864 50.3015 125.812 50.6325C126.801 50.8477 127.802 51.0029 128.81 51.0973Z" fill="white"/>
<path d="M119.985 79.7764C120.84 79.7764 129.928 78.5638 135.48 82.2219C141.031 85.8801 155.96 114.202 155.96 114.202C155.96 114.202 160.514 129.273 154.114 132.257C147.714 135.242 130.798 144.343 130.798 144.343L126.675 129.414L138.336 124.025V109.628L119.985 79.7764Z" fill="#455A64"/>
<path d="M138.336 110.867L144.608 111.211C146.307 111.305 147.964 111.769 149.464 112.571C150.964 113.373 152.27 114.493 153.292 115.853L157.334 121.283C157.334 121.283 159.497 124.092 158.864 125.325C158.345 126.335 157.321 126.255 156.33 125.365C155.34 124.476 152.181 119.834 152.181 119.834C152.181 119.834 158.001 127.285 156.674 128.66C155.347 130.034 153.858 128.228 153.858 128.228C153.858 128.228 154.747 131.098 152.969 130.802C151.19 130.506 149.055 127.838 149.055 127.838C149.055 127.838 149.317 129.515 147.707 129.32C146.097 129.124 141.482 122.004 141.085 122.004C140.687 122.004 138.619 121.808 138.619 121.808L138.336 110.867Z" fill="#CE947A"/>
<path d="M149.789 117.47C150.669 118.252 151.47 119.118 152.181 120.057C152.979 120.921 153.69 121.862 154.303 122.866C153.423 122.084 152.622 121.217 151.911 120.279C151.115 119.413 150.404 118.472 149.789 117.47Z" fill="#A56349"/>
<path d="M147.943 120.528C148.301 120.883 148.621 121.274 148.9 121.694C149.459 122.441 150.247 123.465 151.109 124.584C151.972 125.702 152.794 126.699 153.38 127.427C153.726 127.795 154.029 128.202 154.282 128.639C153.879 128.333 153.512 127.98 153.191 127.588C152.558 126.915 151.709 125.924 150.833 124.799C149.957 123.674 149.21 122.623 148.698 121.842C148.39 121.438 148.137 120.997 147.943 120.528Z" fill="#A56349"/>
<path d="M145.814 123.701C146.588 124.216 147.248 124.883 147.754 125.662C148.361 126.369 148.819 127.192 149.102 128.08C149.014 128.127 148.394 127.07 147.492 125.871C146.896 125.176 146.336 124.452 145.814 123.701Z" fill="#A56349"/>
<path d="M134.314 94.5438C134.254 94.5438 134.355 93.7893 134.314 92.5834C134.251 91.0199 133.942 89.4761 133.398 88.009C132.844 86.5463 132.059 85.1816 131.074 83.9668C130.312 83.0371 129.726 82.5386 129.787 82.4914C129.848 82.4443 129.955 82.579 130.218 82.7946C130.591 83.105 130.94 83.4427 131.262 83.8051C132.326 85.0044 133.162 86.388 133.728 87.8877C134.297 89.3942 134.58 90.9934 134.563 92.6036C134.559 93.0865 134.518 93.5684 134.442 94.0453C134.427 94.2174 134.384 94.3859 134.314 94.5438Z" fill="#263238"/>
<path d="M94.8964 89.6259C94.8964 89.6259 103.109 94.3417 109.34 92.9943C113.313 92.0031 116.974 90.0294 119.985 87.2545L131.006 112.484L124.478 163.011L104.786 165.578L98.2581 117.645L94.8964 89.6259Z" fill="#FAFAFA"/>
<path d="M94.2833 80.7196L90.0054 82.2219L82.0962 133.813C82.0962 133.813 75.9926 155.297 76.5248 164.581C77.057 173.864 82.0558 202.618 82.0558 202.618L118.139 198.818L116.643 142.363C116.643 142.363 119.244 126.113 111.537 116.277C103.83 106.441 94.2833 80.7196 94.2833 80.7196Z" fill="#455A64"/>
<path d="M114.979 79.5811C115.478 80.2952 123.367 110.275 122.518 116.587C121.669 122.9 117.074 136.124 117.074 136.124V198.629L148.913 195.719C148.913 195.719 151.52 172.901 148.913 161.974C146.306 151.046 142.506 138.105 142.506 138.105L139.993 99.9535L123.973 79.5811H114.979Z" fill="#455A64"/>
<path d="M150.463 181.76C150.398 181.737 150.337 181.705 150.281 181.666L149.769 181.356C149.311 181.08 148.65 180.682 147.748 180.211C146.677 179.639 145.518 179.249 144.319 179.059C143.574 178.958 142.817 178.988 142.082 179.146C141.265 179.357 140.484 179.688 139.764 180.13C139.003 180.588 138.249 181.147 137.46 181.733L134.995 183.552C133.29 184.798 131.485 186.153 129.544 187.547C128.562 188.307 127.403 188.806 126.176 188.996C124.872 189.031 123.581 188.742 122.417 188.153C120.052 187.082 117.607 186.018 115.053 185.014C113.773 184.516 112.513 184.017 111.254 183.606C110.03 183.171 108.739 182.954 107.441 182.966C106.193 183.037 104.987 183.437 103.944 184.125C102.936 184.788 102.004 185.558 101.162 186.422C99.4708 188.066 97.928 189.791 96.0147 190.821C95.7838 190.953 95.5428 191.065 95.2939 191.158C95.0576 191.273 94.809 191.362 94.5528 191.421C94.0667 191.582 93.5617 191.679 93.0505 191.711C92.1015 191.766 91.1492 191.708 90.2142 191.535C87.4109 191.003 84.6918 190.097 82.1299 188.841C81.2137 188.423 80.5131 188.073 80.0415 187.837L79.5025 187.567C79.3813 187.5 79.3206 187.466 79.3274 187.46L79.5227 187.534L80.0684 187.776L82.1838 188.719C84.7586 189.918 87.4751 190.785 90.2681 191.3C91.1861 191.462 92.1205 191.512 93.0505 191.448C93.5416 191.414 94.0261 191.316 94.4922 191.158C94.7252 191.097 94.951 191.011 95.1659 190.902C95.3971 190.806 95.6221 190.696 95.8396 190.572C97.6855 189.575 99.2081 187.877 100.899 186.2C101.754 185.314 102.703 184.523 103.729 183.842C104.819 183.125 106.078 182.707 107.38 182.629C108.723 182.621 110.057 182.849 111.321 183.303C112.601 183.727 113.861 184.226 115.141 184.718C117.694 185.721 120.16 186.799 122.511 187.871C123.621 188.439 124.855 188.722 126.102 188.692C127.281 188.527 128.399 188.063 129.349 187.345L134.813 183.384L137.285 181.585C138.039 181.013 138.822 180.48 139.63 179.988C140.37 179.535 141.177 179.2 142.021 178.998C142.781 178.839 143.564 178.816 144.332 178.931C145.551 179.135 146.725 179.55 147.802 180.157C148.482 180.524 149.144 180.926 149.782 181.363L150.281 181.7C150.409 181.713 150.469 181.753 150.463 181.76Z" fill="#FAFAFA"/>
<path d="M107.569 133.8C107.744 133.739 113.234 130.735 114.622 130.559C116.01 130.384 126.803 129.886 126.803 129.886L129.686 140.335C129.686 140.335 120.692 144.694 119.304 145.051C117.916 145.408 112.022 147.536 111.038 147.536C110.054 147.536 107.279 146.607 107.279 145.974C107.266 145.806 107.296 145.638 107.367 145.486C107.438 145.334 107.547 145.202 107.683 145.104C108.941 145.15 110.2 145.073 111.442 144.875C112.093 144.644 112.73 144.374 113.349 144.067C113.349 144.067 103.466 145.569 102.772 145.334C102.078 145.098 101.559 143.656 101.559 143.656C101.559 143.656 100.4 142.848 100.286 142.1C100.171 141.352 100.576 141.002 101.209 140.712C101.842 140.422 106.12 138.516 107.393 138.165C108.667 137.815 112.022 137.242 112.022 137.242C112.022 137.242 101.842 138.341 101.243 138.051C100.643 137.761 99.8952 136.663 100.953 136.03C102.217 135.219 103.602 134.614 105.056 134.238C106.181 134.029 107.569 133.8 107.569 133.8Z" fill="#F4C3AE"/>
<path d="M114.804 140.018C114.197 140.343 113.558 140.605 112.897 140.8C111.698 141.224 110.021 141.749 108.134 142.228C106.248 142.706 104.523 143.03 103.27 143.225C102.594 143.362 101.906 143.436 101.216 143.447C101.876 143.24 102.552 143.084 103.237 142.982C104.476 142.726 106.188 142.356 108.067 141.884C109.947 141.413 111.617 140.928 112.837 140.537C113.479 140.316 114.137 140.143 114.804 140.018Z" fill="#CC937F"/>
<path d="M113.854 132.237C112.865 132.638 111.835 132.93 110.782 133.106C109.756 133.396 108.701 133.572 107.636 133.631C108.625 133.23 109.655 132.939 110.708 132.762C111.735 132.474 112.789 132.298 113.854 132.237Z" fill="#CC937F"/>
<path d="M127.018 134.036C126.883 134.065 126.745 134.084 126.607 134.09C126.245 134.175 125.898 134.314 125.576 134.501C125.075 134.82 124.499 135.003 123.906 135.033C123.232 134.992 122.558 134.615 122.019 135.073C121.75 135.328 121.454 135.554 121.137 135.747C120.796 135.888 120.42 135.924 120.059 135.848C119.385 135.713 118.887 135.457 118.422 135.43C118.067 135.39 117.711 135.491 117.431 135.713C117.243 135.882 117.202 136.037 117.175 136.023C117.148 136.01 117.175 135.848 117.33 135.619C117.471 135.47 117.644 135.353 117.834 135.278C118.025 135.202 118.23 135.169 118.435 135.181C118.999 135.261 119.557 135.375 120.106 135.525C120.403 135.582 120.71 135.549 120.989 135.43C121.282 135.242 121.559 135.03 121.817 134.797C121.979 134.668 122.168 134.578 122.37 134.534C122.564 134.5 122.762 134.5 122.956 134.534C123.32 134.588 123.629 134.696 123.926 134.716C124.467 134.697 124.996 134.549 125.469 134.285C125.819 134.105 126.201 133.995 126.594 133.962C126.877 133.948 127.025 134.015 127.018 134.036Z" fill="#CC937F"/>
<path d="M127.126 136.178C126.839 136.556 126.433 136.827 125.974 136.946C125.488 137.116 124.968 137.17 124.458 137.101C124.188 137.043 123.912 137.02 123.636 137.034C123.505 137.056 123.381 137.109 123.274 137.187C123.166 137.266 123.078 137.367 123.016 137.485C122.829 137.785 122.54 138.008 122.201 138.112C121.893 138.178 121.573 138.178 121.265 138.112C120.797 137.993 120.319 137.92 119.837 137.896C119.528 137.906 119.233 138.028 119.008 138.24C118.86 138.401 118.826 138.529 118.792 138.522C118.759 138.516 118.759 138.374 118.9 138.159C119.009 138.014 119.146 137.894 119.304 137.806C119.462 137.718 119.636 137.664 119.816 137.647C120.319 137.633 120.822 137.682 121.312 137.795C121.577 137.857 121.855 137.838 122.108 137.739C122.362 137.641 122.58 137.467 122.733 137.242C122.833 137.1 122.951 136.971 123.084 136.858C123.233 136.747 123.41 136.677 123.596 136.656C123.901 136.645 124.207 136.674 124.505 136.744C124.972 136.823 125.45 136.8 125.907 136.677C126.325 136.54 126.732 136.374 127.126 136.178Z" fill="#CC937F"/>
<path d="M96.9242 140.665C96.6797 140.708 96.4306 140.719 96.1832 140.699C95.8907 140.7 95.5984 140.686 95.3074 140.658C94.9705 140.624 94.5798 140.604 94.1554 140.53C93.1595 140.374 92.1758 140.149 91.2113 139.856C90.0314 139.492 88.875 139.055 87.7485 138.549C85.7192 137.613 83.7701 136.511 81.9211 135.255C81.207 134.777 80.6478 134.379 80.2638 134.09C80.0537 133.955 79.8613 133.794 79.6912 133.611C79.9312 133.701 80.1579 133.824 80.3649 133.975L82.0558 135.087C83.9318 136.274 85.8829 137.339 87.8967 138.273C89.0079 138.783 90.1459 139.233 91.3056 139.621C92.2528 139.92 93.2181 140.159 94.1958 140.335C95.8665 140.584 96.931 140.597 96.9242 140.665Z" fill="#263238"/>
<path d="M103.877 149.611C103.496 149.567 103.12 149.49 102.752 149.382C102.311 149.29 101.877 149.171 101.451 149.025C100.946 148.87 100.367 148.709 99.7537 148.466C98.2957 147.931 96.8716 147.308 95.4893 146.6C93.8055 145.718 92.1726 144.742 90.5982 143.676C87.7557 141.712 85.081 139.514 82.6015 137.108C81.6516 136.192 80.9038 135.424 80.4053 134.878C80.1336 134.608 79.8835 134.318 79.6575 134.009C79.9604 134.242 80.2443 134.499 80.5063 134.777C81.0318 135.296 81.8066 136.037 82.7767 136.926C85.2895 139.268 87.9688 141.425 90.7936 143.38C92.3571 144.437 93.9739 145.413 95.6375 146.304C97.0011 147.023 98.4047 147.664 99.8413 148.224C100.448 148.48 101.014 148.662 101.505 148.837C101.997 149.012 102.428 149.147 102.785 149.248C103.157 149.342 103.522 149.464 103.877 149.611Z" fill="#263238"/>
<path d="M141.476 122.462C140.802 122.866 140.099 123.219 139.374 123.519C138.026 124.132 136.214 124.954 134.173 125.823C132.131 126.692 130.272 127.454 128.911 127.966C128.237 128.222 127.672 128.424 127.288 128.552C127.093 128.638 126.886 128.692 126.674 128.714C127.366 128.34 128.081 128.014 128.817 127.737L134.038 125.5L139.273 123.29C139.985 122.959 140.721 122.682 141.476 122.462Z" fill="#263238"/>
<path d="M127.948 94.1935C127.948 94.1935 128.042 94.2676 128.19 94.4293L128.824 95.1501C129.376 95.7632 130.171 96.639 131.249 97.6832C132.327 98.7274 133.573 99.9468 134.941 101.362C136.448 102.883 137.777 104.572 138.902 106.394C140.002 108.256 140.723 110.316 141.024 112.457C141.28 114.418 141.361 116.183 141.428 117.665C141.496 119.147 141.509 120.36 141.516 121.182C141.516 121.566 141.516 121.855 141.516 122.138C141.524 122.252 141.512 122.366 141.482 122.475C141.456 122.365 141.442 122.252 141.442 122.138C141.442 121.882 141.422 121.566 141.381 121.188C141.334 120.306 141.267 119.12 141.186 117.678C141.105 116.237 140.984 114.438 140.708 112.504C140.396 110.415 139.682 108.407 138.606 106.589C137.497 104.788 136.191 103.116 134.712 101.604C133.364 100.176 132.098 98.9497 131.074 97.8718C130.05 96.7939 129.248 95.8912 128.723 95.2512L128.143 94.4899C128.065 94.4001 128 94.3005 127.948 94.1935Z" fill="#263238"/>
<path d="M153.467 132.54C153.146 132.76 152.811 132.958 152.464 133.133L149.661 134.655C147.29 135.922 144.002 137.653 140.364 139.54C136.625 141.487 133.243 143.218 130.845 144.424L130.71 144.498L130.67 144.35C130.36 143.144 130.104 142.147 129.915 141.392C129.808 141.038 129.729 140.675 129.679 140.308C129.83 140.647 129.952 140.999 130.043 141.359C130.259 142.107 130.555 143.09 130.905 144.289L130.73 144.208C133.102 142.942 136.463 141.17 140.202 139.23C143.941 137.29 147.148 135.646 149.546 134.433L152.396 133.012C152.739 132.824 153.097 132.666 153.467 132.54Z" fill="#263238"/>
<path d="M117.97 145.495C117.987 145.677 117.987 145.859 117.97 146.041C117.97 146.425 117.903 146.944 117.849 147.59C117.721 148.938 117.627 150.885 117.506 153.297C117.29 158.113 117.229 164.749 117.344 172.16C117.458 179.571 117.687 186.193 117.883 191.023C117.977 193.408 118.058 195.355 118.112 196.736C118.112 197.41 118.152 197.909 118.166 198.293C118.184 198.474 118.184 198.657 118.166 198.838C118.128 198.661 118.106 198.48 118.098 198.299C118.098 197.909 118.024 197.397 117.977 196.75C117.883 195.402 117.762 193.449 117.634 191.037C117.378 186.213 117.101 179.544 116.994 172.173C116.886 164.803 116.994 158.127 117.256 153.31C117.411 150.898 117.539 148.945 117.714 147.604C117.788 146.93 117.849 146.445 117.896 146.061C117.904 145.871 117.929 145.681 117.97 145.495Z" fill="#263238"/>
<path d="M90.0054 82.222C90.0054 82.222 78.1012 87.3016 74.4296 95.3522C70.758 103.403 63.2261 128.963 63.0509 133.685C62.8758 138.408 71.6271 153.115 71.6271 153.115L85.458 144.357L82.8306 137.882L87.0277 110.052L90.0054 82.222Z" fill="#455A64"/>
<path d="M84.3262 298.296C84.1053 298.296 83.8866 298.252 83.6827 298.167C83.4787 298.083 83.2935 297.958 83.1376 297.802C82.9818 297.645 82.8583 297.46 82.7744 297.255C82.6905 297.051 82.6478 296.832 82.6487 296.611C82.6487 295.264 82.8575 160.734 82.7969 158.558C82.6689 153.923 79.8461 151.821 79.7248 151.707C79.3768 151.442 79.1455 151.052 79.08 150.619C79.0144 150.187 79.1197 149.746 79.3735 149.389C79.6274 149.033 80.0099 148.79 80.4401 148.71C80.8703 148.631 81.3144 148.722 81.6786 148.965C81.8537 149.093 85.9902 152.084 86.1654 158.464C86.226 160.687 86.0239 291.067 86.0171 296.611C86.0154 297.059 85.8364 297.487 85.5195 297.803C85.2026 298.118 84.7735 298.296 84.3262 298.296Z" fill="#263238"/>
<path d="M74.7665 168.562C74.3203 168.559 73.8937 168.379 73.5795 168.062C73.2653 167.746 73.089 167.318 73.089 166.871C73.089 161.873 73.089 154.28 73.089 153.836C73.0734 153.616 73.1014 153.396 73.1714 153.188C73.2413 152.98 73.3518 152.787 73.4965 152.622C73.6412 152.457 73.8172 152.322 74.0143 152.225C74.2115 152.128 74.4259 152.071 74.6452 152.057C75.0944 152.033 75.5351 152.186 75.8727 152.483C76.2103 152.78 76.4178 153.198 76.4507 153.647C76.4507 153.721 76.4507 153.957 76.4507 166.878C76.4507 167.325 76.2732 167.753 75.9574 168.069C75.6415 168.385 75.2131 168.562 74.7665 168.562Z" fill="#263238"/>
<path d="M77.34 144.633L74.0793 147.489C73.2641 148.203 72.2401 154.523 72.2401 154.523C72.2401 154.523 75.8107 158.343 77.34 158.498C78.3314 158.552 79.3086 158.243 80.0886 157.628C80.0886 157.628 81.6179 158.498 82.5409 157.736C83.4638 156.975 81.2609 152.023 81.2609 152.023C81.2609 152.023 80.4389 149.632 82.7632 149.78L83.7603 151.572L86.2597 155.85C86.2597 155.85 87.7889 155.641 88.0449 154.88C88.3009 154.119 87.3712 151.572 87.3712 151.572C87.6579 151.132 87.847 150.635 87.926 150.116C88.005 149.596 87.9721 149.066 87.8294 148.561C87.2702 147.078 86.354 144.377 83.6525 143.771C80.9509 143.164 77.34 144.633 77.34 144.633Z" fill="#F4C3AE"/>
<path d="M79.9674 157.015C79.9202 157.049 79.5093 156.51 78.7547 155.722C77.7679 154.706 76.6721 153.803 75.4873 153.027C75.1321 152.782 74.8298 152.468 74.598 152.104C74.3968 151.736 74.3234 151.312 74.3892 150.898C74.5145 150.237 74.8172 149.622 75.265 149.12C75.622 148.688 75.9387 148.365 76.1004 148.123C76.2621 147.88 76.3833 147.745 76.4035 147.759C76.1898 148.317 75.872 148.829 75.4671 149.268C75.076 149.751 74.8162 150.326 74.7126 150.939C74.6618 151.28 74.7257 151.628 74.8944 151.929C75.1044 152.252 75.3771 152.529 75.6961 152.744C76.8985 153.54 77.9884 154.494 78.9366 155.58C79.352 156.003 79.6997 156.487 79.9674 157.015Z" fill="#CC937F"/>
<path d="M84.4879 148.992C84.562 149.059 84.1578 149.564 83.9893 150.299C83.8209 151.033 83.922 151.646 83.8276 151.693C83.7333 151.74 83.4369 151.06 83.6457 150.218C83.8546 149.376 84.4272 148.918 84.4879 148.992Z" fill="#CC937F"/>
<path d="M66.2712 131.247C66.5896 131.221 66.9095 131.221 67.2278 131.247C67.5377 131.247 67.9015 131.247 68.3529 131.247L69.835 131.435C70.3875 131.509 70.9668 131.685 71.6068 131.826C71.9235 131.907 72.2334 132.035 72.5635 132.149C72.9063 132.255 73.2416 132.383 73.5673 132.533C75.03 133.181 76.3914 134.036 77.6094 135.073C78.816 136.108 79.9254 137.252 80.924 138.489C81.8537 139.614 82.6352 140.665 83.3022 141.534C83.9691 142.403 84.5148 143.117 84.8988 143.555C85.1137 143.794 85.3076 144.051 85.4782 144.323C85.2312 144.122 85.0055 143.896 84.8045 143.649C84.3868 143.191 83.8074 142.511 83.1203 141.628C82.4331 140.746 81.6179 139.742 80.6815 138.637C79.6826 137.423 78.5828 136.297 77.3939 135.269C76.2064 134.251 74.882 133.405 73.4595 132.756C73.1441 132.606 72.8202 132.476 72.4894 132.365C72.166 132.25 71.8628 132.116 71.5529 132.028C70.9264 131.88 70.3605 131.698 69.8215 131.604L68.3596 131.368C67.9285 131.321 67.5579 131.307 67.248 131.28C66.9222 131.304 66.5946 131.293 66.2712 131.247Z" fill="#263238"/>
<path d="M84.4879 107.391C84.4637 107.789 84.4119 108.186 84.3329 108.577C84.2116 109.331 84.023 110.423 83.7805 111.77C83.255 114.519 82.5544 118.211 81.7594 122.286C80.9644 126.362 80.3649 130.122 79.9741 132.837C79.7855 134.143 79.6305 135.228 79.516 136.043C79.4796 136.441 79.4143 136.835 79.3206 137.222C79.3091 136.824 79.3294 136.425 79.3813 136.03C79.4419 135.262 79.5632 134.164 79.7248 132.803C80.055 130.108 80.6411 126.335 81.4158 122.219C82.1906 118.103 82.972 114.411 83.5245 111.723L84.1982 108.55C84.2628 108.156 84.3597 107.769 84.4879 107.391Z" fill="#263238"/>
<path d="M87.7687 299.522H81.4495L82.6217 294.496H86.3607L87.7687 299.522Z" fill="#455A64"/>
</svg>
