<svg width="258" height="266" viewBox="0 0 258 266" fill="none" xmlns="http://www.w3.org/2000/svg">
<path d="M204.281 47.4488C204.526 47.0698 204.867 46.7622 205.268 46.5568C205.67 46.3514 206.119 46.2556 206.57 46.279L219.482 48.2392C219.918 48.3482 220.317 48.5714 220.638 48.8859C220.959 49.2004 221.191 49.5949 221.309 50.0286L232.539 78.7103C232.933 79.9028 233.039 81.1715 232.85 82.413C232.661 83.6546 232.182 84.834 231.451 85.8554L200.019 125.204C199.298 126.108 198.476 126.469 197.73 126.374L184.831 124.42C184.085 124.306 183.415 123.699 182.991 122.624L171.761 93.949C171.369 92.7562 171.263 91.4879 171.452 90.2466C171.641 89.0053 172.119 87.8259 172.849 86.8039L204.281 47.4488Z" fill="#FAFAFA"/>
<path d="M206.285 46.8922H206.45L207.714 47.0819C210.73 47.5372 218.754 48.7512 219.368 48.8524C219.981 48.9536 220.386 49.4341 220.708 50.2498L231.938 78.9251C232.29 80.0164 232.383 81.1744 232.211 82.3079C232.038 83.4413 231.605 84.5193 230.945 85.4569L199.526 124.825C199.354 125.085 199.128 125.305 198.863 125.469C198.597 125.633 198.299 125.737 197.989 125.773H197.825L186.684 124.066L184.907 123.794C184.357 123.712 183.882 123.212 183.56 122.397L172.33 93.7212C171.982 92.6305 171.891 91.4741 172.063 90.3423C172.235 89.2104 172.666 88.1336 173.323 87.1957L204.761 47.8407C204.932 47.5808 205.157 47.3613 205.422 47.1975C205.686 47.0337 205.983 46.9295 206.292 46.8922M206.292 46.2599C205.886 46.2935 205.493 46.4177 205.141 46.6234C204.79 46.8292 204.49 47.1112 204.262 47.4487L172.83 86.8037C172.1 87.8257 171.622 89.0051 171.433 90.2464C171.244 91.4877 171.35 92.7561 171.742 93.9488L182.972 122.624C183.396 123.699 184.066 124.306 184.812 124.42L197.711 126.374C197.797 126.38 197.884 126.38 197.97 126.374C198.377 126.342 198.771 126.219 199.122 126.013C199.474 125.807 199.774 125.524 200 125.185L231.432 85.8363C232.163 84.8149 232.642 83.6355 232.831 82.3939C233.02 81.1523 232.914 79.8837 232.52 78.6912L221.29 50.0095C221.172 49.5758 220.94 49.1813 220.619 48.8668C220.298 48.5523 219.899 48.329 219.463 48.2201L206.551 46.2599C206.465 46.2534 206.378 46.2534 206.292 46.2599Z" fill="#F0F0F0"/>
<path d="M218.558 83.9014L187.126 123.25C186.888 123.615 186.563 123.914 186.179 124.122C185.796 124.33 185.368 124.438 184.932 124.439C186.279 124.641 197.003 126.26 197.724 126.38C198.176 126.402 198.626 126.305 199.028 126.099C199.431 125.892 199.773 125.584 200.019 125.204L231.451 85.8552C232.183 84.8706 232.657 83.7186 232.83 82.504C228.207 81.8021 223.769 81.1192 219.937 80.5501C219.764 81.7647 219.29 82.9168 218.558 83.9014Z" fill="#E0E0E0"/>
<path d="M219.64 76.7691L208.41 48.0748C207.986 46.9999 207.316 46.3928 206.57 46.279C206.119 46.2556 205.67 46.3514 205.268 46.5568C204.867 46.7622 204.526 47.0698 204.281 47.4488L172.849 86.8039C172.119 87.8259 171.641 89.0053 171.452 90.2466C171.263 91.4879 171.369 92.7562 171.761 93.949L182.991 122.624C183.415 123.699 184.085 124.306 184.831 124.42C185.577 124.534 186.399 124.154 187.12 123.25L218.552 83.8952C219.279 82.8756 219.756 81.6995 219.945 80.4617C220.134 79.2239 220.029 77.9591 219.64 76.7691Z" fill="#F0F0F0"/>
<path opacity="0.1" d="M196.554 111.445L196.959 103.718C201.094 95.7003 197.136 87.2779 193.999 85.4885C203.117 75.8141 200.588 62.093 197.945 55.3842L172.849 86.8037C172.119 87.8257 171.641 89.0051 171.452 90.2464C171.263 91.4877 171.369 92.7561 171.761 93.9488L182.991 122.624C183.415 123.699 184.085 124.306 184.831 124.42L197.73 126.374C198.476 126.488 199.298 126.108 200.019 125.204L209.156 113.765L196.554 111.445Z" fill="black"/>
<path d="M42.7443 82.8644C41.543 82.4092 40.5376 82.5103 39.8863 83.0415C39.235 83.5726 29.2382 91.7105 28.6059 92.2543C27.9736 92.7981 27.6637 93.7465 27.8661 95.0111L33.3608 128.941C33.6594 130.31 34.2765 131.589 35.162 132.674C36.0475 133.76 37.1765 134.621 38.4573 135.188L90.996 155.176C92.1974 155.631 93.2028 155.53 93.8541 154.999L105.116 145.773C105.748 145.236 106.07 144.275 105.862 143.004L100.367 109.074C100.068 107.705 99.4513 106.426 98.5658 105.341C97.6803 104.255 96.5513 103.394 95.2704 102.827L42.7443 82.8644Z" fill="#FAFAFA"/>
<path d="M41.3152 83.2059C41.7293 83.2151 42.1384 83.2986 42.5229 83.4525L95.0743 103.415C96.2478 103.948 97.2823 104.746 98.0972 105.745C98.912 106.744 99.4853 107.918 99.7724 109.175L105.267 143.105C105.425 144.104 105.267 144.875 104.742 145.28L93.4556 154.486C93.1606 154.711 92.7957 154.826 92.4249 154.809C92.0052 154.796 91.5914 154.706 91.2046 154.543L38.6532 134.581C37.4788 134.048 36.4437 133.251 35.6286 132.252C34.8136 131.253 34.2408 130.078 33.9551 128.821L28.4793 94.9099C28.3149 93.9172 28.4793 93.1458 28.9978 92.7411C29.5163 92.3364 36.5413 86.5824 39.178 84.4325L40.2846 83.5283C40.5801 83.3042 40.9446 83.1901 41.3152 83.2059ZM41.3152 82.5735C40.7989 82.5585 40.2936 82.724 39.8862 83.0415C39.2539 83.5726 29.2444 91.7105 28.5931 92.2542C27.9418 92.798 27.651 93.7465 27.8533 95.0111L33.3481 128.941C33.6466 130.31 34.2637 131.589 35.1492 132.674C36.0347 133.759 37.1637 134.621 38.4445 135.188L90.9959 155.176C91.4509 155.358 91.935 155.456 92.4249 155.466C92.9414 155.483 93.4471 155.317 93.854 154.998L105.115 145.773C105.748 145.236 106.07 144.274 105.862 143.004L100.367 109.074C100.068 107.705 99.4512 106.426 98.5657 105.341C97.6801 104.255 96.5511 103.394 95.2703 102.826L42.719 82.8644C42.2643 82.6813 41.78 82.5827 41.2899 82.5735H41.3152Z" fill="#F0F0F0"/>
<path d="M49.7313 125.988L102.27 145.95C103.421 146.386 104.388 146.323 105.052 145.843C103.876 146.81 94.4926 154.455 93.8603 154.98C93.228 155.504 92.1973 155.612 90.9896 155.15L38.4508 135.188C37.1878 134.659 36.0771 133.822 35.2197 132.754C39.2665 129.453 43.1426 126.279 46.5065 123.554C47.3583 124.625 48.4678 125.462 49.7313 125.988Z" fill="#E0E0E0"/>
<path d="M44.6348 119.766L39.1401 85.8363C38.9314 84.5716 39.2349 83.6042 39.8862 83.0731C40.5375 82.5419 41.5428 82.4408 42.7442 82.896L95.2956 102.858C96.5764 103.425 97.7054 104.287 98.5909 105.372C99.4764 106.458 100.094 107.737 100.392 109.105L105.887 143.035C106.095 144.3 105.792 145.267 105.141 145.805C104.489 146.342 103.484 146.437 102.283 145.982L49.7313 126.02C48.4503 125.451 47.3213 124.588 46.4359 123.502C45.5504 122.415 44.9334 121.136 44.6348 119.766Z" fill="#F0F0F0"/>
<path opacity="0.1" d="M100.392 109.074C100.093 107.705 99.4764 106.426 98.5909 105.341C97.7054 104.255 96.5764 103.394 95.2956 102.826L61.859 90.1233L62.447 101.935L65.1849 103.516C62.1906 107.048 60.0102 111.196 58.7984 115.665C57.5865 120.135 57.3729 124.816 58.1726 129.377L47.2715 138.539L90.9959 155.176C92.1973 155.631 93.2026 155.53 93.8539 154.998L105.115 145.773C105.748 145.236 106.07 144.274 105.862 143.004L100.392 109.074Z" fill="black"/>
<path d="M142.921 124.015C133.678 124.015 124.643 121.274 116.957 116.139C109.272 111.004 103.282 103.705 99.7446 95.1655C96.2074 86.6259 95.2819 77.2292 97.0851 68.1637C98.8884 59.0982 103.339 50.771 109.875 44.2351C116.411 37.6992 124.738 33.2482 133.804 31.4449C142.869 29.6417 152.266 30.5672 160.806 34.1044C169.345 37.6416 176.644 43.6316 181.779 51.317C186.915 59.0024 189.655 68.0379 189.655 77.2811C189.64 89.6711 184.712 101.549 175.951 110.31C167.19 119.072 155.311 124 142.921 124.015ZM142.921 31.2741C133.822 31.2754 124.928 33.9747 117.363 39.0308C109.798 44.0868 103.902 51.2726 100.421 59.6794C96.9397 68.0861 96.0295 77.3364 97.8054 86.2605C99.5813 95.1845 103.964 103.382 110.398 109.815C116.832 116.249 125.03 120.63 133.954 122.405C142.879 124.179 152.129 123.268 160.535 119.785C168.941 116.303 176.126 110.406 181.181 102.841C186.236 95.2749 188.935 86.3801 188.935 77.2811C188.921 65.0823 184.069 53.3871 175.442 44.7618C166.816 36.1365 155.12 31.2858 142.921 31.2741Z" fill="#37474F"/>
<path d="M125.273 126.943C115.985 126.943 106.906 124.189 99.1829 119.028C91.4601 113.868 85.4409 106.534 81.8865 97.9525C78.3321 89.3714 77.4021 79.929 79.2141 70.8193C81.0261 61.7096 85.4988 53.3418 92.0665 46.7741C98.6342 40.2064 107.002 35.7337 116.112 33.9217C125.221 32.1096 134.664 33.0396 143.245 36.5941C151.826 40.1485 159.161 46.1677 164.321 53.8905C169.481 61.6133 172.235 70.6929 172.235 79.9811C172.222 92.432 167.27 104.369 158.466 113.173C149.662 121.977 137.724 126.929 125.273 126.943ZM125.273 33.7465C116.129 33.7465 107.19 36.4581 99.5869 41.5384C91.9837 46.6187 86.0577 53.8396 82.5583 62.2878C79.0589 70.7361 78.1433 80.0323 79.9273 89.001C81.7112 97.9696 86.1147 106.208 92.5807 112.674C99.0467 119.14 107.285 123.543 116.254 125.327C125.222 127.111 134.518 126.196 142.967 122.696C151.415 119.197 158.636 113.271 163.716 105.668C168.796 98.0644 171.508 89.1254 171.508 79.9811C171.49 67.7269 166.612 55.9802 157.944 47.3175C149.277 38.6549 137.528 33.7835 125.273 33.7718V33.7465Z" fill="#37474F"/>
<path d="M105.343 128.1C96.0549 128.1 86.9753 125.346 79.2525 120.185C71.5297 115.025 65.5105 107.691 61.9561 99.1097C58.4016 90.5286 57.4716 81.0861 59.2837 71.9764C61.0957 62.8667 65.5684 54.4989 72.1361 47.9312C78.7038 41.3635 87.0716 36.8908 96.1813 35.0788C105.291 33.2668 114.733 34.1968 123.315 37.7512C131.896 41.3056 139.23 47.3248 144.39 55.0476C149.551 62.7705 152.305 71.85 152.305 81.1382C152.291 93.5891 147.339 105.526 138.535 114.33C129.731 123.135 117.794 128.087 105.343 128.1ZM105.343 34.9036C96.1987 34.9036 87.2597 37.6152 79.6565 42.6955C72.0533 47.7759 66.1272 54.9967 62.6279 63.445C59.1285 71.8933 58.2129 81.1895 59.9968 90.1581C61.7808 99.1268 66.1842 107.365 72.6503 113.831C79.1163 120.297 87.3545 124.7 96.3231 126.484C105.292 128.268 114.588 127.353 123.036 123.853C131.485 120.354 138.705 114.428 143.786 106.825C148.866 99.2215 151.578 90.2826 151.578 81.1382C151.564 68.8801 146.689 57.128 138.021 48.4602C129.353 39.7924 117.601 34.917 105.343 34.9036Z" fill="#37474F"/>
<path d="M138.963 109.333C129.675 109.333 120.595 106.579 112.872 101.418C105.15 96.2582 99.1304 88.9238 95.576 80.3427C92.0216 71.7615 91.0916 62.3191 92.9036 53.2094C94.7156 44.0997 99.1883 35.7319 105.756 29.1642C112.324 22.5965 120.692 18.1238 129.801 16.3118C138.911 14.4998 148.353 15.4298 156.934 18.9842C165.516 22.5386 172.85 28.5578 178.01 36.2806C183.17 44.0035 185.925 53.083 185.925 62.3712C185.913 74.8226 180.962 86.7607 172.157 95.5652C163.353 104.37 151.414 109.321 138.963 109.333ZM138.963 16.1429C129.818 16.1429 120.879 18.8547 113.276 23.9353C105.672 29.0159 99.7464 36.2371 96.2472 44.6858C92.748 53.1344 91.8328 62.431 93.6173 71.3998C95.4017 80.3686 99.8058 88.6068 106.272 95.0726C112.739 101.538 120.978 105.941 129.947 107.725C138.916 109.508 148.212 108.591 156.661 105.091C165.109 101.591 172.329 95.6636 177.409 88.0595C182.488 80.4554 185.199 71.5158 185.198 62.3712C185.183 50.1142 180.306 38.3637 171.639 29.6973C162.971 21.0309 151.22 16.1563 138.963 16.1429Z" fill="#37474F"/>
<path d="M131.464 112.343C122.175 112.343 113.096 109.588 105.373 104.428C97.6497 99.2673 91.6305 91.9325 88.0762 83.351C84.522 74.7695 83.5924 65.3268 85.4049 56.2169C87.2175 47.107 91.6908 38.7393 98.2591 32.1718C104.827 25.6043 113.196 21.1321 122.306 19.3208C131.416 17.5095 140.859 18.4404 149.44 21.9958C158.021 25.5512 165.355 31.5714 170.514 39.295C175.674 47.0187 178.427 56.0989 178.426 65.3873C178.411 77.8372 173.458 89.7727 164.654 98.5754C155.85 107.378 143.914 112.329 131.464 112.343ZM131.464 19.1527C122.32 19.1527 113.381 21.8643 105.777 26.9447C98.174 32.025 92.248 39.2458 88.7487 47.6941C85.2493 56.1424 84.3337 65.4386 86.1176 74.4072C87.9016 83.3759 92.305 91.6141 98.7711 98.0801C105.237 104.546 113.475 108.95 122.444 110.734C131.413 112.518 140.709 111.602 149.157 108.103C157.605 104.603 164.826 98.6771 169.907 91.0739C174.987 83.4706 177.698 74.5317 177.698 65.3873C177.685 53.1293 172.81 41.3771 164.142 32.7093C155.474 24.0415 143.722 19.1661 131.464 19.1527Z" fill="#37474F"/>
<path d="M131.464 108.745C126.004 108.745 120.666 107.126 116.126 104.092C111.586 101.059 108.048 96.7473 105.959 91.7029C103.869 86.6584 103.322 81.1076 104.388 75.7524C105.453 70.3972 108.082 65.4782 111.943 61.6173C115.804 57.7565 120.723 55.1272 126.078 54.062C131.433 52.9968 136.984 53.5435 142.028 55.6329C147.073 57.7224 151.384 61.2609 154.418 65.8008C157.451 70.3407 159.07 75.6781 159.07 81.1382C159.062 88.4574 156.151 95.4744 150.975 100.65C145.8 105.825 138.783 108.737 131.464 108.745ZM131.464 54.2587C126.148 54.2587 120.951 55.8351 116.53 58.7887C112.11 61.7422 108.665 65.9403 106.63 70.8519C104.596 75.7635 104.064 81.168 105.101 86.3822C106.138 91.5963 108.698 96.3858 112.457 100.145C116.216 103.904 121.006 106.464 126.22 107.501C131.434 108.538 136.839 108.006 141.75 105.972C146.662 103.937 150.86 100.492 153.813 96.0717C156.767 91.6514 158.343 86.4545 158.343 81.1382C158.335 74.0119 155.5 67.1798 150.461 62.1407C145.422 57.1017 138.59 54.267 131.464 54.2587Z" fill="#37474F"/>
<path d="M115.612 88.7828C110.676 88.7828 105.85 87.3191 101.746 84.5768C97.642 81.8344 94.4432 77.9366 92.5542 73.3763C90.6652 68.8159 90.171 63.7978 91.134 58.9566C92.097 54.1153 94.4739 49.6684 97.9643 46.178C101.455 42.6877 105.902 40.3107 110.743 39.3477C115.584 38.3847 120.602 38.879 125.163 40.7679C129.723 42.6569 133.621 45.8557 136.363 49.96C139.105 54.0642 140.569 58.8894 140.569 63.8255C140.562 70.4425 137.931 76.7866 133.252 81.4656C128.573 86.1446 122.229 88.7761 115.612 88.7828ZM115.612 39.5953C110.82 39.5966 106.136 41.0187 102.152 43.6819C98.1681 46.3451 95.0635 50.1298 93.2305 54.5574C91.3976 58.985 90.9186 63.8567 91.8543 68.5564C92.7899 73.2562 95.0981 77.573 98.487 80.9611C101.876 84.3491 106.193 86.6561 110.893 87.5906C115.593 88.525 120.465 88.0448 124.892 86.2106C129.319 84.3765 133.103 81.2709 135.765 77.2864C138.427 73.3019 139.848 68.6175 139.848 63.8255C139.843 57.3991 137.288 51.2374 132.744 46.6933C128.2 42.1491 122.038 39.594 115.612 39.589V39.5953Z" fill="#37474F"/>
<path d="M122.232 92.3238C117.295 92.3238 112.468 90.8597 108.363 88.1167C104.258 85.3736 101.058 81.4748 99.1687 76.9133C97.2792 72.3518 96.7849 67.3325 97.7481 62.49C98.7113 57.6475 101.089 53.1994 104.58 49.7082C108.071 46.2169 112.519 43.8394 117.362 42.8762C122.204 41.9129 127.224 42.4073 131.785 44.2967C136.347 46.1862 140.246 49.3858 142.989 53.4911C145.732 57.5963 147.196 62.4228 147.196 67.3601C147.189 73.9789 144.557 80.3246 139.877 85.0047C135.197 89.6849 128.851 92.3171 122.232 92.3238ZM122.232 43.13C117.438 43.13 112.752 44.5516 108.766 47.215C104.781 49.8784 101.674 53.664 99.8399 58.093C98.0057 62.522 97.5261 67.3955 98.4618 72.0971C99.3974 76.7987 101.706 81.1172 105.097 84.5065C108.487 87.8958 112.806 90.2036 117.508 91.138C122.209 92.0725 127.083 91.5916 131.511 89.7562C135.94 87.9209 139.725 84.8134 142.387 80.8269C145.049 76.8404 146.47 72.1539 146.469 67.3601C146.462 60.9349 143.906 54.7748 139.362 50.232C134.818 45.6892 128.657 43.135 122.232 43.13Z" fill="#37474F"/>
<path d="M107.069 79.02C102.133 79.02 97.3079 77.5562 93.2037 74.8139C89.0995 72.0715 85.9007 68.1737 84.0117 63.6134C82.1228 59.053 81.6285 54.0349 82.5915 49.1937C83.5545 44.3524 85.9314 39.9055 89.4218 36.4151C92.9121 32.9248 97.3591 30.5478 102.2 29.5848C107.042 28.6219 112.06 29.1161 116.62 31.0051C121.18 32.894 125.078 36.0929 127.821 40.1971C130.563 44.3013 132.027 49.1265 132.027 54.0626C132.018 60.6791 129.386 67.0223 124.708 71.7009C120.029 76.3795 113.686 79.0116 107.069 79.02ZM107.069 29.8261C102.276 29.8261 97.5899 31.2476 93.6042 33.9107C89.6185 36.5739 86.5121 40.3591 84.6777 44.7877C82.8433 49.2164 82.3633 54.0895 83.2985 58.7909C84.2337 63.4923 86.542 67.8109 89.9315 71.2004C93.321 74.5899 97.6395 76.8983 102.341 77.8334C107.042 78.7686 111.916 78.2886 116.344 76.4542C120.773 74.6198 124.558 71.5134 127.221 67.5277C129.884 63.542 131.306 58.8561 131.306 54.0626C131.299 47.6368 128.743 41.476 124.2 36.9322C119.656 32.3885 113.495 29.8328 107.069 29.8261Z" fill="#37474F"/>
<path d="M117.003 79.4626C112.326 79.4638 107.754 78.0781 103.866 75.4808C99.9767 72.8834 96.9454 69.1911 95.1552 64.8708C93.365 60.5505 92.8963 55.7964 93.8083 51.2096C94.7204 46.6229 96.9722 42.4097 100.279 39.1029C103.586 35.7962 107.799 33.5443 112.386 32.6323C116.972 31.7203 121.727 32.189 126.047 33.9792C130.367 35.7694 134.059 38.8006 136.657 42.6895C139.254 46.5784 140.64 51.1503 140.639 55.8268C140.63 62.0928 138.137 68.0998 133.707 72.5306C129.276 76.9613 123.269 79.4542 117.003 79.4626ZM117.003 32.9118C112.47 32.9068 108.037 34.2465 104.265 36.7614C100.493 39.2763 97.5524 42.8533 95.8141 47.04C94.0759 51.2268 93.6185 55.835 94.4998 60.2817C95.3811 64.7285 97.5616 68.8139 100.765 72.0211C103.969 75.2284 108.052 77.4133 112.498 78.2996C116.943 79.1858 121.552 78.7335 125.741 76.9998C129.929 75.2662 133.51 72.3292 136.029 68.5603C138.548 64.7914 139.892 60.36 139.892 55.8268C139.886 49.7558 137.473 43.935 133.182 39.6398C128.892 35.3445 123.074 32.9252 117.003 32.9118Z" fill="#37474F"/>
<path d="M141.53 82.8265C136.07 82.8252 130.734 81.2051 126.194 78.1708C121.655 75.1366 118.118 70.8246 116.029 65.78C113.941 60.7354 113.395 55.1848 114.461 49.8301C115.527 44.4753 118.157 39.5569 122.018 35.6966C125.879 31.8364 130.798 29.2077 136.153 28.143C141.508 27.0783 147.059 27.6254 152.103 29.7151C157.147 31.8048 161.458 35.3432 164.491 39.8829C167.524 44.4227 169.143 49.7599 169.143 55.2198C169.135 62.54 166.223 69.558 161.046 74.7336C155.869 79.9093 148.85 82.8198 141.53 82.8265ZM141.53 28.3402C136.214 28.3415 131.018 29.919 126.598 32.8733C122.179 35.8276 118.735 40.0261 116.701 44.9378C114.668 49.8495 114.136 55.2539 115.174 60.4676C116.212 65.6813 118.773 70.4702 122.532 74.2287C126.291 77.9872 131.081 80.5466 136.295 81.5833C141.509 82.6199 146.913 82.0873 151.824 80.0526C156.736 78.018 160.933 74.5728 163.887 70.1526C166.84 65.7324 168.416 60.5358 168.416 55.2198C168.408 48.0923 165.572 41.2593 160.532 36.2201C155.491 31.1808 148.658 28.3469 141.53 28.3402Z" fill="#37474F"/>
<path d="M122.232 102.789C112.944 102.789 103.864 100.034 96.1415 94.8741C88.4187 89.7138 82.3995 82.3794 78.8451 73.7983C75.2907 65.2171 74.3607 55.7747 76.1727 46.665C77.9847 37.5553 82.4574 29.1875 89.0251 22.6198C95.5928 16.0521 103.961 11.5794 113.07 9.76737C122.18 7.95534 131.622 8.88534 140.204 12.4398C148.785 15.9942 156.119 22.0134 161.279 29.7362C166.44 37.459 169.194 46.5386 169.194 55.8268C169.18 68.2777 164.228 80.2148 155.424 89.019C146.62 97.8231 134.683 102.775 122.232 102.789ZM122.232 9.59217C113.088 9.59342 104.15 12.3061 96.5473 17.3872C88.9449 22.4683 83.0198 29.6896 79.5214 38.1379C76.023 46.5863 75.1083 55.8824 76.893 64.8506C78.6777 73.8188 83.0816 82.0564 89.5479 88.5218C96.0141 94.9872 104.252 99.39 113.221 101.173C122.189 102.957 131.485 102.041 139.933 98.5414C148.381 95.0418 155.601 89.1158 160.682 81.5127C165.762 73.9096 168.473 64.9708 168.473 55.8268C168.46 43.5676 163.583 31.8145 154.914 23.1465C146.245 14.4786 134.491 9.60388 122.232 9.59217Z" fill="#37474F"/>
<path d="M105.343 109.333C96.0549 109.333 86.9753 106.579 79.2525 101.418C71.5297 96.2583 65.5105 88.9238 61.9561 80.3427C58.4016 71.7616 57.4716 62.3191 59.2837 53.2094C61.0957 44.0997 65.5684 35.7319 72.1361 29.1642C78.7038 22.5965 87.0716 18.1238 96.1813 16.3118C105.291 14.4998 114.733 15.4298 123.315 18.9842C131.896 22.5386 139.23 28.5578 144.39 36.2806C149.551 44.0035 152.305 53.083 152.305 62.3712C152.351 68.5512 151.168 74.6787 148.824 80.3973C146.481 86.1159 143.023 91.3113 138.653 95.6813C134.283 100.051 129.088 103.509 123.369 105.852C117.651 108.196 111.523 109.379 105.343 109.333ZM105.343 16.1429C93.1754 16.2852 81.5543 21.2187 73.0003 29.8733C64.4464 38.5279 59.6492 50.2058 59.6492 62.3744C59.6492 74.5429 64.4464 86.2208 73.0003 94.8754C81.5543 103.53 93.1754 108.464 105.343 108.606C111.46 108.677 117.53 107.534 123.202 105.243C128.873 102.952 134.034 99.5579 138.385 95.2578C142.735 90.9577 146.19 85.837 148.547 80.1924C150.904 74.5478 152.118 68.4915 152.118 62.3744C152.118 56.2573 150.904 50.2009 148.547 44.5563C146.19 38.9117 142.735 33.791 138.385 29.491C134.034 25.1909 128.873 21.7969 123.202 19.5056C117.53 17.2144 111.46 16.0714 105.343 16.1429Z" fill="#37474F"/>
<path d="M188.347 83.1806C191.135 82.7948 193.677 80.5691 195.302 76.5919C198.546 68.6311 196.902 56.6804 191.628 49.8894C188.998 46.4938 185.937 45.0395 183.162 45.4189L123.004 53.6896C120.215 54.0753 117.679 56.301 116.048 60.2782C112.804 68.239 114.448 80.1897 119.722 86.9807C122.359 90.3763 125.413 91.8306 128.189 91.4512L188.347 83.1806Z" fill="#386DA7"/>
<path opacity="0.1" d="M158.261 67.67L130.326 83.2375L129.693 61.5176L118.944 55.8268C117.694 57.1059 116.72 58.6273 116.08 60.2972C112.836 68.258 114.48 80.2087 119.753 86.9997C122.39 90.3952 125.444 91.8496 128.22 91.4702L184.913 83.6738L158.261 67.67Z" fill="black"/>
<path opacity="0.2" d="M122.883 55.3209C127.506 54.1259 155.473 49.2255 171.919 46.9681L123.004 53.6896C120.215 54.0753 117.679 56.301 116.048 60.2783C113.955 65.4253 113.911 72.2353 115.555 78.2422C113.816 67.8028 118.274 56.535 122.883 55.3209Z" fill="white"/>
<path d="M191.622 49.8894C188.992 46.4939 185.931 45.0396 183.155 45.419C180.379 45.7983 177.831 48.0304 176.2 52.0076C172.956 59.9684 174.6 71.9254 179.867 78.7101C182.504 82.1057 185.558 83.5663 188.334 83.1806C191.11 82.7949 193.664 80.5691 195.289 76.5919C198.539 68.6311 196.895 56.6804 191.622 49.8894Z" fill="#386DA7"/>
<path opacity="0.2" d="M191.622 49.8894C188.992 46.4939 185.931 45.0396 183.155 45.419C180.379 45.7983 177.831 48.0304 176.2 52.0076C172.956 59.9684 174.6 71.9254 179.867 78.7101C182.504 82.1057 185.558 83.5663 188.334 83.1806C191.11 82.7949 193.664 80.5691 195.289 76.5919C198.539 68.6311 196.895 56.6804 191.622 49.8894Z" fill="black"/>
<path d="M65.185 64.3883L66.3927 99.7598L96.4212 81.0307L95.2135 45.6592L65.185 64.3883Z" fill="#455A64"/>
<path opacity="0.05" d="M95.2134 45.6592L94.1764 80.1138L66.3926 99.7598L96.4211 81.0307L95.2134 45.6592Z" fill="white"/>
<path d="M95.2134 45.6592L126.45 62.3016L127.657 97.6731L96.4211 81.0307L95.2134 45.6592Z" fill="#37474F"/>
<path d="M66.3926 99.7598L97.6288 116.402L127.657 97.6731L96.4211 81.0307L66.3926 99.7598Z" fill="#263238"/>
<path d="M89.7819 111.818L124.022 131.584L192.501 92.0519L158.261 72.2795L89.7819 111.818Z" fill="#386DA7"/>
<path opacity="0.5" d="M89.7819 111.818L124.022 131.584L192.501 92.0519L158.261 72.2795L89.7819 111.818Z" fill="white"/>
<g opacity="0.1">
<path d="M123.073 92.5957L184.818 96.4907L192.501 92.0456L187.55 89.1875L134.739 85.8616L123.073 92.5957Z" fill="white"/>
<path d="M98.3181 106.886L91.8748 110.61L153.62 114.499L160.063 110.775L98.3181 106.886Z" fill="white"/>
<path d="M143.452 80.8347L139.886 82.8897L181.138 85.4885L176.699 82.9276L143.452 80.8347Z" fill="white"/>
<path d="M138.615 123.162L150.288 116.421L91.3247 112.709L105.855 121.094L138.615 123.162Z" fill="white"/>
<path d="M114.84 97.3507L111.274 99.4057L173.019 103.294L176.586 101.239L114.84 97.3507Z" fill="white"/>
</g>
<path d="M89.7819 111.818L124.022 131.584V154.967L89.7819 135.201V111.818Z" fill="#386DA7"/>
<path opacity="0.3" d="M89.7819 111.818L124.022 131.584V154.967L89.7819 135.201V111.818Z" fill="white"/>
<path d="M192.501 92.0519V115.435L124.022 154.967V131.584L192.501 92.0519Z" fill="#386DA7"/>
<g opacity="0.15">
<path d="M192.501 92.0519V115.435L124.022 154.967V131.584L192.501 92.0519Z" fill="white"/>
</g>
<path d="M92.9245 94.7266C89.9015 94.4233 86.8499 94.5854 83.8761 95.2071C81.4933 95.7919 79.1661 96.5832 76.9207 97.572C70.3617 100.733 65.1691 106.163 62.3028 112.856C59.4366 119.549 59.0906 127.054 61.3287 133.982C63.5669 140.911 68.2379 146.795 74.4781 150.547C80.7183 154.298 88.1059 155.664 95.2748 154.391C102.444 153.118 108.909 149.292 113.476 143.621C118.043 137.95 120.403 130.818 120.119 123.542C119.834 116.267 116.925 109.34 111.93 104.043C106.934 98.7458 100.19 95.4364 92.9434 94.7266H92.9245Z" fill="#386DA7"/>
<path opacity="0.15" d="M100.493 144.938C106.292 141.707 103.686 134.986 94.3155 132.438C84.9447 129.889 74.8277 132.172 77.8754 141.037C65.166 134.322 61.878 110.421 73.7338 99.3867C69.5726 102.056 66.1329 105.71 63.7188 110.025C61.3046 114.339 59.9902 119.182 59.8918 124.125C59.7933 129.068 60.9138 133.959 63.1542 138.366C65.3947 142.774 68.6861 146.561 72.7377 149.395C76.7893 152.228 81.4764 154.02 86.3848 154.612C91.2933 155.204 96.272 154.578 100.881 152.79C105.49 151.001 109.588 148.105 112.812 144.357C116.036 140.609 118.288 136.124 119.368 131.299C117.806 136.105 111.533 144.508 100.493 144.938Z" fill="black"/>
<path opacity="0.2" d="M115.277 124.078C114.442 126.203 112.381 127.961 110.117 127.872C106.69 127.784 104.685 124.18 102.801 121.322C97.945 113.993 89.8009 109.365 81.3532 106.892C80.2836 106.644 79.2637 106.217 78.3371 105.628C77.8826 105.324 77.5229 104.898 77.2992 104.399C77.0755 103.901 76.9969 103.349 77.0724 102.807C77.388 101.715 78.0745 100.767 79.0136 100.126C81.2011 98.9236 83.6151 98.1892 86.1018 97.9703C92.425 97.4075 99.0453 99.3108 104.395 102.656C109.744 106.001 113.879 111.116 115.397 117.3C115.915 119.551 116.105 121.954 115.277 124.078Z" fill="white"/>
<path opacity="0.2" d="M105.703 120.285C106.079 121.512 106.758 122.625 107.676 123.522C108.222 124.085 108.907 124.493 109.662 124.704C117.471 126.601 113.209 107.999 107.335 112.431C106.377 113.241 105.731 114.359 105.507 115.593C105.157 117.147 105.225 118.765 105.703 120.285Z" fill="white"/>
<path d="M231.205 90.2751C201.486 142.359 139.418 168.511 81.1382 156.035C62.0993 151.938 43.9646 143.863 28.6563 132.235C28.2731 131.984 28.0056 131.59 27.9125 131.141C27.8194 130.693 27.9084 130.225 28.16 129.842C28.4115 129.459 28.805 129.191 29.2538 129.098C29.7026 129.005 30.1701 129.094 30.5533 129.346C46.8059 138.275 64.4588 144.375 82.7569 147.385C87.0756 148.018 92.0329 148.65 96.4022 148.916C103.244 149.371 110.109 149.384 116.952 148.954C120.234 148.77 123.908 148.277 127.17 147.973C128.859 147.695 132.229 147.158 133.93 146.886C136.143 146.582 141.695 145.242 143.965 144.774C146.171 144.18 148.353 143.509 150.553 142.909C153.746 142.074 157.142 140.702 160.291 139.659C163.345 138.426 166.797 137.091 169.776 135.707L175.966 132.735C180 130.566 184.047 128.397 187.885 125.887C189.523 124.888 192.102 123.25 193.639 122.093C195.176 120.936 197.793 119.248 199.248 118.059L204.685 113.772C206.437 112.273 208.138 110.705 209.889 109.188C216.767 102.878 223.156 96.0569 229.004 88.7828C229.211 88.5195 229.51 88.344 229.84 88.2915C230.171 88.2389 230.509 88.3132 230.787 88.4995C231.066 88.6857 231.263 88.9702 231.34 89.296C231.418 89.6217 231.369 89.9646 231.205 90.2561V90.2751Z" fill="#37474F"/>
<path d="M172.703 247.746C172.703 247.746 166.538 243.573 171.23 237.446C171.894 236.579 187.974 220.019 187.974 220.019L170.705 210.047L157.035 232.95L156.187 234.36C156.187 234.36 151.04 245.95 158.754 247.499C162.706 248.283 172.703 247.746 172.703 247.746Z" fill="#FFA8A7"/>
<path d="M150.395 244.856C150.237 245.554 150.295 246.284 150.56 246.949C150.876 247.847 155.245 251.274 156.371 252.735C157.496 254.195 157.635 254.79 158.9 256.794C160.316 259.014 161.088 261.752 167.341 263.939C173.595 266.127 177.888 265.4 180.708 264.192C181.707 263.702 182.574 262.98 183.237 262.087C183.237 262.087 184.255 258.514 182.283 257.717L150.395 244.856Z" fill="#263238"/>
<path d="M167.588 239.02C168.406 239.107 169.206 239.32 169.959 239.652C170.177 239.715 170.373 239.839 170.523 240.009C170.673 240.179 170.772 240.389 170.806 240.613C170.838 241.126 170.648 241.625 170.724 242.137C170.827 242.68 171.042 243.195 171.356 243.648C173.599 247.069 176.33 250.143 179.463 252.773C181.505 254.575 183.528 256.567 183.648 259.456C183.724 261.296 181.366 263.737 173.361 263.933C169.276 264.034 163.092 261.239 161.265 258.666C159.437 256.092 158.666 253.848 157.186 251.963C155.707 250.079 151.205 247.057 150.37 244.856C150.335 243.16 150.665 241.476 151.337 239.918C151.9 238.28 154.025 235.839 154.442 234.796C154.649 234.274 155 233.822 155.455 233.493C155.91 233.164 156.449 232.971 157.009 232.937L156.175 234.41C154.088 238.685 158.47 243.63 158.786 243.516C159.216 243.37 159.21 241.884 159.317 241.505C159.64 240.405 160.316 239.968 161.347 239.57C162.92 239.075 164.568 238.861 166.216 238.938C166.674 238.936 167.133 238.963 167.588 239.02Z" fill="#455A64"/>
<path d="M173.443 263.933C169.358 264.034 163.174 261.239 161.347 258.666C160.745 257.812 160.194 256.923 159.697 256.004C159.836 256.162 159.968 256.333 160.089 256.459C160.367 256.737 160.645 257.009 160.936 257.275C162.035 258.369 163.395 259.163 164.888 259.583C166.228 259.867 169.523 260.683 170.579 259.368C171.211 258.622 170.907 257.42 170.269 256.491C170.003 256.099 169.175 255.169 169.175 255.169C170.385 254.142 171.751 253.314 173.222 252.716C175.972 251.717 176.206 252.001 176.206 252.001C176.688 252.536 177.254 252.989 177.882 253.342C178.498 253.678 179.18 253.878 179.88 253.93C180.132 253.926 180.383 253.89 180.626 253.822C182.422 255.277 183.788 256.699 183.731 259.456C183.592 261.29 181.442 263.731 173.443 263.933Z" fill="#37474F"/>
<path d="M174.36 249.232C174.941 249.853 175.358 250.609 175.574 251.432C175.58 251.775 175.623 252.116 175.7 252.45C176.124 253.456 177.414 252.823 177.648 252.001C177.725 251.724 177.748 251.434 177.717 251.148C175.294 248.932 173.169 246.411 171.394 243.649C171.204 243.353 171.039 243.042 170.901 242.719V242.687C171.009 243.435 171.207 244.168 171.489 244.869C172.277 246.427 173.24 247.891 174.36 249.232Z" fill="#37474F"/>
<path d="M154.954 240.683C154.311 239.477 154.02 238.114 154.113 236.75C154.204 235.947 154.365 235.154 154.594 234.379C155.144 233.203 156.099 233.019 157.034 232.937L156.2 234.41C155.757 235.327 155.801 237.768 156.288 239.121C156.774 240.639 157.571 242.039 158.628 243.231C161.511 246.639 162.125 248.252 165.134 251.084C168.144 253.917 170.857 254.878 170.699 255.511C170.541 256.143 169.434 256.775 166.696 254.992C163.958 253.209 160.373 248.745 158.849 246.361C157.325 243.977 156.206 243.237 154.954 240.683Z" fill="#37474F"/>
<path d="M168.979 255.207C169.061 255.207 169.141 255.18 169.206 255.131C171.584 253.399 173.152 252.747 176.465 252.861C176.574 252.865 176.681 252.826 176.761 252.752C176.841 252.678 176.888 252.575 176.892 252.466C176.896 252.357 176.857 252.251 176.783 252.171C176.709 252.091 176.606 252.043 176.497 252.039C172.994 251.925 171.249 252.621 168.72 254.467C168.633 254.533 168.575 254.63 168.558 254.737C168.542 254.844 168.568 254.954 168.631 255.043C168.671 255.096 168.724 255.139 168.785 255.168C168.845 255.197 168.912 255.21 168.979 255.207Z" fill="#263238"/>
<path d="M166.829 252.817C166.915 252.817 166.999 252.791 167.069 252.741C169.668 251.04 171.552 250.515 175.106 250.667C175.161 250.67 175.216 250.663 175.268 250.645C175.32 250.627 175.367 250.599 175.408 250.563C175.45 250.526 175.483 250.482 175.507 250.433C175.531 250.384 175.545 250.33 175.549 250.275C175.552 250.22 175.544 250.165 175.527 250.113C175.509 250.062 175.481 250.014 175.444 249.973C175.408 249.932 175.364 249.898 175.314 249.874C175.265 249.85 175.211 249.836 175.157 249.832C171.407 249.618 169.339 250.237 166.582 252.046C166.535 252.076 166.494 252.115 166.463 252.161C166.431 252.207 166.409 252.259 166.398 252.314C166.386 252.369 166.386 252.426 166.397 252.48C166.409 252.535 166.431 252.587 166.462 252.634C166.505 252.691 166.56 252.737 166.624 252.769C166.688 252.801 166.758 252.817 166.829 252.817Z" fill="#263238"/>
<path d="M164.666 250.421C164.755 250.421 164.842 250.399 164.919 250.357C167.733 248.682 169.927 248.22 173.728 248.46C173.845 248.473 173.964 248.439 174.057 248.366C174.15 248.293 174.211 248.186 174.227 248.068C174.23 248.01 174.222 247.951 174.203 247.896C174.183 247.84 174.153 247.789 174.113 247.746C174.074 247.702 174.026 247.667 173.973 247.642C173.92 247.617 173.862 247.603 173.803 247.6C169.801 247.291 167.404 247.828 164.42 249.605C164.369 249.633 164.325 249.672 164.29 249.718C164.256 249.765 164.231 249.818 164.218 249.875C164.205 249.931 164.204 249.99 164.214 250.047C164.225 250.104 164.248 250.158 164.281 250.206C164.322 250.27 164.379 250.324 164.447 250.361C164.514 250.399 164.589 250.419 164.666 250.421Z" fill="#263238"/>
<path d="M162.498 248.03C162.59 248.031 162.681 248.01 162.763 247.967C165.798 246.323 168.309 245.925 172.349 246.285C172.472 246.304 172.598 246.273 172.698 246.199C172.799 246.126 172.866 246.016 172.887 245.893C172.89 245.832 172.881 245.771 172.861 245.713C172.84 245.655 172.808 245.602 172.767 245.557C172.726 245.512 172.676 245.475 172.621 245.449C172.565 245.423 172.505 245.409 172.444 245.406C168.201 245.008 165.488 245.457 162.257 247.208C162.2 247.234 162.149 247.272 162.108 247.32C162.068 247.368 162.038 247.424 162.023 247.485C162.007 247.546 162.005 247.609 162.017 247.671C162.029 247.732 162.055 247.791 162.093 247.841C162.142 247.901 162.203 247.949 162.274 247.982C162.344 248.015 162.42 248.031 162.498 248.03Z" fill="#263238"/>
<path d="M160.329 245.634C160.427 245.64 160.525 245.621 160.613 245.577C163.863 243.965 166.69 243.623 170.977 244.097C171.104 244.116 171.233 244.087 171.339 244.014C171.445 243.941 171.519 243.831 171.546 243.705C171.553 243.577 171.509 243.452 171.424 243.356C171.339 243.26 171.219 243.201 171.091 243.193C166.595 242.7 163.541 243.073 160.095 244.787C160.036 244.81 159.984 244.847 159.941 244.894C159.898 244.941 159.867 244.997 159.849 245.057C159.83 245.118 159.826 245.182 159.836 245.245C159.846 245.307 159.869 245.367 159.905 245.419C159.954 245.485 160.018 245.539 160.092 245.576C160.165 245.614 160.246 245.633 160.329 245.634Z" fill="#263238"/>
<path d="M159.57 226.684C160.734 229.023 167.562 235.112 175.492 234.727C175.492 234.727 188.77 221.391 196.092 213.69C203.168 206.235 204.976 201.448 204.458 197.705C203.939 193.961 201.929 189.75 193.418 183.471C183.37 176.042 168.852 167.354 168.852 167.354H139.134C139.134 167.354 135.157 178.464 139.798 186.077C144.439 193.69 149.668 195.207 158.249 198.609C167.967 202.466 172.981 204.477 172.981 204.477C172.981 204.477 171.502 205.937 167.923 212.14C165.09 216.997 159.57 226.684 159.57 226.684Z" fill="#37474F"/>
<path d="M172.817 183.996C172.45 189.725 168.391 195.738 163.415 197.679L172.994 204.496L153.841 196.908V182.093L172.817 183.996Z" fill="#263238"/>
<path d="M172.994 204.496L179.987 207.126L170.73 207.569C171.405 206.488 172.162 205.461 172.994 204.496Z" fill="#263238"/>
<path d="M82.504 189.953C80.5312 189.042 78.7101 189.567 76.7626 190.945C74.8151 192.324 73.424 194.967 74.1006 198.565C74.7771 202.163 75.498 204.072 74.3092 207.215C73.1205 210.357 71.3057 215.321 73.6137 220.006C75.9216 224.692 79.8167 225.944 82.2321 226.576C84.6475 227.208 87.9229 226.336 89.1306 224.989L82.504 189.953Z" fill="#263238"/>
<path d="M91.4954 193.683C90.0095 192.027 86.9744 190.825 84.8751 190.25C82.7758 189.674 79.6712 189.7 77.5403 192.014C75.0111 194.765 74.9668 197.616 75.6054 201.05C76.2441 204.483 75.6687 206.74 74.3977 210.446C73.1268 214.151 73.4429 220.228 78.2738 223.471C83.1046 226.715 87.0376 226.14 89.1306 224.995C91.2235 223.851 91.5207 222.333 91.0591 220.613C90.5975 218.894 89.1306 216.737 88.8144 214.259C88.6816 213.222 88.5235 211.609 88.9029 210.604C89.2823 209.599 90.6355 209.086 90.8884 207.904C90.9073 207.806 90.9073 207.705 90.8884 207.607C90.8188 207.265 90.4268 207.114 90.1106 206.974C89.08 206.526 89.8071 204.407 89.9209 203.516C90.098 202.144 90.2687 200.771 90.4458 199.393C90.6544 197.812 91.2931 195.27 91.4954 193.683Z" fill="#455A64"/>
<path d="M89.8325 217.604C89.3953 217.472 89.0091 217.209 88.7259 216.851C88.2735 216.178 87.9755 215.414 87.8533 214.613C86.0116 214.633 84.1735 214.781 82.3522 215.055C82.2321 215.801 82.4407 216.2 82.504 217.268C82.5155 217.621 82.4162 217.968 82.2199 218.26C82.0236 218.553 81.7403 218.777 81.4101 218.9C80.8136 219.16 80.152 219.233 79.5131 219.108C78.6022 218.935 77.7412 218.561 76.9922 218.014C76.2432 217.468 75.6249 216.762 75.1818 215.947C74.4782 214.633 74.0886 213.175 74.0436 211.685C73.2153 215.384 73.9045 220.601 78.2485 223.516C83.073 226.753 87.0123 226.184 89.1053 225.04C91.1982 223.895 91.4954 222.378 91.0338 220.658C90.7012 219.614 90.2999 218.594 89.8325 217.604Z" fill="#37474F"/>
<path d="M83.522 205.514C82.7479 207.459 82.4132 209.551 82.5419 211.641C82.7126 214.505 83.541 215.745 82.4407 216.175C81.3405 216.605 81.1382 215.498 80.9675 212.286C80.8168 209.758 81.2924 207.232 82.3522 204.932C83.0605 203.097 83.4869 201.166 83.6168 199.203C83.7291 198.043 84.094 196.922 84.6861 195.918C85.2782 194.914 86.083 194.052 87.044 193.392C87.6283 192.996 88.3109 192.769 89.0162 192.737C89.7215 192.704 90.422 192.868 91.0402 193.209C91.0402 193.209 92.6968 193.999 91.6725 195.106C91.135 194.17 89.5606 193.386 87.4929 194.758C86.6195 195.381 85.9058 196.202 85.4102 197.154C84.9146 198.106 84.6511 199.161 84.6412 200.234C84.6538 201.891 84.2492 203.339 83.522 205.514Z" fill="#37474F"/>
<path d="M82.1435 215.587C82.036 215.589 81.9314 215.552 81.8497 215.482C81.7681 215.412 81.7151 215.314 81.701 215.208C81.6869 215.101 81.7126 214.993 81.7733 214.904C81.8339 214.815 81.9253 214.752 82.0297 214.727C84.0973 214.164 88.8586 213.898 89.5036 214.916C89.5397 214.964 89.5655 215.019 89.5794 215.078C89.5933 215.136 89.5949 215.197 89.5842 215.256C89.5734 215.315 89.5506 215.372 89.5171 215.422C89.4836 215.472 89.4402 215.514 89.3895 215.546C89.3388 215.579 89.282 215.6 89.2226 215.609C89.1632 215.619 89.1026 215.616 89.0444 215.601C88.9863 215.585 88.9319 215.558 88.8847 215.521C88.8375 215.484 88.7985 215.437 88.7701 215.384C88.3654 215.043 84.698 214.904 82.2636 215.568L82.1435 215.587Z" fill="#263238"/>
<path d="M88.884 212.969C88.8098 212.969 88.7368 212.951 88.6716 212.915C88.6064 212.88 88.5512 212.829 88.5109 212.766C88.1126 212.425 84.4451 212.273 82.0044 212.931C81.9488 212.946 81.8907 212.95 81.8334 212.943C81.7762 212.935 81.721 212.917 81.671 212.888C81.621 212.859 81.5773 212.821 81.5422 212.775C81.5072 212.729 81.4816 212.677 81.467 212.621C81.4518 212.566 81.4477 212.508 81.4552 212.451C81.4626 212.394 81.4812 212.34 81.5101 212.29C81.539 212.241 81.5774 212.198 81.6232 212.163C81.669 212.129 81.7212 212.104 81.7768 212.09C83.8444 211.533 88.6058 211.28 89.2507 212.299C89.2874 212.347 89.3132 212.404 89.3264 212.463C89.3396 212.523 89.34 212.585 89.3274 212.645C89.3148 212.705 89.2897 212.761 89.2535 212.81C89.2174 212.86 89.1712 212.901 89.1179 212.931C89.0452 212.966 88.964 212.979 88.884 212.969Z" fill="#263238"/>
<path d="M89.3076 210.636C89.2241 210.635 89.1424 210.611 89.0719 210.567C89.0014 210.522 88.945 210.458 88.9092 210.383C88.5552 209.991 84.932 209.384 82.4344 209.75C82.3774 209.759 82.3191 209.757 82.2632 209.742C82.2072 209.728 82.1547 209.703 82.1086 209.668C82.0626 209.634 82.0241 209.59 81.9953 209.54C81.9665 209.49 81.9481 209.434 81.9412 209.377C81.9267 209.263 81.9576 209.147 82.0273 209.055C82.097 208.962 82.2 208.901 82.3142 208.884C84.4325 208.593 89.1875 208.941 89.6996 210.035C89.7251 210.087 89.7399 210.143 89.7432 210.2C89.7464 210.258 89.7381 210.316 89.7186 210.37C89.6991 210.424 89.669 210.474 89.6298 210.516C89.5907 210.559 89.5435 210.593 89.491 210.617C89.4324 210.638 89.3694 210.645 89.3076 210.636Z" fill="#263238"/>
<path d="M83.7686 204.742C83.0857 205.925 83.1363 207.215 84.1859 206.513C85.2355 205.811 87.4802 206.778 90.2877 207.898C93.0952 209.017 100.152 212.286 100.152 212.286L108.808 197.743C101.404 195.757 99.6775 196.32 91.4385 194.094C87.7458 193.095 85.3557 196.137 84.8751 199.02C84.3946 201.903 84.3756 203.686 83.7686 204.742Z" fill="#FFA8A7"/>
<path d="M130.054 167.354C126.924 172.608 126.26 176.744 125.628 182.093C124.926 188.043 123.294 199.855 123.294 199.855C117.977 197.901 110.737 195.985 98.2675 194.164C98.2675 194.164 91.3121 198.084 92.6462 210.174C92.6462 210.174 111.805 221.619 122.592 226.513C133.702 231.571 139.564 230.104 144.401 223.022C148.871 216.472 157.509 196.661 157.509 196.661C165.419 196.162 179.241 181.448 176.592 167.341L130.054 167.354Z" fill="#37474F"/>
<path d="M123.32 199.855C122.34 206.747 122.586 211.432 123.32 215.542C119.14 210.743 120.917 199.02 120.917 199.02C121.789 199.304 122.605 199.589 123.32 199.855Z" fill="#263238"/>
<path d="M180.063 119.298C191.584 117.692 195.321 124.116 196.092 127.025C196.864 129.934 196.756 133.494 191.141 141.638L180.063 119.298Z" fill="#F0F0F0"/>
<path d="M126.791 175.163C128.6 165.44 131.53 155.959 135.523 146.911C140.032 136.491 148.043 126.001 151.888 122.776C151.888 122.776 158.489 121.834 168.435 120.07C178.381 118.305 185.21 119.349 188.859 122.068C192.507 124.787 194.784 128.821 193.747 134.556C192.71 140.291 187.423 148.252 184.414 152.969C181.404 157.686 180.221 160.784 179.836 164.818C179.545 167.847 180.127 169.592 179.146 173.26C168.454 187.499 138.09 184.78 126.791 175.163Z" fill="#FAFAFA"/>
<path d="M177.433 119.197V119.829C182.245 119.829 186.064 120.778 188.473 122.567C192.438 125.52 193.993 129.523 193.108 134.423C192.166 139.633 187.556 146.829 184.508 151.584L183.876 152.602C180.822 157.389 179.602 160.563 179.197 164.736C179.11 165.728 179.081 166.725 179.108 167.721C179.186 169.481 179.001 171.244 178.558 172.95C173.936 179.014 164.9 182.491 153.734 182.491C143.408 182.491 133.171 179.513 127.512 174.904C129.307 165.362 132.188 156.057 136.099 147.17C140.525 136.876 148.334 126.677 152.14 123.396C153.291 123.225 159.602 122.295 168.524 120.715C171.454 120.167 174.427 119.877 177.408 119.848V119.216M177.408 119.216C174.389 119.245 171.378 119.537 168.41 120.089C158.464 121.853 151.862 122.795 151.862 122.795C148.018 126.02 140.006 136.51 135.498 146.93C131.505 155.978 128.574 165.459 126.766 175.182C132.513 180.076 143.206 183.181 153.696 183.181C163.857 183.181 173.867 180.278 179.121 173.279C180.101 169.611 179.519 167.866 179.81 164.837C180.196 160.803 181.378 157.705 184.388 152.988C187.398 148.271 192.684 140.341 193.721 134.575C194.758 128.808 192.488 124.799 188.833 122.087C186.412 120.285 182.599 119.216 177.408 119.216Z" fill="#E0E0E0"/>
<path opacity="0.2" d="M181.163 139.235C180.164 139.038 179.13 139.119 178.173 139.469C177.597 140.462 177.376 141.998 177.8 142.757C178.223 143.516 179.064 144.654 180.051 144.61C181.037 144.565 181.948 143.307 182.087 142.08C182.257 140.746 181.163 139.235 181.163 139.235Z" fill="white"/>
<path d="M168.618 90.0474C164.129 94.3788 165.027 99.9494 166.089 105.558C167.354 111.951 167.265 113.987 170.73 115.839C171.489 96.1303 175.846 120.702 192.811 106.684C195.877 104.154 196.737 95.6244 193.595 91.4765C189.137 85.6213 177.37 81.9096 168.618 90.0474Z" fill="#37474F"/>
<path d="M166.026 111.767C168.796 113.19 170.256 111.318 170.256 111.318L167.139 118.419C167.139 118.419 165.179 122.814 168.682 125.318C178.4 132.273 175.877 134.657 179.096 137.913C180.361 136.541 180.753 129.965 181.075 128.245L183.876 121.397C185.037 121.531 186.206 121.571 187.373 121.518C190.136 121.353 191.843 119.532 192.931 116.661C194.689 112.052 195.049 104.913 194.094 95.5486C191.268 92.8929 181.303 91.584 174.493 95.0364C174.29 100.481 172.747 101.239 172.564 103.579C172.355 106.203 172.128 106.785 171.3 107.076C170.471 107.366 169.851 106.083 169.586 105.28C169.143 103.939 168.739 103.067 167.487 102.643C166.235 102.219 164.787 102.321 163.478 103.952C161.467 106.488 164.009 110.737 166.026 111.767Z" fill="#FFA8A7"/>
<path d="M183.876 121.397C180.651 120.98 176.25 118.919 174.556 117.06C172.861 115.201 171.932 111.774 171.932 111.774C171.839 114.046 172.487 116.288 173.778 118.16C175.934 121.258 183.023 123.471 183.023 123.471L183.876 121.397Z" fill="#F28F8F"/>
<path d="M182.947 97.8818C182.858 97.8818 182.757 97.9387 182.757 98.0209C182.757 98.1031 182.839 98.141 182.909 98.1727C183.021 98.2369 183.129 98.3088 183.231 98.3876C183.336 98.4611 183.425 98.5559 183.49 98.6659C183.531 98.7471 183.557 98.8349 183.566 98.9251C183.593 99.0754 183.608 99.2277 183.611 99.3804C183.611 99.5068 183.718 99.589 183.838 99.4879C183.883 99.4464 183.915 99.3941 183.933 99.3361C184.004 99.1685 184.032 98.9861 184.015 98.805C184.003 98.7024 183.975 98.6022 183.933 98.5078C183.846 98.3199 183.707 98.1611 183.532 98.0501C183.357 97.9391 183.154 97.8807 182.947 97.8818ZM187.904 98.0335C187.916 97.9843 187.914 97.9328 187.899 97.8844C187.884 97.836 187.856 97.7925 187.819 97.7584C187.782 97.7242 187.736 97.7007 187.686 97.6901C187.637 97.6796 187.585 97.6824 187.537 97.6984C187.371 97.7787 187.224 97.8944 187.107 98.0375C186.99 98.1806 186.906 98.3476 186.861 98.5267C186.769 98.7676 186.747 99.0294 186.798 99.2821C186.848 99.5349 186.968 99.7683 187.145 99.9558C187.202 100.006 187.291 100.051 187.354 100.006C187.417 99.9621 187.354 99.374 187.385 99.2033C187.4 98.9809 187.465 98.7646 187.575 98.571C187.709 98.4082 187.82 98.2273 187.904 98.0335ZM185.198 96.8954C185.186 96.888 185.173 96.8834 185.159 96.882C185.145 96.8806 185.131 96.8824 185.119 96.8873C185.106 96.8922 185.094 96.9001 185.085 96.9103C185.075 96.9205 185.069 96.9327 185.065 96.946C185.049 97.0058 185.047 97.0686 185.06 97.1291C185.074 97.1897 185.101 97.2461 185.141 97.2937C185.204 97.4222 185.257 97.5554 185.299 97.6921C185.386 97.9601 185.434 98.2389 185.444 98.5204C185.455 98.7847 185.44 99.0494 185.4 99.3108C185.362 99.5574 185.293 99.7977 185.255 100.044C185.255 100.044 185.255 100.139 185.305 100.108C185.498 99.9112 185.645 99.6742 185.735 99.4138C185.825 99.1534 185.855 98.8763 185.824 98.6026C185.819 98.2979 185.77 97.9955 185.678 97.7047C185.606 97.3915 185.438 97.1085 185.198 96.8954Z" fill="#F28F8F"/>
<path d="M178.286 100.164L181.201 99.0073C181.349 99.4063 181.336 99.8466 181.166 100.237C180.997 100.626 180.683 100.936 180.291 101.1C180.098 101.175 179.892 101.21 179.686 101.204C179.479 101.197 179.276 101.148 179.089 101.061C178.901 100.973 178.734 100.849 178.596 100.695C178.458 100.541 178.353 100.36 178.286 100.164Z" fill="#37474F"/>
<path d="M189.618 98.9947L192.469 100.367C192.389 100.557 192.272 100.729 192.123 100.872C191.975 101.015 191.799 101.126 191.606 101.199C191.413 101.272 191.207 101.304 191.001 101.295C190.795 101.286 190.593 101.234 190.408 101.145C190.027 100.955 189.733 100.626 189.586 100.227C189.439 99.8269 189.45 99.3862 189.618 98.9947Z" fill="#37474F"/>
<path d="M185.002 101.322L185.324 109.023L189.693 108.391C189.004 106.102 186.741 102.434 185.002 101.322Z" fill="#F28F8F"/>
<path d="M181.846 111.331C181.638 111.442 181.457 111.597 181.315 111.786C180.892 112.381 181.404 112.735 181.948 112.836C182.572 112.944 183.171 113.169 183.712 113.5C183.943 113.692 184.228 113.809 184.527 113.835C184.72 113.817 184.898 113.726 185.027 113.582C185.126 113.426 185.171 113.241 185.153 113.057C185.128 112.684 185.005 112.323 184.796 112.013C184.588 111.702 184.301 111.451 183.965 111.287C183.632 111.131 183.268 111.054 182.9 111.062C182.533 111.07 182.173 111.162 181.846 111.331Z" fill="#B16668"/>
<path d="M183.731 113.5C183.859 113.585 183.992 113.663 184.129 113.734C184.035 113.134 183.744 112.582 183.3 112.168C182.857 111.753 182.287 111.498 181.682 111.445C181.541 111.536 181.417 111.652 181.315 111.786C180.892 112.381 181.404 112.735 181.948 112.836C182.579 112.941 183.184 113.167 183.731 113.5Z" fill="#F28F8F"/>
<path d="M182.397 104.338C182.398 104.607 182.319 104.871 182.17 105.095C182.021 105.32 181.809 105.495 181.56 105.599C181.312 105.702 181.038 105.73 180.773 105.678C180.509 105.625 180.266 105.496 180.076 105.305C179.885 105.115 179.756 104.872 179.703 104.608C179.651 104.343 179.679 104.07 179.782 103.821C179.886 103.572 180.061 103.36 180.286 103.211C180.51 103.062 180.774 102.983 181.043 102.985C181.402 102.985 181.746 103.127 182 103.381C182.254 103.635 182.397 103.979 182.397 104.338Z" fill="#263238"/>
<path d="M192.052 104.142C192.053 104.411 191.975 104.674 191.826 104.899C191.677 105.123 191.465 105.298 191.217 105.402C190.969 105.506 190.695 105.534 190.431 105.482C190.167 105.43 189.924 105.301 189.733 105.112C189.543 104.922 189.413 104.679 189.36 104.416C189.307 104.152 189.333 103.878 189.436 103.629C189.539 103.38 189.713 103.168 189.937 103.018C190.16 102.868 190.423 102.789 190.692 102.788C190.871 102.788 191.047 102.822 191.212 102.89C191.377 102.957 191.527 103.057 191.653 103.183C191.78 103.308 191.88 103.458 191.948 103.622C192.017 103.787 192.052 103.963 192.052 104.142Z" fill="#263238"/>
<path d="M179.052 137.907C177.427 135.732 177.294 129.554 176.054 128.422C174.815 127.291 167.525 121.998 167.082 118.577L168.119 116.193C167.24 115.7 165.773 118.533 162.042 121.366C162.042 121.366 161.328 124.881 163.667 129.137C166.431 134.157 169.055 135.979 169.055 135.979C169.055 135.979 173.285 131.331 173.93 131.192C174.575 131.053 176.971 137.009 179.052 137.907Z" fill="#F0F0F0"/>
<path d="M179.052 137.907C180.139 136.32 180.531 129.428 180.879 128.543C181.6 126.677 183.674 121.865 183.674 121.865C183.936 122.105 184.169 122.375 184.369 122.668C187.215 127.025 186.646 132.937 185.634 134.682C184.875 132.665 182.896 129.984 182.472 130.458C182.049 130.933 180.752 137.224 179.052 137.907Z" fill="#F0F0F0"/>
<path d="M109.282 160.986C116.339 156.82 126.431 150.933 126.431 150.933C126.431 150.933 142.826 145.027 146.45 142.238C151.11 138.641 155.549 131.97 151.35 124.799C146.684 122.902 144.129 125.533 133.513 131.236C123.566 136.592 121.069 137.496 116.82 141.201C112.57 144.907 104.281 153.607 102.011 154.916C99.9242 156.124 97.1357 155.504 95.1502 155.441C93.1648 155.378 91.5207 156.358 89.9083 155.915C88.296 155.473 87.3791 152.906 86.1145 151.767C84.8499 150.629 83.9077 150.364 83.2754 150.819C82.6431 151.274 85.2609 155.624 85.2609 155.624C85.2609 155.624 82.055 152.248 80.9169 151.571C79.7787 150.895 78.4445 151.426 78.4698 152.052C78.4951 152.678 83.8129 158.072 84.5463 158.931C85.2798 159.791 87.1072 160.538 89.6934 161.284C92.2795 162.03 96.75 163.301 99.5195 163.446C102.289 163.592 104.793 163.642 109.282 160.986Z" fill="#FFA8A7"/>
<path d="M85.2861 155.624C86.0765 156.933 86.7721 158.249 87.8154 158.786C88.8587 159.323 90.0538 159.893 90.0538 159.893C88.9387 159.586 87.8548 159.175 86.8163 158.666C86.1461 158.185 85.2861 155.624 85.2861 155.624Z" fill="#F28F8F"/>
<path d="M126.576 151.179L148.789 142.611C152.716 139.45 156.004 129.617 151.887 122.776C145.198 122.776 143.87 124.673 135.536 129.263C129.813 132.425 123.041 135.985 123.041 135.985C119.507 137.673 115.131 142.042 112.102 144.989C109.074 147.936 106.045 151.179 106.045 151.179C106.045 151.179 105.292 153.487 107.815 156.238C109.227 157.859 111.223 158.857 113.367 159.014L126.576 151.179Z" fill="#F0F0F0"/>
<path d="M26.614 32.8675L22.4218 44.6475L0 23.3513L26.2346 65.3873L30.4648 52.9308L50.1296 75.9722L26.614 32.8675Z" fill="#F0F0F0"/>
<path d="M22.877 153.354L28.1315 161.714L3.9646 165.217L42.6368 168.524L37.5467 160.386L61.1066 159.842L22.877 153.354Z" fill="#F0F0F0"/>
<path d="M206.848 10.1612L211.337 18.3181L225.267 0L211.135 33.386L206.507 25.6655L194.72 44.6285L206.848 10.1612Z" fill="#F0F0F0"/>
<path d="M234.176 133.184L231.976 143.516L257.793 140.114L219.146 154.36L220.949 146.235L195.555 151.508L234.176 133.184Z" fill="#F0F0F0"/>
<path d="M130.256 75.9785C149.042 75.0237 156.699 80.645 158.135 87.7522C158.766 90.8109 158.272 93.9948 156.744 96.7183L160.455 100.873L152.956 100.348C150.739 101.543 148.363 102.416 145.9 102.94C137.174 104.331 122.972 104.312 115.922 98.5141C114.868 97.6597 113.958 96.6413 113.228 95.498C110.414 91.0528 108.909 77.0661 130.256 75.9785Z" fill="white"/>
<path d="M126.311 85.8679C126.389 85.8695 126.464 85.9013 126.519 85.9567C126.574 86.0121 126.606 86.0867 126.608 86.165V93.3102C126.608 93.3492 126.6 93.3878 126.585 93.4237C126.57 93.4596 126.547 93.492 126.519 93.5188C126.492 93.5471 126.46 93.5695 126.424 93.5848C126.388 93.6 126.35 93.6077 126.311 93.6073H125.419C125.339 93.6069 125.261 93.5751 125.204 93.5188C125.149 93.4629 125.118 93.3884 125.115 93.3102V90.3889H121.777V93.3102C121.777 93.3492 121.77 93.3878 121.754 93.4237C121.739 93.4596 121.717 93.492 121.688 93.5188C121.661 93.5471 121.629 93.5695 121.593 93.5848C121.557 93.6 121.519 93.6077 121.48 93.6073H120.582C120.504 93.607 120.43 93.5776 120.373 93.5251C120.344 93.4973 120.322 93.4639 120.306 93.4269C120.291 93.3899 120.284 93.3502 120.285 93.3102V86.165C120.284 86.1261 120.292 86.0874 120.307 86.0515C120.322 86.0156 120.345 85.9832 120.373 85.9564C120.399 85.9271 120.431 85.904 120.468 85.8887C120.504 85.8734 120.543 85.8663 120.582 85.8679H121.48C121.558 85.8695 121.633 85.9013 121.688 85.9567C121.743 86.0121 121.775 86.0867 121.777 86.165V89.0041H125.115V86.165C125.117 86.0856 125.15 86.0101 125.207 85.9545C125.263 85.8989 125.34 85.8678 125.419 85.8679H126.311Z" fill="#455A64"/>
<path d="M133.487 92.2226C133.568 92.2231 133.645 92.2548 133.702 92.3111C133.757 92.367 133.789 92.4415 133.791 92.5198V93.3102C133.789 93.3884 133.757 93.4629 133.702 93.5188C133.645 93.5751 133.568 93.6069 133.487 93.6073H128.631C128.553 93.6057 128.478 93.5739 128.423 93.5185C128.367 93.4631 128.335 93.3885 128.334 93.3102V86.165C128.334 86.1261 128.341 86.0874 128.356 86.0515C128.372 86.0156 128.394 85.9832 128.422 85.9564C128.449 85.9281 128.482 85.9057 128.518 85.8904C128.553 85.8752 128.592 85.8675 128.631 85.8679H133.399C133.438 85.8663 133.477 85.8734 133.513 85.8887C133.549 85.904 133.581 85.9271 133.607 85.9564C133.637 85.9822 133.661 86.0142 133.678 86.0502C133.694 86.0863 133.703 86.1255 133.702 86.165V86.9491C133.703 86.9887 133.694 87.0279 133.678 87.0639C133.661 87.1 133.637 87.132 133.607 87.1578C133.581 87.187 133.549 87.2101 133.513 87.2254C133.477 87.2407 133.438 87.2479 133.399 87.2463H129.826V89.0041H133.158C133.197 89.0038 133.236 89.0115 133.272 89.0267C133.308 89.0419 133.34 89.0644 133.367 89.0926C133.422 89.1485 133.454 89.2231 133.456 89.3013V90.0917C133.454 90.17 133.422 90.2447 133.367 90.3001C133.311 90.3554 133.237 90.3873 133.158 90.3889H129.826V92.2226H133.487Z" fill="#455A64"/>
<path d="M140.304 92.2226C140.382 92.2234 140.457 92.2552 140.512 92.3111C140.567 92.367 140.599 92.4415 140.601 92.5198V93.3102C140.599 93.3884 140.567 93.4629 140.512 93.5188C140.457 93.5747 140.382 93.6066 140.304 93.6073H135.466C135.386 93.6069 135.309 93.5751 135.251 93.5188C135.197 93.4629 135.165 93.3884 135.163 93.3102V86.165C135.164 86.0856 135.197 86.0101 135.254 85.9545C135.311 85.8989 135.387 85.8678 135.466 85.8679H136.358C136.397 85.8663 136.436 85.8734 136.472 85.8887C136.508 85.904 136.54 85.9271 136.567 85.9564C136.597 85.9822 136.621 86.0142 136.637 86.0502C136.653 86.0863 136.662 86.1255 136.661 86.165V92.2226H140.304Z" fill="#455A64"/>
<path d="M144.951 85.8679C145.696 85.8231 146.432 86.0475 147.025 86.5002C147.503 86.9983 147.771 87.6622 147.771 88.3528C147.771 89.0435 147.503 89.7074 147.025 90.2055C146.434 90.6629 145.696 90.8878 144.951 90.8378H143.181V93.3038C143.178 93.3821 143.147 93.4566 143.092 93.5125C143.037 93.5684 142.962 93.6002 142.883 93.601H141.985C141.946 93.6014 141.908 93.5937 141.872 93.5784C141.836 93.5632 141.804 93.5408 141.777 93.5125C141.749 93.4856 141.726 93.4533 141.711 93.4174C141.696 93.3815 141.688 93.3428 141.688 93.3038V86.1587C141.69 86.0804 141.722 86.0058 141.777 85.9504C141.832 85.895 141.907 85.8632 141.985 85.8615L144.951 85.8679ZM143.181 89.4594H144.894C145.246 89.4762 145.595 89.3905 145.899 89.2128C146.032 89.1124 146.137 88.9792 146.204 88.8264C146.27 88.6735 146.296 88.506 146.279 88.3402C146.297 88.177 146.272 88.0119 146.205 87.8619C146.138 87.7118 146.033 87.5823 145.899 87.4866C145.593 87.315 145.245 87.2318 144.894 87.2463H143.181V89.4594Z" fill="#455A64"/>
<path d="M150.054 92.0329C150.133 92.0346 150.209 92.0673 150.264 92.124C150.32 92.1807 150.351 92.257 150.351 92.3364V93.3102C150.351 93.3492 150.344 93.3878 150.328 93.4237C150.313 93.4596 150.291 93.492 150.262 93.5188C150.236 93.5471 150.203 93.5695 150.167 93.5848C150.131 93.6 150.093 93.6077 150.054 93.6074H149.105C149.025 93.6069 148.948 93.5751 148.89 93.5188C148.837 93.4623 148.808 93.3877 148.808 93.3102V92.3364C148.806 92.2567 148.836 92.1795 148.89 92.1214C148.948 92.0651 149.025 92.0334 149.105 92.0329H150.054ZM150.3 91.0718C150.3 91.1522 150.268 91.2293 150.212 91.2868C150.154 91.3413 150.077 91.3709 149.997 91.369H149.156C149.078 91.3692 149.004 91.3398 148.947 91.2868C148.891 91.2293 148.859 91.1522 148.859 91.0718V86.1651C148.858 86.1261 148.866 86.0874 148.881 86.0515C148.897 86.0156 148.919 85.9833 148.947 85.9564C148.974 85.9281 149.006 85.9057 149.042 85.8905C149.078 85.8752 149.117 85.8675 149.156 85.8679H150.01C150.089 85.8679 150.165 85.899 150.222 85.9545C150.279 86.0101 150.311 86.0857 150.313 86.1651L150.3 91.0718Z" fill="#455A64"/>
</svg>
