<svg width="19" height="19" viewBox="0 0 19 19" fill="none" xmlns="http://www.w3.org/2000/svg">
<path fill-rule="evenodd" clip-rule="evenodd" d="M9.49998 1.6875C4.90915 1.6875 1.1875 5.40911 1.1875 9.99998C1.1875 14.5908 4.90915 18.3125 9.49998 18.3125C14.0909 18.3125 17.8125 14.5909 17.8125 9.99998C17.8125 5.40911 14.0909 1.6875 9.49998 1.6875ZM9.49998 16.65C5.8332 16.65 2.85001 13.6668 2.85001 9.99998C2.85001 6.33316 5.83316 3.35001 9.49998 3.35001C13.1668 3.35001 16.15 6.33316 16.15 9.99998C16.15 13.6668 13.1668 16.65 9.49998 16.65ZM10.5409 6.675C10.5409 7.2777 10.1021 7.71407 9.50844 7.71407C8.89081 7.71407 8.46274 7.27766 8.46274 6.66346C8.46274 6.07315 8.90238 5.63596 9.50844 5.63596C10.1021 5.63596 10.5409 6.07315 10.5409 6.675ZM8.67058 9.16874H10.333V14.1562H8.67058V9.16874Z" fill="#A2A9AB"/>
</svg>
