<svg width="16" height="16" viewBox="0 0 16 16" fill="none" xmlns="http://www.w3.org/2000/svg">
<path d="M3.39906 8.575L8.29906 13.475C8.49906 13.675 8.59506 13.9083 8.58706 14.175C8.57906 14.4417 8.47473 14.675 8.27406 14.875C8.07406 15.0583 7.84073 15.1543 7.57406 15.163C7.30739 15.1717 7.07406 15.0757 6.87406 14.875L0.274061 8.275C0.174061 8.175 0.103061 8.06667 0.0610614 7.95C0.0190614 7.83333 -0.00127179 7.70833 6.15388e-05 7.575C0.00139487 7.44167 0.0223946 7.31667 0.0630613 7.2C0.103728 7.08333 0.174395 6.975 0.275062 6.875L6.87506 0.275C7.05839 0.0916663 7.28773 0 7.56306 0C7.8384 0 8.07573 0.0916663 8.27506 0.275C8.47506 0.475 8.57506 0.712667 8.57506 0.988C8.57506 1.26333 8.47506 1.50067 8.27506 1.7L3.39906 6.575H14.5741C14.8574 6.575 15.0951 6.671 15.2871 6.863C15.4791 7.055 15.5747 7.29233 15.5741 7.575C15.5734 7.85767 15.4774 8.09533 15.2861 8.288C15.0947 8.48067 14.8574 8.57633 14.5741 8.575H3.39906Z" fill="white"/>
</svg>
