<svg width="22" height="22" viewBox="0 0 22 22" fill="none" xmlns="http://www.w3.org/2000/svg">
<g opacity="0.7">
<path opacity="0.5" d="M17.3 3.8H15.5V2.9C15.5 2.66131 15.4052 2.43239 15.2364 2.2636C15.0676 2.09482 14.8387 2 14.6 2C14.3613 2 14.1324 2.09482 13.9636 2.2636C13.7948 2.43239 13.7 2.66131 13.7 2.9V3.8H8.3V2.9C8.3 2.66131 8.20518 2.43239 8.0364 2.2636C7.86761 2.09482 7.63869 2 7.4 2C7.1613 2 6.93239 2.09482 6.7636 2.2636C6.59482 2.43239 6.5 2.66131 6.5 2.9V3.8H4.7C3.98392 3.8 3.29716 4.08446 2.79081 4.59081C2.28446 5.09716 2 5.78392 2 6.5V17.3C2 18.0161 2.28446 18.7028 2.79081 19.2092C3.29716 19.7155 3.98392 20 4.7 20H17.3C18.0161 20 18.7028 19.7155 19.2092 19.2092C19.7155 18.7028 20 18.0161 20 17.3V6.5C20 5.78392 19.7155 5.09716 19.2092 4.59081C18.7028 4.08446 18.0161 3.8 17.3 3.8ZM18.2 17.3C18.2 17.5387 18.1052 17.7676 17.9364 17.9364C17.7676 18.1052 17.5387 18.2 17.3 18.2H4.7C4.46131 18.2 4.23239 18.1052 4.0636 17.9364C3.89482 17.7676 3.8 17.5387 3.8 17.3V11H18.2V17.3ZM18.2 9.2H3.8V6.5C3.8 6.2613 3.89482 6.03239 4.0636 5.8636C4.23239 5.69482 4.46131 5.6 4.7 5.6H6.5V6.5C6.5 6.73869 6.59482 6.96761 6.7636 7.1364C6.93239 7.30518 7.1613 7.4 7.4 7.4C7.63869 7.4 7.86761 7.30518 8.0364 7.1364C8.20518 6.96761 8.3 6.73869 8.3 6.5V5.6H13.7V6.5C13.7 6.73869 13.7948 6.96761 13.9636 7.1364C14.1324 7.30518 14.3613 7.4 14.6 7.4C14.8387 7.4 15.0676 7.30518 15.2364 7.1364C15.4052 6.96761 15.5 6.73869 15.5 6.5V5.6H17.3C17.5387 5.6 17.7676 5.69482 17.9364 5.8636C18.1052 6.03239 18.2 6.2613 18.2 6.5V9.2Z" fill="black"/>
</g>
</svg>
