<svg width="22" height="22" viewBox="0 0 22 22" fill="none" xmlns="http://www.w3.org/2000/svg">
<g filter="url(#filter0_d_455_163)">
<path d="M11 9C11.55 9 12.021 8.80433 12.413 8.413C12.805 8.02167 13.0007 7.55067 13 7C12.9993 6.44933 12.8037 5.97867 12.413 5.588C12.0223 5.19733 11.5513 5.00133 11 5C10.4487 4.99867 9.978 5.19467 9.588 5.588C9.198 5.98133 9.002 6.452 9 7C8.998 7.548 9.194 8.019 9.588 8.413C9.982 8.807 10.4527 9.00267 11 9ZM6 19V17H10V13.9C9.18333 13.7167 8.45433 13.371 7.813 12.863C7.17167 12.355 6.70067 11.7173 6.4 10.95C5.15 10.8 4.10433 10.2543 3.263 9.313C2.42167 8.37167 2.00067 7.26733 2 6V3H6V1H16V3H20V6C20 7.26667 19.579 8.371 18.737 9.313C17.895 10.255 16.8493 10.8007 15.6 10.95C15.3 11.7167 14.8293 12.3543 14.188 12.863C13.5467 13.3717 12.8173 13.7173 12 13.9V17H16V19H6ZM6 8.8V5H4V6C4 6.63333 4.18333 7.20433 4.55 7.713C4.91667 8.22167 5.4 8.584 6 8.8ZM16 8.8C16.6 8.58333 17.0833 8.22067 17.45 7.712C17.8167 7.20333 18 6.63267 18 6V5H16V8.8Z" fill="#FFC107"/>
</g>
<defs>
<filter id="filter0_d_455_163" x="0.1" y="0.1" width="21.8" height="21.8" filterUnits="userSpaceOnUse" color-interpolation-filters="sRGB">
<feFlood flood-opacity="0" result="BackgroundImageFix"/>
<feColorMatrix in="SourceAlpha" type="matrix" values="0 0 0 0 0 0 0 0 0 0 0 0 0 0 0 0 0 0 127 0" result="hardAlpha"/>
<feOffset dy="1"/>
<feGaussianBlur stdDeviation="0.95"/>
<feComposite in2="hardAlpha" operator="out"/>
<feColorMatrix type="matrix" values="0 0 0 0 0 0 0 0 0 0 0 0 0 0 0 0 0 0 0.25 0"/>
<feBlend mode="normal" in2="BackgroundImageFix" result="effect1_dropShadow_455_163"/>
<feBlend mode="normal" in="SourceGraphic" in2="effect1_dropShadow_455_163" result="shape"/>
</filter>
</defs>
</svg>
