<svg width="19" height="19" viewBox="0 0 19 19" fill="none" xmlns="http://www.w3.org/2000/svg">
<path d="M4.75 1.9C4.75 1.39609 4.95018 0.912816 5.3065 0.556497C5.66282 0.200178 6.14609 0 6.65 0H12.35C12.8539 0 13.3372 0.200178 13.6935 0.556497C14.0498 0.912816 14.25 1.39609 14.25 1.9V3.8H18.05C18.302 3.8 18.5436 3.90009 18.7218 4.07825C18.8999 4.25641 19 4.49804 19 4.75C19 5.00196 18.8999 5.24359 18.7218 5.42175C18.5436 5.59991 18.302 5.7 18.05 5.7H17.0344L16.2108 17.2349C16.1767 17.7143 15.9622 18.1629 15.6105 18.4904C15.2588 18.8179 14.7961 19 14.3155 19H4.6835C4.20293 19 3.74021 18.8179 3.38854 18.4904C3.03687 18.1629 2.82237 17.7143 2.78825 17.2349L1.9665 5.7H0.95C0.698044 5.7 0.456408 5.59991 0.278249 5.42175C0.100089 5.24359 0 5.00196 0 4.75C0 4.49804 0.100089 4.25641 0.278249 4.07825C0.456408 3.90009 0.698044 3.8 0.95 3.8H4.75V1.9ZM6.65 3.8H12.35V1.9H6.65V3.8ZM3.8703 5.7L4.68445 17.1H14.3165L15.1306 5.7H3.8703ZM7.6 7.6C7.85196 7.6 8.09359 7.70009 8.27175 7.87825C8.44991 8.05641 8.55 8.29804 8.55 8.55V14.25C8.55 14.502 8.44991 14.7436 8.27175 14.9218C8.09359 15.0999 7.85196 15.2 7.6 15.2C7.34804 15.2 7.10641 15.0999 6.92825 14.9218C6.75009 14.7436 6.65 14.502 6.65 14.25V8.55C6.65 8.29804 6.75009 8.05641 6.92825 7.87825C7.10641 7.70009 7.34804 7.6 7.6 7.6ZM11.4 7.6C11.652 7.6 11.8936 7.70009 12.0718 7.87825C12.2499 8.05641 12.35 8.29804 12.35 8.55V14.25C12.35 14.502 12.2499 14.7436 12.0718 14.9218C11.8936 15.0999 11.652 15.2 11.4 15.2C11.148 15.2 10.9064 15.0999 10.7282 14.9218C10.5501 14.7436 10.45 14.502 10.45 14.25V8.55C10.45 8.29804 10.5501 8.05641 10.7282 7.87825C10.9064 7.70009 11.148 7.6 11.4 7.6Z" fill="#F21415"/>
</svg>
