<svg width="19" height="19" viewBox="0 0 19 19" fill="none" xmlns="http://www.w3.org/2000/svg">
<path d="M0 19V1.9C0 1.3775 0.1862 0.930367 0.5586 0.5586C0.931 0.186833 1.37813 0.000633333 1.9 0H17.1C17.6225 0 18.0699 0.1862 18.4423 0.5586C18.8147 0.931 19.0006 1.37813 19 1.9V13.3C19 13.8225 18.8141 14.2699 18.4423 14.6423C18.0706 15.0147 17.6231 15.2006 17.1 15.2H3.8L0 19ZM9.5 12.35C9.76917 12.35 9.99495 12.2588 10.1773 12.0764C10.3597 11.894 10.4506 11.6685 10.45 11.4C10.4494 11.1315 10.3582 10.906 10.1764 10.7236C9.99463 10.5412 9.76917 10.45 9.5 10.45C9.23083 10.45 9.00537 10.5412 8.8236 10.7236C8.64183 10.906 8.55063 11.1315 8.55 11.4C8.54937 11.6685 8.64057 11.8943 8.8236 12.0774C9.00663 12.2604 9.2321 12.3513 9.5 12.35ZM8.55 8.55H10.45V2.85H8.55V8.55Z" fill="#888888"/>
</svg>
