<svg width="21" height="14" viewBox="0 0 21 14" fill="none" xmlns="http://www.w3.org/2000/svg">
<path d="M8.16667 12.8333C8.16667 13.4777 8.689 14 9.33333 14H11.6667C12.311 14 12.8333 13.4777 12.8333 12.8333C12.8333 12.189 12.311 11.6667 11.6667 11.6667H9.33333C8.689 11.6667 8.16667 12.189 8.16667 12.8333ZM1.16667 0C0.522334 0 0 0.522335 0 1.16667C0 1.811 0.522334 2.33333 1.16667 2.33333H19.8333C20.4777 2.33333 21 1.811 21 1.16667C21 0.522335 20.4777 0 19.8333 0H1.16667ZM3.5 7C3.5 7.64433 4.02233 8.16667 4.66667 8.16667H16.3333C16.9777 8.16667 17.5 7.64433 17.5 7C17.5 6.35567 16.9777 5.83333 16.3333 5.83333H4.66667C4.02234 5.83333 3.5 6.35567 3.5 7Z" fill="#008CAA"/>
</svg>
