<svg width="17" height="17" viewBox="0 0 17 17" fill="none" xmlns="http://www.w3.org/2000/svg">
<path d="M11.7974 0L11.3674 0.470677C10.4046 1.52921 9.61092 2.0025 8.95027 2.31214C8.28961 2.62113 7.73448 2.71343 7.18918 3.13042C6.60783 3.57557 5.76301 4.4292 5.40712 5.95317C4.64423 6.11945 4.08582 6.41141 3.64539 6.79175C3.21019 7.16751 2.88249 7.59498 2.47876 8.06042C2.47548 8.06565 2.48072 8.07547 2.47876 8.08071C1.89938 8.74581 1.39274 9.46197 0.409631 9.84035L0 10.004V17H12.4941C13.2104 16.9614 13.7072 16.4658 14.0094 15.9768C14.3109 15.4885 14.478 14.9595 14.5625 14.5249C14.7801 13.4172 15.1767 10.2285 15.1767 10.2285L15.1976 10.1677V10.1061C15.1767 9.6636 14.9944 9.28784 14.767 8.93958L15.5044 6.75116L16.6723 4.99153L17 4.52085L16.5694 4.13266L12.2686 0.409142L11.7974 0ZM11.8387 1.80022L15.2586 4.76699L14.3574 6.09588L14.2964 6.15807L14.2755 6.26019L13.6817 8.01918C13.3717 7.89152 13.0525 7.80184 12.6986 7.81493H12.6573L8.52032 7.83523H7.86491V10.3719C7.77315 11.0854 7.37597 11.3617 6.88179 11.5587C6.71794 11.6249 6.69763 11.5889 6.55409 11.6196V7.81559C6.4466 5.38889 7.31174 4.6904 7.98813 4.1739C8.17492 4.03054 8.72218 3.86492 9.50343 3.49898C10.1562 3.19196 10.9676 2.64142 11.8387 1.80022ZM5.28456 7.42608C5.28194 7.57469 5.23541 7.67943 5.24327 7.83523V13.0722H5.89868C5.89868 13.0722 6.59997 13.0644 7.35303 12.7652C8.1061 12.4661 9.0145 11.7656 9.17573 10.5356V9.14448L12.6986 9.12419H12.7189C13.0067 9.1081 13.2891 9.20675 13.5041 9.39846C13.7192 9.59017 13.8493 9.85929 13.8658 10.1467C13.8632 10.1572 13.8331 10.4001 13.8252 10.4537H11.142V11.763H13.6613C13.5919 12.269 13.5283 12.5865 13.4562 13.0722H11.142V14.3815H13.2517C13.1743 14.6982 13.0499 15.0016 12.8827 15.2816C12.7038 15.5729 12.5498 15.6829 12.4121 15.6907H1.31082V10.8013C2.37324 10.2384 3.03389 9.42859 3.46122 8.94024C3.90427 8.43355 4.20838 8.04994 4.50594 7.79464C4.70059 7.62836 5.00536 7.53344 5.28456 7.42608Z" fill="#848183" fill-opacity="0.75"/>
<path d="M15.1767 10.2285L14.6805 10.1669L14.6805 10.167L14.6804 10.1674L14.6802 10.1691L14.6794 10.1758L14.676 10.2025L14.6631 10.3052C14.6519 10.3942 14.6356 10.5227 14.6154 10.6805C14.5749 10.996 14.5187 11.428 14.4557 11.8944C14.3289 12.8337 14.1773 13.8921 14.0719 14.4285L14.0717 14.4294C13.9954 14.8217 13.8458 15.2899 13.584 15.714L15.1767 10.2285ZM15.1767 10.2285L14.6805 10.1668L14.6869 10.115L14.6957 10.0897M15.1767 10.2285L14.6957 10.0897M9.16246 2.76488L9.16209 2.76505C8.91137 2.88231 8.66127 2.97581 8.44494 3.05667C8.36065 3.08818 8.28148 3.11778 8.2094 3.14611C7.93826 3.25271 7.71219 3.35992 7.49291 3.5276C6.97532 3.92398 6.21645 4.68619 5.89402 6.06688L5.8222 6.37445L5.5136 6.44171C4.82529 6.59172 4.34438 6.84876 3.97218 7.17018L3.97215 7.1702C3.66713 7.43356 3.42698 7.71716 3.13925 8.05694C3.07222 8.13608 3.00262 8.21828 2.92901 8.30398L2.9151 8.34102L2.85577 8.40913C2.78565 8.48963 2.71459 8.57382 2.64156 8.66034C2.15102 9.24152 1.57169 9.92789 0.592288 10.3058L0.5 10.3427V16.5H12.4793C12.9519 16.4693 13.3217 16.1385 13.5839 15.7142L9.16246 2.76488ZM9.16246 2.76488C9.87587 2.43052 10.7251 1.91988 11.7369 0.807519C11.737 0.807382 11.7372 0.807245 11.7373 0.807108L11.8377 0.697187L11.9408 0.786695L11.9413 0.787153L16.2383 4.50739L16.3377 4.597L16.262 4.70583L16.2619 4.70576L16.2557 4.71502L15.0878 6.47466L15.0515 6.52933L15.0305 6.59152L14.2932 8.77994L14.2157 9.00984L14.3484 9.21297C14.5459 9.51542 14.6722 9.79124 14.6957 10.0897M9.16246 2.76488L14.6957 10.0897M12.1663 1.42253L11.8206 1.1226L11.4913 1.44056C10.6513 2.25181 9.8843 2.76726 9.29094 3.04638C8.94539 3.20822 8.64778 3.32928 8.40013 3.43003C8.37773 3.43914 8.35574 3.44808 8.33416 3.45688C8.20657 3.50887 8.08603 3.55853 7.98444 3.60538C7.88929 3.64926 7.77779 3.70525 7.68467 3.77651C7.33908 4.04041 6.87703 4.39932 6.53532 5.04436C6.19553 5.68579 5.99932 6.55901 6.05409 7.82652V11.6196V12.2382L6.65889 12.1085C6.67449 12.1052 6.67469 12.1052 6.68825 12.1046C6.69772 12.1042 6.71369 12.1035 6.74597 12.1012C6.7868 12.0982 6.83668 12.0925 6.89627 12.0785C6.95291 12.0652 7.00889 12.0465 7.06698 12.0232C7.34051 11.9141 7.64204 11.7628 7.88795 11.5021C8.1429 11.2319 8.30345 10.8818 8.36082 10.4357L8.36491 10.4039V10.3719V8.33523L8.52032 8.33523L8.52277 8.33522L12.6573 8.31493H12.6585H12.6986H12.7078L12.717 8.31459C12.9719 8.30516 13.216 8.36815 13.4913 8.48151L13.9847 8.6847L14.1554 8.1791L14.7492 6.42012L14.7567 6.39792L14.7712 6.37651L15.6724 5.04762L15.9216 4.68021L15.5862 4.3893L12.1663 1.42253ZM5.78449 7.4349L5.79757 6.69314L5.10511 6.9594C5.07034 6.97277 5.03035 6.98765 4.98748 7.00359C4.88635 7.04121 4.76923 7.08478 4.66688 7.12857C4.5152 7.19346 4.33579 7.2824 4.18119 7.41446L4.18035 7.41517C3.92345 7.6356 3.65902 7.94385 3.36147 8.29072C3.27248 8.39445 3.18053 8.50165 3.08493 8.61098C3.05597 8.64408 3.02628 8.67821 2.9958 8.71325C2.56617 9.20721 1.98041 9.88066 1.0767 10.3595L0.810818 10.5004V10.8013V15.6907V16.1907H1.31082H12.4121H12.4264L12.4406 16.1899C12.8403 16.1671 13.114 15.8605 13.3088 15.5433L13.3088 15.5433L13.312 15.5379C13.5048 15.2151 13.6481 14.8654 13.7374 14.5002L13.8887 13.8815H13.2517H11.642V13.5722H13.4562H13.8875L13.9508 13.1456C13.9787 12.9575 14.0077 12.7815 14.0371 12.6037C14.0771 12.3613 14.1176 12.1156 14.1567 11.831L14.2347 11.263H13.6613H11.642V10.9537H13.8252H14.2573L14.3199 10.5262C14.3243 10.4966 14.3332 10.4269 14.3411 10.3656L14.3434 10.3479L14.3552 10.2571L14.357 10.2437L14.3694 10.1941L14.365 10.1179C14.3408 9.69808 14.1508 9.3051 13.8369 9.02524C13.5268 8.74879 13.1208 8.605 12.7062 8.62419L12.6986 8.62418L12.6957 8.6242L9.17285 8.64449L8.67573 8.64735V9.14448V10.5013C8.53535 11.4701 7.81469 12.0438 7.16844 12.3005C6.83799 12.4318 6.51441 12.5006 6.27119 12.5362C6.15048 12.5538 6.0519 12.5629 5.98521 12.5676C5.95192 12.5699 5.92675 12.5711 5.91095 12.5717L5.89447 12.5722L5.894 12.5722H5.74327V7.83523V7.82261L5.74264 7.81002C5.7416 7.7894 5.74314 7.76896 5.75284 7.71219C5.75375 7.70688 5.75479 7.70098 5.75592 7.69453C5.76569 7.639 5.78258 7.54301 5.78449 7.4349Z" stroke="#848183" stroke-opacity="0.75"/>
</svg>
