<svg width="70" height="70" viewBox="0 0 70 70" fill="none" xmlns="http://www.w3.org/2000/svg">
<g clip-path="url(#clip0_133_318)">
<path d="M21.4367 27.0869C22.1074 27.5737 22.9441 27.7741 23.7626 27.644C24.5812 27.514 25.3145 27.0641 25.8013 26.3933C26.2881 25.7225 26.4885 24.8859 26.3585 24.0673C26.2284 23.2488 25.7785 22.5155 25.1077 22.0286C24.437 21.5418 23.6003 21.3414 22.7818 21.4715C21.9632 21.6016 21.2299 22.0515 20.7431 22.7222C20.2563 23.393 20.0559 24.2297 20.1859 25.0482C20.316 25.8667 20.7659 26.6001 21.4367 27.0869Z" fill="#16B2D9"/>
<path fill-rule="evenodd" clip-rule="evenodd" d="M35.3257 15.93C39.2711 18.7934 41.3039 23.3346 41.1388 27.8715L54.442 37.5264C54.8397 37.8148 55.1637 38.1929 55.3879 38.63C55.6121 39.0671 55.7301 39.5509 55.7323 40.0421L55.7562 47.9364C55.7619 48.5679 55.5742 49.186 55.2184 49.7078C54.8625 50.2295 54.3555 50.6298 53.7655 50.8549L46.9995 53.4739C46.6087 53.6255 46.1913 53.6967 45.7723 53.6832C45.3533 53.6697 44.9413 53.5718 44.5611 53.3953C44.1808 53.2189 43.8401 52.9675 43.5593 52.6562C43.2785 52.345 43.0634 51.9802 42.9268 51.5839L41.496 47.4371L36.9958 47.3064C36.3659 47.2892 35.7559 47.0819 35.2458 46.7117C34.7358 46.3416 34.3496 45.8258 34.1379 45.2323L32.6187 40.9943L31.9662 40.5208C27.7017 42.0979 22.7817 41.5776 18.811 38.6958C15.7925 36.5051 13.7679 33.2051 13.1826 29.5217C12.5973 25.8383 13.4992 22.0733 15.6898 19.0548C17.8805 16.0364 21.1805 14.0118 24.8639 13.4265C28.5473 12.8412 32.3123 13.743 35.3307 15.9337L35.3257 15.93ZM33.7967 37.988C33.3809 37.6857 32.897 37.4907 32.3877 37.4201C31.8785 37.3496 31.3598 37.4058 30.8775 37.5838C29.1902 38.2102 27.3743 38.4105 25.591 38.167C23.8076 37.9235 22.112 37.2437 20.6543 36.1878C15.7731 32.6452 14.6842 25.7927 18.2268 20.9115C21.7693 16.0303 28.6218 14.9414 33.503 18.4839C36.5633 20.7049 38.1388 24.2269 37.9994 27.7708C37.9613 28.8127 38.4439 29.8078 39.2886 30.4209L52.5918 40.0758L52.6157 47.9701L45.8497 50.5891L44.4188 46.4423C44.2113 45.8404 43.8248 45.3163 43.3112 44.9401C42.7975 44.5639 42.1813 44.3535 41.5448 44.3372L37.0447 44.2065L35.5255 39.9686C35.3135 39.374 34.9265 38.8574 34.4152 38.4871L33.7627 38.0135L33.7967 37.988Z" fill="#16B2D9"/>
</g>
<defs>
<clipPath id="clip0_133_318">
<rect width="50" height="50" fill="white" transform="translate(29.4513 0.0827637) rotate(35.9706)"/>
</clipPath>
</defs>
</svg>
