<svg width="201" height="201" viewBox="0 0 201 201" fill="none" xmlns="http://www.w3.org/2000/svg">
<path d="M100.902 23.1111C101.543 23.4063 102.139 23.7922 102.671 24.2568C103.182 24.6941 103.611 25.2197 103.937 25.8085C104.249 26.3729 104.434 26.9984 104.48 27.6416C104.521 28.3285 104.382 29.0142 104.078 29.6315C103.86 30.1279 103.546 30.576 103.153 30.9501C102.804 31.2729 102.41 31.5437 101.983 31.7541C101.569 31.9537 101.137 32.1152 100.693 32.2365L99.4428 32.5862C99.0657 32.6872 98.6984 32.8217 98.3453 32.9882C98.0303 33.1353 97.7629 33.3679 97.5735 33.6595C97.4812 33.7939 97.3531 33.8998 97.2037 33.9651C97.1341 33.9988 97.0579 34.0164 96.9806 34.0164C96.9033 34.0164 96.827 33.9988 96.7574 33.9651L95.1856 33.2374C95.0342 33.1665 94.916 33.0398 94.856 32.8837C94.8236 32.8099 94.8092 32.7295 94.8141 32.6491C94.819 32.5687 94.843 32.4906 94.8841 32.4214C95.1263 31.9378 95.4657 31.5094 95.8811 31.1631C96.2546 30.8539 96.6684 30.597 97.1112 30.3993C97.5357 30.2097 97.9754 30.0564 98.4257 29.941C98.872 29.8285 99.29 29.7159 99.676 29.6034C100.029 29.5072 100.37 29.3724 100.693 29.2014C100.974 29.0532 101.198 28.8175 101.332 28.53C101.454 28.2771 101.511 27.9983 101.5 27.718C101.489 27.4377 101.409 27.1644 101.268 26.922C100.921 26.3246 100.385 25.8594 99.7443 25.5994C98.5705 25.0634 97.4368 25.251 96.3434 26.1622C96.2348 26.2651 96.108 26.3469 95.9695 26.4034C95.822 26.4403 95.6659 26.4171 95.5354 26.3391L93.859 25.5673C93.7994 25.5415 93.7456 25.504 93.7007 25.457C93.6558 25.4101 93.6208 25.3546 93.5977 25.2939C93.568 25.2311 93.5526 25.1624 93.5526 25.0929C93.5526 25.0234 93.568 24.9548 93.5977 24.8919C93.865 24.3827 94.2528 23.9466 94.7273 23.6216C95.2618 23.2378 95.861 22.9532 96.4961 22.7814C97.1925 22.593 97.9143 22.5157 98.6348 22.5523C99.42 22.5874 100.19 22.7773 100.902 23.1111ZM96.3112 35.2394C96.3848 35.273 96.4506 35.3214 96.5045 35.3815C96.5585 35.4417 96.5994 35.5124 96.6248 35.5891C96.6576 35.6625 96.6746 35.7419 96.6746 35.8223C96.6746 35.9027 96.6576 35.9821 96.6248 36.0555L95.7846 37.8765C95.7156 38.021 95.5933 38.1331 95.4434 38.1893C95.2935 38.2455 95.1276 38.2415 94.9806 38.178L93.1997 37.374C93.0567 37.3035 92.9461 37.1809 92.8908 37.0313C92.8354 36.8817 92.8395 36.7166 92.9023 36.57L93.7424 34.749C93.8114 34.6045 93.934 34.4926 94.0841 34.4371C94.2342 34.3815 94.4001 34.3867 94.5464 34.4515L96.3112 35.2394Z" fill="#386DA7"/>
<path d="M100.259 44.622C100.719 44.781 101.154 45.0058 101.549 45.2893C101.93 45.5555 102.259 45.8877 102.522 46.2702C102.771 46.6325 102.939 47.0436 103.017 47.4762C103.074 47.8961 103.042 48.3232 102.924 48.7302C102.807 49.1373 102.605 49.5153 102.333 49.84C102.115 50.081 101.863 50.2895 101.586 50.4591C101.313 50.6184 101.026 50.753 100.729 50.8611L99.8931 51.1827C99.6413 51.2791 99.399 51.3989 99.1695 51.5404C98.962 51.6608 98.7932 51.8379 98.6831 52.051C98.6279 52.1495 98.5474 52.2314 98.4499 52.2882C98.403 52.3139 98.3511 52.3293 98.2977 52.3335C98.2444 52.3376 98.1907 52.3304 98.1404 52.3123L97.0107 51.9103C96.9031 51.8701 96.8142 51.7913 96.7615 51.6892C96.7358 51.6395 96.7223 51.5843 96.7223 51.5284C96.7223 51.4724 96.7358 51.4173 96.7615 51.3676C96.8981 51.0207 97.1031 50.7048 97.3645 50.439C97.605 50.2026 97.8753 49.9985 98.1685 49.8319C98.4492 49.6743 98.7423 49.5398 99.0449 49.4299C99.3423 49.3214 99.6197 49.2169 99.881 49.1124C100.117 49.0226 100.342 48.9066 100.552 48.7666C100.738 48.646 100.879 48.4682 100.954 48.2601C101.018 48.0789 101.037 47.8851 101.01 47.6949C100.984 47.5047 100.912 47.3236 100.802 47.1667C100.524 46.7797 100.125 46.4967 99.668 46.3627C99.2683 46.2163 98.8333 46.1964 98.4219 46.3057C98.0106 46.4151 97.6428 46.6483 97.3685 46.9737C97.2994 47.051 97.2179 47.1162 97.1273 47.1667C97.0306 47.2058 96.9225 47.2058 96.8258 47.1667L95.6198 46.7647C95.5765 46.7507 95.5364 46.7282 95.5019 46.6985C95.4674 46.6688 95.4391 46.6326 95.4188 46.5918C95.3988 46.5497 95.3884 46.5037 95.3884 46.4571C95.3884 46.4106 95.3988 46.3645 95.4188 46.3225C95.561 45.9623 95.787 45.6412 96.0781 45.3858C96.4202 45.0858 96.8138 44.8502 97.2399 44.6904C97.7057 44.5127 98.197 44.4109 98.6951 44.3889C99.2265 44.3652 99.7575 44.4444 100.259 44.622ZM97.9032 53.261C98.0091 53.2987 98.0958 53.3767 98.1444 53.4781C98.1703 53.5279 98.1855 53.5827 98.1889 53.6388C98.1924 53.6948 98.1841 53.751 98.1645 53.8037L97.7062 55.1102C97.6888 55.1633 97.6605 55.2121 97.6231 55.2537C97.5857 55.2952 97.5401 55.3285 97.4891 55.3514C97.3873 55.4002 97.2705 55.4074 97.1635 55.3715L95.8892 54.9213C95.8364 54.9043 95.7878 54.8766 95.7463 54.8399C95.7048 54.8032 95.6713 54.7584 95.648 54.7082C95.622 54.6583 95.6069 54.6036 95.6034 54.5475C95.5999 54.4914 95.6083 54.4352 95.6279 54.3826L96.0781 53.064C96.0955 53.0109 96.1238 52.9621 96.1612 52.9205C96.1986 52.879 96.2442 52.8457 96.2952 52.8228C96.3445 52.7975 96.3985 52.7826 96.4539 52.7791C96.5092 52.7757 96.5647 52.7837 96.6168 52.8027L97.9032 53.261Z" fill="#386DA7"/>
<g opacity="0.2">
<path d="M100.259 44.622C100.719 44.781 101.154 45.0058 101.549 45.2893C101.93 45.5555 102.259 45.8877 102.522 46.2702C102.771 46.6325 102.939 47.0436 103.017 47.4762C103.074 47.8961 103.042 48.3232 102.924 48.7302C102.807 49.1373 102.605 49.5153 102.333 49.84C102.115 50.081 101.863 50.2895 101.586 50.4591C101.313 50.6184 101.026 50.753 100.729 50.8611L99.8931 51.1827C99.6413 51.2791 99.399 51.3989 99.1695 51.5404C98.962 51.6608 98.7932 51.8379 98.6831 52.051C98.6279 52.1495 98.5474 52.2314 98.4499 52.2882C98.403 52.3139 98.3511 52.3293 98.2977 52.3335C98.2444 52.3376 98.1907 52.3304 98.1404 52.3123L97.0107 51.9103C96.9031 51.8701 96.8142 51.7913 96.7615 51.6892C96.7358 51.6395 96.7223 51.5843 96.7223 51.5284C96.7223 51.4724 96.7358 51.4173 96.7615 51.3676C96.8981 51.0207 97.1031 50.7048 97.3645 50.439C97.605 50.2026 97.8753 49.9985 98.1685 49.8319C98.4492 49.6743 98.7423 49.5398 99.0449 49.4299C99.3423 49.3214 99.6197 49.2169 99.881 49.1124C100.117 49.0226 100.342 48.9066 100.552 48.7666C100.738 48.646 100.879 48.4682 100.954 48.2601C101.018 48.0789 101.037 47.8851 101.01 47.6949C100.984 47.5047 100.912 47.3236 100.802 47.1667C100.524 46.7797 100.125 46.4967 99.668 46.3627C99.2683 46.2163 98.8333 46.1964 98.4219 46.3057C98.0106 46.4151 97.6428 46.6483 97.3685 46.9737C97.2994 47.051 97.2179 47.1162 97.1273 47.1667C97.0306 47.2058 96.9225 47.2058 96.8258 47.1667L95.6198 46.7647C95.5765 46.7507 95.5364 46.7282 95.5019 46.6985C95.4674 46.6688 95.4391 46.6326 95.4188 46.5918C95.3988 46.5497 95.3884 46.5037 95.3884 46.4571C95.3884 46.4106 95.3988 46.3645 95.4188 46.3225C95.561 45.9623 95.787 45.6412 96.0781 45.3858C96.4202 45.0858 96.8138 44.8502 97.2399 44.6904C97.7057 44.5127 98.197 44.4109 98.6951 44.3889C99.2265 44.3652 99.7575 44.4444 100.259 44.622ZM97.9032 53.261C98.0091 53.2987 98.0958 53.3767 98.1444 53.4781C98.1703 53.5279 98.1855 53.5827 98.1889 53.6388C98.1924 53.6948 98.1841 53.751 98.1645 53.8037L97.7062 55.1102C97.6888 55.1633 97.6605 55.2121 97.6231 55.2537C97.5857 55.2952 97.5401 55.3285 97.4891 55.3514C97.3873 55.4002 97.2705 55.4074 97.1635 55.3715L95.8892 54.9213C95.8364 54.9043 95.7878 54.8766 95.7463 54.8399C95.7048 54.8032 95.6713 54.7584 95.648 54.7082C95.622 54.6583 95.6069 54.6036 95.6034 54.5475C95.5999 54.4914 95.6083 54.4352 95.6279 54.3826L96.0781 53.064C96.0955 53.0109 96.1238 52.9621 96.1612 52.9205C96.1986 52.879 96.2442 52.8457 96.2952 52.8228C96.3445 52.7975 96.3985 52.7826 96.4539 52.7791C96.5092 52.7757 96.5647 52.7837 96.6168 52.8027L97.9032 53.261Z" fill="black"/>
</g>
<path d="M115.085 46.2301C115.151 46.2348 115.215 46.2529 115.274 46.2833C115.332 46.3137 115.384 46.3558 115.426 46.407C115.471 46.4563 115.504 46.5142 115.525 46.5772C115.546 46.6402 115.553 46.7068 115.547 46.7728L115.422 48.4049C115.419 48.4712 115.402 48.5361 115.371 48.595C115.341 48.654 115.298 48.7057 115.245 48.7466C115.197 48.791 115.14 48.8249 115.077 48.8463C115.015 48.8678 114.949 48.8762 114.884 48.8712L113.276 48.7466C113.143 48.7363 113.02 48.6739 112.933 48.5729C112.846 48.4719 112.803 48.3406 112.813 48.2079L112.938 46.5718C112.943 46.5058 112.961 46.4415 112.991 46.3827C113.022 46.324 113.064 46.272 113.115 46.2301C113.164 46.1863 113.221 46.1529 113.283 46.1322C113.345 46.1114 113.411 46.1037 113.477 46.1095L115.085 46.2301ZM115.145 35.6213C115.72 35.6626 116.286 35.7872 116.825 35.9912C117.343 36.1804 117.822 36.4609 118.24 36.8193C118.64 37.1632 118.961 37.5897 119.181 38.0695C119.412 38.582 119.505 39.1461 119.45 39.7056C119.427 40.1482 119.315 40.5815 119.121 40.98C118.945 41.3238 118.718 41.6395 118.449 41.9166C118.19 42.1886 117.906 42.4362 117.601 42.6563L116.737 43.2834C116.478 43.4702 116.238 43.6802 116.017 43.9106C115.818 44.1143 115.679 44.3688 115.615 44.6462C115.582 44.775 115.515 44.8929 115.422 44.9879C115.378 45.034 115.324 45.0689 115.264 45.0899C115.204 45.1108 115.14 45.1172 115.077 45.1085L113.666 45C113.53 44.9907 113.403 44.9287 113.312 44.8271C113.264 44.7803 113.229 44.7223 113.209 44.6585C113.189 44.5946 113.186 44.5268 113.199 44.4613C113.247 44.0217 113.384 43.5964 113.601 43.2111C113.799 42.869 114.043 42.5553 114.325 42.2784C114.596 42.0106 114.891 41.7671 115.205 41.5508C115.511 41.3378 115.8 41.1488 116.061 40.9317C116.304 40.7556 116.526 40.5534 116.725 40.3287C116.896 40.1348 117 39.891 117.022 39.6333C117.042 39.4062 117.006 39.1778 116.918 38.9676C116.83 38.7575 116.692 38.572 116.516 38.4273C116.08 38.0677 115.537 37.8627 114.972 37.8444C113.919 37.764 113.103 38.2464 112.528 39.2474C112.473 39.3567 112.399 39.456 112.311 39.5408C112.206 39.6093 112.08 39.6366 111.957 39.6172L110.454 39.5006C110.4 39.4983 110.348 39.4854 110.299 39.4626C110.251 39.4398 110.208 39.4077 110.172 39.368C110.136 39.3264 110.109 39.2778 110.092 39.2252C110.076 39.1727 110.07 39.1173 110.076 39.0624C110.133 38.5954 110.304 38.1496 110.574 37.764C110.876 37.3181 111.255 36.9289 111.692 36.6143C112.169 36.264 112.7 35.9925 113.264 35.8103C113.872 35.6237 114.511 35.5581 115.145 35.6173V35.6213Z" fill="#386DA7"/>
<g opacity="0.3">
<path d="M115.085 46.2301C115.151 46.2348 115.215 46.2529 115.274 46.2833C115.332 46.3137 115.384 46.3558 115.426 46.407C115.471 46.4563 115.504 46.5142 115.525 46.5772C115.546 46.6402 115.553 46.7068 115.547 46.7728L115.422 48.4049C115.419 48.4712 115.402 48.5361 115.371 48.595C115.341 48.654 115.298 48.7057 115.245 48.7466C115.197 48.791 115.14 48.8249 115.077 48.8463C115.015 48.8678 114.949 48.8762 114.884 48.8712L113.276 48.7466C113.143 48.7363 113.02 48.6739 112.933 48.5729C112.846 48.4719 112.803 48.3406 112.813 48.2079L112.938 46.5718C112.943 46.5058 112.961 46.4415 112.991 46.3827C113.022 46.324 113.064 46.272 113.115 46.2301C113.164 46.1863 113.221 46.1529 113.283 46.1322C113.345 46.1114 113.411 46.1037 113.477 46.1095L115.085 46.2301ZM115.145 35.6213C115.72 35.6626 116.286 35.7872 116.825 35.9912C117.343 36.1804 117.822 36.4609 118.24 36.8193C118.64 37.1632 118.961 37.5897 119.181 38.0695C119.412 38.582 119.505 39.1461 119.45 39.7056C119.427 40.1482 119.315 40.5815 119.121 40.98C118.945 41.3238 118.718 41.6395 118.449 41.9166C118.19 42.1886 117.906 42.4362 117.601 42.6563L116.737 43.2834C116.478 43.4702 116.238 43.6802 116.017 43.9106C115.818 44.1143 115.679 44.3688 115.615 44.6462C115.582 44.775 115.515 44.8929 115.422 44.9879C115.378 45.034 115.324 45.0689 115.264 45.0899C115.204 45.1108 115.14 45.1172 115.077 45.1085L113.666 45C113.53 44.9907 113.403 44.9287 113.312 44.8271C113.264 44.7803 113.229 44.7223 113.209 44.6585C113.189 44.5946 113.186 44.5268 113.199 44.4613C113.247 44.0217 113.384 43.5964 113.601 43.2111C113.799 42.869 114.043 42.5553 114.325 42.2784C114.596 42.0106 114.891 41.7671 115.205 41.5508C115.511 41.3378 115.8 41.1488 116.061 40.9317C116.304 40.7556 116.526 40.5534 116.725 40.3287C116.896 40.1348 117 39.891 117.022 39.6333C117.042 39.4062 117.006 39.1778 116.918 38.9676C116.83 38.7575 116.692 38.572 116.516 38.4273C116.08 38.0677 115.537 37.8627 114.972 37.8444C113.919 37.764 113.103 38.2464 112.528 39.2474C112.473 39.3567 112.399 39.456 112.311 39.5408C112.206 39.6093 112.08 39.6366 111.957 39.6172L110.454 39.5006C110.4 39.4983 110.348 39.4854 110.299 39.4626C110.251 39.4398 110.208 39.4077 110.172 39.368C110.136 39.3264 110.109 39.2778 110.092 39.2252C110.076 39.1727 110.07 39.1173 110.076 39.0624C110.133 38.5954 110.304 38.1496 110.574 37.764C110.876 37.3181 111.255 36.9289 111.692 36.6143C112.169 36.264 112.7 35.9925 113.264 35.8103C113.872 35.6237 114.511 35.5581 115.145 35.6173V35.6213Z" fill="white"/>
</g>
<path d="M117.384 118.839C117.612 120.2 117.419 121.598 116.831 122.846C116.244 124.095 115.29 125.134 114.096 125.826L75.5762 145.926L75.4636 148.149L73.6868 149.142L75.95 150.445L118.562 125.782L117.384 118.839Z" fill="#386DA7"/>
<path d="M77.9037 65.3853L68.0547 71.0695L110.056 97.6257C111.384 98.4672 112.52 99.579 113.39 100.889C114.26 102.199 114.844 103.677 115.105 105.227L121.223 144.833C121.241 144.942 121.286 145.044 121.353 145.133C121.419 145.221 121.506 145.291 121.606 145.338C121.706 145.385 121.816 145.407 121.927 145.403C122.037 145.398 122.145 145.366 122.24 145.311C122.469 145.182 122.602 144.909 122.522 143.964L119.024 101.879C118.827 99.503 117.312 96.6528 114.892 94.7473L77.9037 65.3853Z" fill="#386DA7"/>
<path opacity="0.1" d="M77.9037 65.3853L68.0547 71.0695L110.056 97.6257C111.384 98.4672 112.52 99.579 113.39 100.889C114.26 102.199 114.844 103.677 115.105 105.227L121.223 144.833C121.241 144.942 121.286 145.044 121.353 145.133C121.419 145.221 121.506 145.291 121.606 145.338C121.706 145.385 121.816 145.407 121.927 145.403C122.037 145.398 122.145 145.366 122.24 145.311C122.469 145.182 122.602 144.909 122.522 143.964L119.024 101.879C118.827 99.503 117.312 96.6528 114.892 94.7473L77.9037 65.3853Z" fill="black"/>
<path d="M117.786 121.239C118.008 122.57 117.819 123.937 117.244 125.158C116.67 126.379 115.737 127.396 114.57 128.073L78.6111 148.853L80.5286 152.82L115.261 132.765C115.719 132.502 116.233 132.355 116.76 132.335C117.287 132.315 117.811 132.423 118.288 132.65C118.764 132.877 119.178 133.216 119.494 133.638C119.811 134.059 120.021 134.552 120.106 135.072L117.786 121.239Z" fill="#386DA7"/>
<path opacity="0.1" d="M117.786 121.239C118.008 122.57 117.819 123.937 117.244 125.158C116.67 126.379 115.737 127.396 114.57 128.073L78.6111 148.853L80.5286 152.82L115.261 132.765C115.719 132.502 116.233 132.355 116.76 132.335C117.287 132.315 117.811 132.423 118.288 132.65C118.764 132.877 119.178 133.216 119.494 133.638C119.811 134.059 120.021 134.552 120.106 135.072L117.786 121.239Z" fill="black"/>
<path d="M73.0715 148.873L72.5851 145.978L36.2684 125.022L40.6904 122.477L38.4875 121.207L36.8393 122.16C36.2387 122.512 35.5417 122.666 34.8486 122.597C34.1554 122.529 33.5018 122.242 32.9818 121.779C32.4617 121.316 32.102 120.699 31.9543 120.019C31.8067 119.338 31.8787 118.628 32.16 117.991L32.3128 117.637L32.0716 118.192L28.7832 125.77L31.6414 127.679L34.0534 126.284L73.0715 148.873Z" fill="#386DA7"/>
<path d="M73.5421 146.529L36.4134 125.074C35.7287 124.629 35.1592 124.027 34.7512 123.32C34.3432 122.612 34.1083 121.818 34.0657 121.002V118.815C34.1089 118.001 34.3441 117.208 34.7521 116.502C35.1601 115.795 35.7294 115.195 36.4134 114.751L73.5421 93.3123C74.269 92.9436 75.0726 92.7515 75.8877 92.7515C76.7028 92.7515 77.5065 92.9436 78.2334 93.3123L115.374 114.759C116.057 115.204 116.625 115.804 117.032 116.511C117.44 117.217 117.674 118.009 117.718 118.823V121.038C117.674 121.852 117.439 122.644 117.031 123.35C116.624 124.056 116.057 124.657 115.374 125.102L78.2415 146.529C77.5135 146.899 76.7084 147.092 75.8918 147.092C75.0751 147.092 74.2701 146.899 73.5421 146.529Z" fill="#455A64"/>
<path d="M74.2294 146.827C73.9908 146.749 73.7606 146.648 73.542 146.525L36.4132 125.074C35.7298 124.628 35.1614 124.026 34.7542 123.319C34.3469 122.611 34.1124 121.817 34.0696 121.002V118.811C34.1114 118.089 34.3019 117.383 34.629 116.738C34.9562 116.092 35.4131 115.521 35.971 115.061C35.1389 115.808 35.2876 116.805 36.4132 117.473L73.3651 138.811L74.2294 146.827Z" fill="#263238"/>
<path d="M117.71 118.819V121.038C117.668 121.852 117.434 122.644 117.029 123.35C116.623 124.056 116.056 124.657 115.374 125.102L78.2454 146.529C77.6281 146.842 76.9549 147.029 76.2648 147.079C75.5747 147.129 74.8815 147.042 74.2254 146.823L73.3611 138.783L73.538 138.883C74.2643 139.254 75.0682 139.447 75.8836 139.447C76.6991 139.447 77.5029 139.254 78.2293 138.883L115.374 117.464C116.508 116.817 116.652 115.812 115.816 115.052C116.375 115.515 116.832 116.089 117.158 116.737C117.484 117.386 117.672 118.095 117.71 118.819Z" fill="#37474F"/>
<path d="M86.7518 100.942L49.619 122.381C48.7756 122.828 47.8193 123.017 46.8693 122.924C46.7286 122.924 46.592 122.899 46.4673 122.879H46.3829L46.1377 122.835H46.1056C45.9817 122.811 45.8596 122.778 45.7397 122.739C45.4587 122.66 45.1886 122.547 44.9357 122.401L43.0142 121.279C41.595 120.35 40.5875 118.911 40.2002 117.259L34.5722 85.7426C34.5398 85.5486 34.5237 85.3523 34.5239 85.1557C34.5239 85.0793 34.5239 85.0029 34.5239 84.9265C34.5559 84.5319 34.6425 84.1436 34.7812 83.7728C35.0284 83.0884 35.4496 82.4801 36.0033 82.008L36.1641 81.8874C36.2441 81.8292 36.3273 81.7755 36.4133 81.7266L73.5421 60.2879C74.2699 59.9223 75.0732 59.7319 75.8877 59.7319C76.7023 59.7319 77.5055 59.9223 78.2334 60.2879L80.1429 61.3934C80.5603 61.6448 80.9405 61.9533 81.2725 62.31L81.4615 62.519C81.7141 62.8081 81.9426 63.1173 82.1448 63.4436C82.1928 63.5109 82.2371 63.5806 82.2775 63.6527L82.382 63.8416L82.5267 64.119C82.571 64.2115 82.6152 64.3039 82.6514 64.3964C82.6876 64.4888 82.7157 64.5532 82.7438 64.6295C82.762 64.6656 82.7768 64.7033 82.7881 64.7421C82.8122 64.8104 82.8323 64.8788 82.8524 64.9471C82.8725 65.0155 82.9046 65.128 82.9247 65.2165C82.9429 65.2813 82.9576 65.3471 82.969 65.4134L88.6171 96.9383C88.7182 97.7139 88.5965 98.5023 88.2662 99.2113C87.9359 99.9203 87.4106 100.521 86.7518 100.942Z" fill="#455A64"/>
<path d="M41.1488 89.5496L46.7768 121.07C47.0381 122.542 48.3044 123.133 49.5908 122.381L86.7195 100.946C87.3812 100.523 87.9085 99.9206 88.2396 99.2085C88.5707 98.4965 88.6918 97.7048 88.5888 96.9264L82.9407 65.4096C82.6794 63.9342 81.4131 63.3473 80.1267 64.095L43.0141 85.5296C42.3529 85.9527 41.8261 86.5558 41.4957 87.2678C41.1653 87.9799 41.0449 88.7715 41.1488 89.5496Z" fill="#37474F"/>
<path d="M48.6623 122.763C48.077 122.912 47.4717 122.966 46.8693 122.924C46.7286 122.924 46.592 122.9 46.4673 122.88C46.3427 122.859 46.2503 122.847 46.1377 122.823H46.1056C45.9817 122.799 45.8596 122.766 45.7397 122.727C45.4587 122.648 45.1886 122.535 44.9357 122.389L43.0142 121.28C41.595 120.35 40.5875 118.911 40.2002 117.26L34.5722 85.7427C34.5398 85.5488 34.5237 85.3525 34.5239 85.1558C34.5239 85.0795 34.5239 85.0031 34.5239 84.9267C34.5559 84.5321 34.6425 84.1438 34.7812 83.7729L41.4062 87.5357C41.1434 88.171 41.0613 88.8666 41.169 89.5457L46.797 121.066C46.99 122.164 47.7417 122.775 48.6542 122.699C48.6543 122.72 48.6571 122.742 48.6623 122.763Z" fill="#263238"/>
<path d="M105.983 142.248C105.983 142.248 101.726 151.389 101.356 155.059C100.954 158.882 99.9816 160.105 100.428 164.305C100.528 165.222 100.914 167.063 100.999 167.807C101.075 168.47 100.802 168.985 99.9494 169.117C98.2691 169.383 95.6561 166.126 94.5063 162.661C93.3566 159.196 91.8652 151.441 91.7928 150.517C91.774 149.589 92 148.672 92.4481 147.86C92.6814 147.382 92.9601 146.929 93.2802 146.505C93.9114 144.865 94.3295 141.705 94.8882 139.534L105.983 142.248Z" fill="#F28F8F"/>
<path d="M88.3719 153.854C88.1339 154.233 87.9626 154.65 87.8654 155.088C87.789 155.851 89.393 158.452 90.0282 159.401C90.6633 160.35 91.2663 161.532 91.0653 163.823C90.8442 166.267 91.8131 168.675 93.2964 170.77C94.7798 172.864 97.4129 175.192 101.393 176.643C105.373 178.094 106.888 176.128 106.888 176.128C106.888 176.128 108.235 174.239 107.523 173.407C106.812 172.575 88.3719 153.854 88.3719 153.854Z" fill="#263238"/>
<path d="M93.2644 146.505C93.1438 146.505 92.9267 146.453 92.593 146.818C92.4644 146.955 91.6403 148.736 90.985 149.66C90.3298 150.585 88.6374 152.314 88.356 153.853C89.16 156.892 91.8534 159.107 92.1388 161.954C92.4242 164.8 92.3116 168.084 96.4884 171.75C100.665 175.417 105.111 175.995 106.76 175.155C108.408 174.315 108.347 172.591 106.269 169.21C104.062 165.62 102.824 158.01 102.824 158.006C102.591 156.679 102.957 154.48 101.69 153.608C101.057 153.241 100.35 153.019 99.62 152.957C98.816 152.828 97.8954 152.716 97.208 153.154C96.6193 153.59 96.2241 154.239 96.1065 154.963C95.9956 155.68 95.8371 156.389 95.6322 157.085C95.5477 157.303 95.407 157.54 95.1739 157.564C94.8282 157.596 94.6633 157.162 94.6151 156.808C94.3471 154.983 94.0871 153.157 93.8352 151.329C93.7066 150.44 93.5779 149.548 93.4533 148.659C93.3528 147.972 93.0795 147.176 93.2644 146.505Z" fill="#37474F"/>
<path d="M111.507 155.043C111.507 155.043 114.084 165.769 116.387 169.837C118.691 173.905 119.861 175.867 122.847 178.854C123.495 179.501 124.954 180.695 125.485 181.222C125.959 181.688 126.071 182.263 125.485 182.902C124.343 184.16 119.165 184.812 116.098 182.838C113.031 180.864 110.044 176.406 108.178 174.77C107.479 174.155 106.82 173.523 106.168 172.848C105.517 172.173 105.666 171.529 105.561 170.762C105.509 170.388 105.489 169.363 105.489 169.363C104.958 167.566 103.676 164.776 102.977 163.035L111.507 155.043Z" fill="#FFA8A7"/>
<path d="M105.071 177.64C105.072 178.088 105.148 178.532 105.296 178.954C105.638 179.638 108.384 180.989 109.425 181.459C110.466 181.929 111.608 182.605 112.641 184.647C113.758 186.83 115.857 188.357 118.224 189.342C120.592 190.327 124.074 190.91 128.206 190.009C132.339 189.109 132.588 186.649 132.588 186.649C132.588 186.649 132.725 184.333 131.675 184.008C130.626 183.682 105.071 177.64 105.071 177.64Z" fill="#263238"/>
<path d="M105.324 168.808C105.216 168.864 105.007 168.941 104.922 169.427C104.89 169.612 105.139 171.558 105.075 172.687C105.003 173.893 104.496 176.185 105.075 177.64C107.358 179.791 110.832 180.229 112.584 182.488C114.337 184.747 115.993 187.585 121.481 188.47C126.968 189.354 131.04 187.477 131.989 185.889C132.938 184.301 131.969 182.874 128.407 181.117C124.632 179.248 119.539 173.479 119.535 173.459C118.835 172.639 118.187 171.776 117.597 170.874C117.231 170.327 117.239 169.773 116.391 169.72C115.99 169.72 115.592 169.799 115.221 169.954C114.462 170.219 113.714 170.52 112.986 170.858C112.607 170.986 112.288 171.25 112.09 171.598C111.983 172.002 112.028 172.431 112.218 172.804C112.714 174.144 113.21 175.484 113.706 176.824C112.034 176.02 110.94 174.412 109.823 172.92C109.204 172.046 108.465 171.264 107.628 170.597C107.23 170.293 106.793 170.044 106.329 169.857C106.16 169.793 105.714 169.757 105.593 169.632C105.537 169.572 105.501 169.298 105.453 169.278C105.402 169.124 105.359 168.967 105.324 168.808Z" fill="#37474F"/>
<path d="M84.4203 100.142C89.1036 103.085 105.244 110.924 111.953 116.299C113.891 117.85 114.828 120.291 113.923 124.966C112.669 131.442 107.893 145.303 107.893 145.303C107.396 146.54 107.004 147.816 106.719 149.118L82.0083 123.768L84.4203 100.142Z" fill="#386DA7"/>
<path opacity="0.4" d="M84.4203 100.142C89.1036 103.085 105.244 110.924 111.953 116.299C113.891 117.85 114.828 120.291 113.923 124.966C112.669 131.442 107.893 145.303 107.893 145.303C107.396 146.54 107.004 147.816 106.719 149.118L82.0083 123.768L84.4203 100.142Z" fill="white"/>
<path opacity="0.3" d="M105.984 130.055C105.312 127.527 103.62 126.168 102.116 125.143C96.1226 121.058 87.6444 115.133 86.1249 113.983C86.7801 112.375 87.8695 109.541 86.6756 106.787C86.6756 106.787 86.2254 112.817 82.9048 115.302L82.8687 115.362C83.7129 116.5 100.408 139.024 107.64 145.914C107.72 145.701 107.805 145.512 107.889 145.319C107.889 145.319 108.203 144.407 108.693 142.947C108.05 139.181 106.993 133.866 105.984 130.055Z" fill="black"/>
<path d="M84.6937 99.4429L51.8101 107.081C52.7548 112.431 53.2211 114.719 55.0542 117.645C56.8873 120.572 59.9948 123.675 70.6237 128.66C78.6315 132.411 88.5529 136.515 90.5548 137.295C92.0623 137.886 92.4322 140.793 93.4573 144.499C94.603 148.644 96.5366 151.55 98.2813 154.971C100.83 159.964 102.739 164.076 102.739 164.076C102.739 164.076 109.714 164.109 113.409 160.358C106.418 134.795 105.899 132.958 105.706 132.33C104.866 129.569 104.834 128.817 101.127 125.983C97.9476 123.551 83.8736 114.401 83.8736 114.401C83.8736 114.401 88.6654 106.892 84.6937 99.4429Z" fill="#386DA7"/>
<path opacity="0.4" d="M84.6937 99.4429L51.8101 107.081C52.7548 112.431 53.2211 114.719 55.0542 117.645C56.8873 120.572 59.9948 123.675 70.6237 128.66C78.6315 132.411 88.5529 136.515 90.5548 137.295C92.0623 137.886 92.4322 140.793 93.4573 144.499C94.603 148.644 96.5366 151.55 98.2813 154.971C100.83 159.964 102.739 164.076 102.739 164.076C102.739 164.076 109.714 164.109 113.409 160.358C106.418 134.795 105.899 132.958 105.706 132.33C104.866 129.569 104.834 128.817 101.127 125.983C97.9476 123.551 83.8736 114.401 83.8736 114.401C83.8736 114.401 88.6654 106.892 84.6937 99.4429Z" fill="white"/>
<path d="M77.8557 65.2205C83.8857 65.2647 86.6756 68.9671 88.4806 74.2735C90.2856 79.5799 91.2343 82.2452 92.6694 86.3938C94.189 90.7836 86.0404 96.1624 83.8495 94.9283L79.3552 83.3386C78.9451 79.395 77.8557 65.2205 77.8557 65.2205Z" fill="#FFA8A7"/>
<path d="M77.5542 63.7493C80.8787 63.9101 83.4877 65.0035 84.7018 66.1211C85.9158 67.2386 86.7721 67.5763 89.4333 75.6364C91.3549 81.4533 91.6805 82.788 91.6805 82.788C91.6805 82.788 87.5841 87.9617 79.6848 87.3386L78.326 84.1226L77.5542 63.7493Z" fill="#263238"/>
<path d="M66.0729 62.9492L58.2902 65.3853C58.2902 65.3853 51.7256 70.1691 51.0542 75.5197C50.3829 80.8703 50.1698 83.7125 50.9095 96.8056C51.3115 103.993 53.6471 114.373 53.6471 114.373C53.6471 114.373 61.1766 116.592 73.3009 112.23C87.4432 107.145 87.4433 101.738 87.4433 101.738C85.6741 100.202 84.5665 98.0415 84.3519 95.7082C84.167 93.3806 84.1227 90.1204 84.4041 82.7999C84.8061 72.2635 84.1911 65.9722 78.2897 64.1713C78.3098 64.1753 69.8879 62.4065 66.0729 62.9492Z" fill="#386DA7"/>
<path opacity="0.3" d="M66.0729 62.9492L58.2902 65.3853C58.2902 65.3853 51.7256 70.1691 51.0542 75.5197C50.3829 80.8703 50.1698 83.7125 50.9095 96.8056C51.3115 103.993 53.6471 114.373 53.6471 114.373C53.6471 114.373 61.1766 116.592 73.3009 112.23C87.4432 107.145 87.4433 101.738 87.4433 101.738C85.6741 100.202 84.5665 98.0415 84.3519 95.7082C84.167 93.3806 84.1227 90.1204 84.4041 82.7999C84.8061 72.2635 84.1911 65.9722 78.2897 64.1713C78.3098 64.1753 69.8879 62.4065 66.0729 62.9492Z" fill="black"/>
<path d="M77.0154 34.7167C69.0397 33.0806 62.3183 38.3347 60.9354 43.207C58.7767 50.7244 65.9202 56.5293 67.0498 60.7261L86.4785 45.5024C86.7599 42.4231 84.9911 36.3529 77.0154 34.7167Z" fill="#263238"/>
<path d="M71.7814 45.2934C69.2408 44.7426 68.6378 45.8964 68.489 47.5365C68.3403 49.1767 68.4609 49.7877 68.087 51.4882C68.0224 51.8569 67.8858 52.2093 67.685 52.5253C67.5849 52.6835 67.4505 52.8172 67.2919 52.9167C67.1333 53.0162 66.9545 53.0789 66.7685 53.1002C66.27 53.1364 66.065 52.8309 65.9122 52.4369C65.7152 51.9304 65.6911 51.0661 64.8349 50.3385C63.9786 49.6108 61.7073 48.835 60.65 51.2309C59.5566 53.7112 61.6269 56.7504 63.3475 57.5222C65.6429 58.5553 66.9655 56.2559 66.9655 56.2559L65.1605 65.2728C69.092 71.4997 78.137 69.948 76.3401 67.4275L78.0285 63.3351C78.0285 63.3351 80.0908 63.6125 81.4334 63.2708C82.957 62.9773 85.562 62.2135 86.3941 56.9674C86.7037 55.0097 86.7519 49.5907 86.5469 46.5757C86.374 44.019 85.9077 43.1346 85.7992 42.7889C84.7419 41.9005 81.3772 41.9326 79.7692 43.4803C77.2446 41.808 73.6909 41.9447 71.7814 45.2934Z" fill="#FFA8A7"/>
<path d="M79.9982 58.0729C79.6517 57.7098 79.2006 57.4639 78.7078 57.3694C78.4851 57.3184 78.2568 57.2954 78.0284 57.301C77.786 57.2903 77.5458 57.3504 77.337 57.4739C77.3063 57.5009 77.2834 57.5357 77.2706 57.5746C77.2579 57.6134 77.2558 57.655 77.2646 57.695C77.2646 57.7593 77.3209 57.8799 77.4013 57.8839C77.517 57.8827 77.6326 57.8733 77.747 57.8558C77.8716 57.8558 77.9922 57.8558 78.1169 57.8558C78.3185 57.8544 78.5196 57.8774 78.7158 57.9241C78.911 57.9695 79.1 58.0383 79.2786 58.1291C79.4652 58.2404 79.6451 58.3625 79.8173 58.495C79.8358 58.5116 79.8581 58.5235 79.8823 58.5295C79.9064 58.5355 79.9317 58.5356 79.9559 58.5297C79.98 58.5237 80.0024 58.512 80.021 58.4954C80.0396 58.4788 80.0538 58.458 80.0625 58.4347C80.0869 58.3744 80.0938 58.3085 80.0824 58.2445C80.071 58.1805 80.0419 58.121 79.9982 58.0729Z" fill="#B16668"/>
<path d="M78.0283 63.3351C75.2545 63.106 73.7671 62.6437 72.5652 62.1532C70.3501 61.2487 69.4376 61.0156 67.5361 56.28C67.5361 56.28 67.7452 60.4689 70.3501 62.6075C72.4044 64.32 77.4655 64.722 77.4655 64.722L78.0283 63.3351Z" fill="#F28F8F"/>
<path d="M85.7227 44.2843C84.6976 41.4221 81.57 39.2553 79.761 43.4803C77.2566 39.9025 72.927 40.401 71.9904 44.9476C71.4439 47.5031 71.5434 50.1546 72.2798 52.662C72.2798 52.662 69.4658 51.2912 69.3573 47.3676C69.3573 47.3676 68.9231 50.2138 69.2648 51.3434C69.2648 51.3434 62.3343 50.6841 60.3484 48.5777C60.3484 48.5777 58.6641 40.7387 63.9463 38.7407C64.3483 35.376 69.4618 31.1027 78.2093 33.2534C86.9568 35.4041 88.2593 40.0392 88.2593 40.0392C87.4163 39.4617 86.4978 39.0031 85.5297 38.6764C87.1882 40.2791 88.1912 42.4413 88.3437 44.7426C88.6332 48.6339 86.6835 50.6319 86.6835 50.6319C86.6835 50.6319 86.5468 46.5757 85.7227 44.2843Z" fill="#37474F"/>
<path d="M63.7775 39.2875L61.0117 37.2172C61.3008 36.8497 61.7211 36.6083 62.1843 36.5439C62.6474 36.4794 63.1176 36.5968 63.4961 36.8715C63.6772 37.0087 63.8288 37.1811 63.9416 37.3784C64.0543 37.5757 64.126 37.7938 64.1523 38.0195C64.1786 38.2452 64.1589 38.4739 64.0945 38.6918C64.0301 38.9098 63.9223 39.1124 63.7775 39.2875Z" fill="#37474F"/>
<path d="M64.1555 39.0826L60.9193 40.2886C60.768 39.8467 60.793 39.3634 60.9893 38.9396C61.1855 38.5157 61.5377 38.1839 61.9726 38.0133C62.1858 37.9353 62.4126 37.9013 62.6394 37.9132C62.8661 37.9251 63.0881 37.9828 63.292 38.0826C63.4959 38.1825 63.6775 38.3226 63.8259 38.4944C63.9742 38.6663 64.0863 38.8664 64.1555 39.0826Z" fill="#37474F"/>
<path d="M78.3903 40.7307C78.4221 40.7313 78.4532 40.7214 78.4788 40.7026C78.506 40.6798 78.5233 40.6474 78.527 40.6122C78.5308 40.5769 78.5207 40.5416 78.4989 40.5136C75.5281 36.7951 67.6007 36.4414 64.5053 38.3348C64.4902 38.344 64.4771 38.3561 64.4668 38.3704C64.4564 38.3847 64.449 38.4009 64.4449 38.4181C64.4407 38.4353 64.4401 38.4531 64.4428 38.4705C64.4456 38.488 64.4518 38.5047 64.461 38.5197C64.4703 38.5348 64.4824 38.5478 64.4967 38.5582C64.511 38.5686 64.5272 38.576 64.5443 38.5801C64.5615 38.5842 64.5793 38.5849 64.5968 38.5821C64.6142 38.5794 64.6309 38.5732 64.646 38.5639C67.5926 36.763 75.4477 37.1288 78.2858 40.6825C78.2989 40.6974 78.3149 40.7095 78.3329 40.7178C78.3509 40.7261 78.3705 40.7305 78.3903 40.7307Z" fill="#263238"/>
<path d="M77.3007 51.054C77.3028 51.2621 77.2437 51.4663 77.1307 51.641C77.0177 51.8158 76.8558 51.9535 76.6651 52.037C76.4744 52.1204 76.2634 52.146 76.0584 52.1105C75.8533 52.0749 75.6632 51.9799 75.5117 51.8372C75.3602 51.6944 75.2541 51.5103 75.2064 51.3077C75.1588 51.1051 75.1717 50.893 75.2437 50.6977C75.3157 50.5024 75.4435 50.3326 75.6113 50.2094C75.779 50.0862 75.9793 50.015 76.1872 50.0048C76.3293 49.9999 76.471 50.0233 76.6041 50.0735C76.7372 50.1238 76.859 50.1998 76.9625 50.2974C77.0661 50.3949 77.1493 50.512 77.2073 50.6419C77.2653 50.7717 77.2971 50.9118 77.3007 51.054Z" fill="#263238"/>
<path d="M84.9749 50.4792C84.9848 50.6168 84.9672 50.7551 84.9234 50.8859C84.8795 51.0167 84.8101 51.1376 84.7193 51.2415C84.6285 51.3454 84.518 51.4303 84.3942 51.4912C84.2704 51.5522 84.1358 51.5881 83.9981 51.5968C83.8579 51.6106 83.7164 51.5943 83.5831 51.549C83.4497 51.5037 83.3276 51.4305 83.2248 51.3342C83.1221 51.2379 83.0411 51.1208 82.9872 50.9907C82.9334 50.8606 82.908 50.7204 82.9127 50.5797C82.9005 50.4412 82.9164 50.3016 82.9594 50.1694C83.0025 50.0371 83.0718 49.9149 83.1632 49.8101C83.2546 49.7053 83.3662 49.6201 83.4914 49.5594C83.6165 49.4988 83.7526 49.464 83.8915 49.4573C84.0304 49.4505 84.1693 49.4719 84.2997 49.52C84.4302 49.5682 84.5496 49.6422 84.6507 49.7376C84.7519 49.8331 84.8328 49.9479 84.8885 50.0754C84.9442 50.2028 84.9736 50.3401 84.9749 50.4792Z" fill="#263238"/>
<path d="M79.7329 48.8149L80.2032 56.0308L83.9539 54.447L79.7329 48.8149Z" fill="#F28F8F"/>
<path d="M73.6909 48.3123L75.7652 46.4028C76.0168 46.6899 76.1476 47.0632 76.1304 47.4445C76.1132 47.8258 75.9492 48.1858 75.6728 48.449C75.5355 48.574 75.3744 48.6699 75.199 48.7309C75.0237 48.7919 74.8379 48.8167 74.6527 48.8039C74.4675 48.7912 74.2868 48.741 74.1215 48.6565C73.9562 48.572 73.8097 48.455 73.6909 48.3123Z" fill="#263238"/>
<path d="M83.4071 46.009L85.6463 47.7577C85.5397 47.9091 85.4033 48.0371 85.2456 48.134C85.0878 48.231 84.912 48.2947 84.7288 48.3214C84.5456 48.3481 84.3589 48.3372 84.18 48.2894C84.0012 48.2415 83.8339 48.1578 83.6885 48.0432C83.39 47.8047 83.1944 47.4607 83.142 47.0822C83.0896 46.7037 83.1845 46.3196 83.4071 46.009Z" fill="#263238"/>
<path d="M65.5262 55.7212C66.487 55.4961 67.2267 56.3684 67.2267 56.3684C67.2267 56.3684 67.9784 55.882 68.4327 56.3684C68.7269 56.6777 68.9312 57.0613 69.0236 57.4779C69.0236 57.4779 69.8035 56.9312 70.3342 57.5543C70.6605 57.9468 70.899 58.4046 71.0336 58.897C71.0336 58.897 71.7291 58.6317 72.3281 59.5402C72.7582 60.1955 73.5622 61.2165 74.5873 61.6467C75.5079 62.0487 75.0617 62.6155 74.0527 62.8808C73.0436 63.1461 65.1082 56.1795 65.1082 56.1795L65.5262 55.7212Z" fill="#F28F8F"/>
<path d="M56.8068 92.2469C57.1766 92.6087 64.8267 88.6932 65.3814 83.8893C63.3513 83.4109 56.4369 88.1706 56.8068 92.2469Z" fill="#263238"/>
<path d="M58.2179 65.8638C52.2803 68.0627 50.8291 72.8465 51.3839 77.767C51.81 81.4252 54.0692 85.2884 58.7123 92.8782C63.3554 100.468 67.2026 97.9795 67.2026 97.9795L68.4729 92.3515L61.7957 75.757C61.7957 75.757 61.45 68.4727 58.2179 65.8638Z" fill="#FFA8A7"/>
<path d="M64.7222 82.9768L63.7454 80.5166C63.7454 80.5166 60.2078 87.1737 61.8761 91.5113L64.7222 82.9768Z" fill="#F28F8F"/>
<path d="M58.2903 65.3853C53.4663 67.0897 51.7095 69.0676 50.9658 73.3047C50.4633 76.1709 50.8452 78.2292 52.1236 82.1929C53.4462 86.3094 56.8953 92.2429 56.8953 92.2429C56.9436 89.855 61.5143 84.4441 65.466 83.8853C65.466 83.8853 63.1946 76.999 62.5153 75.1217C61.8359 73.2444 60.3646 67.6123 58.2903 65.3853Z" fill="#263238"/>
<path d="M73.7471 70.0364C74.4104 68.1953 74.9531 66.6114 74.7239 65.6144C74.4224 64.2677 73.7672 64.0306 73.7672 64.0306C74.0215 63.9904 74.2658 63.9017 74.4867 63.7693C74.6014 63.7013 74.6979 63.6066 74.7679 63.4931C74.8379 63.3797 74.8794 63.251 74.8887 63.118C74.9169 62.7643 74.1732 62.5432 73.8757 62.3422C72.8948 61.6789 72.5652 61.2045 71.8657 60.3C71.7688 60.1549 71.6431 60.0312 71.4966 59.9364C71.35 59.8417 71.1856 59.778 71.0135 59.7493C70.7964 59.086 70.5632 58.483 70.113 58.2619C69.9587 58.1848 69.7902 58.1404 69.6179 58.1314C69.4457 58.1224 69.2735 58.149 69.112 58.2096C68.977 57.756 68.683 57.3664 68.2839 57.1121C67.9518 56.9819 67.5828 56.9819 67.2507 57.1121C67.0312 56.807 66.7791 56.5267 66.499 56.276C66.2291 56.1011 65.9118 56.0134 65.5904 56.0249C65.2689 56.0364 64.9588 56.1465 64.7021 56.3403C64.0066 56.8187 63.7614 57.5463 63.4358 58.282C63.1495 58.9311 62.9195 59.6035 62.7483 60.292C62.5758 60.9333 62.4415 61.5844 62.3463 62.2417C62.2765 62.6195 62.2916 63.0081 62.3906 63.3793C62.688 64.1833 67.0095 68.6978 67.0095 68.6978C66.6357 71.347 63.6528 82.804 62.3705 86.7275C61.1645 90.4661 62.2901 96.5885 64.0629 97.5815C65.8357 98.5744 68.1593 98.7473 71.0818 94.4338C74.3139 89.646 72.1069 74.5871 73.7471 70.0364Z" fill="#FFA8A7"/>
<path d="M67.2187 97.9796C68.3403 97.5776 69.5905 96.5847 70.9814 94.5667C70.3423 94.426 69.691 94.3214 69.0559 94.2451C67.9705 94.1084 67.0459 93.626 65.9966 93.3124C65.9734 93.2969 65.9464 93.2878 65.9186 93.2859C65.8907 93.284 65.8628 93.2894 65.8376 93.3016C65.8124 93.3138 65.7909 93.3323 65.7751 93.3553C65.7593 93.3784 65.7497 93.4052 65.7474 93.433C65.6701 93.6867 65.6505 93.9545 65.6901 94.2168C65.7298 94.479 65.8277 94.7291 65.9765 94.9486C66.2341 95.2801 66.5486 95.5632 66.9052 95.7847C67.0177 95.8611 67.2107 95.9415 67.6207 96.1867C67.7936 96.2912 67.9303 96.4159 67.8981 96.5646C67.8016 97.0269 66.262 97.0229 65.9765 97.0229C65.0359 97.0097 64.1029 96.8511 63.2108 96.5525C62.9934 96.4906 62.7842 96.4028 62.5877 96.2912C62.3979 96.1697 62.226 96.0222 62.0771 95.8531C61.8675 95.6393 61.6702 95.4138 61.4862 95.1777C61.0654 94.5513 60.5818 93.9694 60.043 93.4411C59.6699 93.1146 59.2053 92.9111 58.7124 92.8582V92.8863C63.3635 100.444 67.2187 97.9796 67.2187 97.9796Z" fill="#F28F8F"/>
<path d="M73.8557 63.9381C73.4417 64.0133 73.0169 64.0065 72.6055 63.918C72.3211 63.8867 72.0464 63.7962 71.7992 63.6521C71.5521 63.5081 71.3378 63.3138 71.1703 63.0819C71.1703 63.0819 71.106 61.3533 70.9251 61.494C70.7442 61.6347 70.7925 62.9774 70.7925 62.9774C70.529 62.8361 70.2944 62.6466 70.101 62.4186C69.7352 62.6477 70.2297 63.0497 70.7402 63.3713C71.0351 63.5886 71.3485 63.7796 71.6769 63.9422C72.2011 64.1417 72.7562 64.2478 73.317 64.2557C73.4916 64.239 73.6677 64.2621 73.8321 64.3234C73.9964 64.3847 74.1447 64.4825 74.2657 64.6095C74.0848 64.3562 73.8557 63.9381 73.8557 63.9381Z" fill="#B16668"/>
<path d="M71.295 59.8056C71.2307 59.8056 71.1664 59.8699 71.1061 59.8579C70.5433 59.7654 69.9363 59.9544 69.1283 60.4729C68.4376 60.9952 67.8339 61.6234 67.3394 62.3342C67.3394 62.3342 67.472 61.5302 68.5454 60.5654C69.6187 59.6006 70.6961 59.4237 71.295 59.8056Z" fill="#B16668"/>
<path d="M69.1443 58.0972L69.1202 58.2982C67.1745 58.9494 66.1936 60.276 65.5022 61.289C65.5022 61.289 65.5585 60.3966 66.9856 59.1705C67.6009 58.6331 68.3444 58.2634 69.1443 58.0972Z" fill="#B16668"/>
<path d="M66.9693 56.7705C66.6196 56.863 66.1332 57.3011 65.5503 57.9524C64.938 58.629 64.4531 59.4107 64.1191 60.2599C64.497 59.6488 65.8035 57.683 67.3794 57.1524C67.1979 57.0838 67.0506 56.9467 66.9693 56.7705Z" fill="#B16668"/>
<path d="M65.5261 67.0898C66.6172 68.1018 68.0032 68.7384 69.4818 68.9069C68.6475 69.0296 67.7964 68.9664 66.9894 68.722L65.5261 67.0898Z" fill="#B16668"/>
<path d="M72.931 85.2883C72.9993 83.4753 73.0154 81.6703 73.0194 79.8452C73.0234 78.0201 73.0194 76.2272 73.0797 74.3941C73.1098 73.485 73.1863 72.5779 73.3089 71.6766C73.3699 71.2238 73.4654 70.7763 73.5943 70.3379C73.7189 69.8957 73.8918 69.4776 74.0325 69.0475C74.3498 68.201 74.5722 67.322 74.6958 66.4265C74.7357 65.9822 74.671 65.5347 74.5068 65.12C74.3847 64.7003 74.1148 64.339 73.747 64.1029C73.7301 64.0943 73.7172 64.0793 73.7111 64.0613C73.7051 64.0432 73.7065 64.0235 73.7149 64.0064C73.7256 63.9902 73.741 63.9776 73.7591 63.9703C74.0303 63.9319 74.2883 63.8285 74.5108 63.6688C74.6143 63.5874 74.6969 63.4827 74.752 63.3632C74.7799 63.3098 74.7967 63.2513 74.8016 63.1912C74.8064 63.1311 74.7991 63.0707 74.7802 63.0135C74.5989 62.8165 74.3727 62.6662 74.1209 62.5753C73.862 62.4438 73.6181 62.2847 73.3933 62.1009C72.9393 61.7468 72.5338 61.3346 72.1873 60.8748C72.0104 60.6578 71.8375 60.4206 71.6566 60.2156C71.4919 60.0082 71.2522 59.8739 70.9893 59.8417C70.9723 59.8416 70.9557 59.8362 70.9419 59.826C70.9282 59.8159 70.918 59.8017 70.9129 59.7854C70.7953 59.3418 70.5948 58.9244 70.322 58.5553C70.1729 58.3967 69.9772 58.2897 69.7632 58.2498C69.5466 58.211 69.3236 58.229 69.116 58.3021C69.1049 58.3058 69.0932 58.3074 69.0815 58.3066C69.0698 58.3058 69.0584 58.3027 69.048 58.2974C69.0375 58.2922 69.0282 58.2849 69.0205 58.2761C69.0129 58.2672 69.0071 58.2569 69.0034 58.2458C68.8923 57.8673 68.6678 57.532 68.3602 57.285C68.1965 57.1861 68.0115 57.1277 67.8207 57.1144C67.6299 57.1011 67.4387 57.1334 67.2628 57.2086C67.2445 57.2144 67.2249 57.2148 67.2064 57.2098C67.1879 57.2048 67.1712 57.1946 67.1583 57.1805C66.9212 56.8179 66.6169 56.504 66.2618 56.2559C66.0724 56.1699 65.8668 56.1255 65.6588 56.1255C65.4508 56.1255 65.2452 56.1699 65.0558 56.2559C64.6538 56.4265 64.3131 56.7153 64.0789 57.084C63.8527 57.4628 63.6578 57.8594 63.496 58.2699C63.1461 59.0817 62.8768 59.9259 62.692 60.7904C62.5915 61.2206 62.5031 61.6588 62.4388 62.0969C62.4012 62.3135 62.3797 62.5325 62.3745 62.7522C62.3551 62.9624 62.3783 63.1743 62.4428 63.3753C62.5734 63.6309 62.7326 63.871 62.9172 64.0908C63.0981 64.32 63.287 64.5491 63.4759 64.7702C63.8538 65.2205 64.2438 65.6587 64.6377 66.0968C65.4256 66.9678 66.2296 67.8308 67.0497 68.6857C67.0537 68.6917 67.0558 68.6987 67.0558 68.7058C67.0558 68.713 67.0537 68.72 67.0497 68.7259C66.9211 69.5782 66.7281 70.4183 66.5352 71.2545C66.3422 72.0907 66.1332 72.9268 65.9201 73.7589L64.6297 78.7558L65.8598 73.7469L66.4467 71.2344C66.6357 70.3982 66.8246 69.5581 66.9492 68.7098V68.7541C66.1452 67.9018 65.3412 67.0456 64.5372 66.1732C64.1352 65.7391 63.7332 65.2969 63.3674 64.8506C63.1744 64.6255 62.9855 64.4004 62.8046 64.1672C62.6102 63.938 62.443 63.6871 62.3061 63.4195C62.2231 63.2005 62.1915 62.9653 62.2137 62.7321C62.2227 62.5073 62.2442 62.2832 62.278 62.0608C62.3423 61.6186 62.4267 61.1804 62.5272 60.7422C62.719 59.868 62.995 59.0145 63.3513 58.1935C63.5174 57.7771 63.715 57.374 63.9423 56.9875C64.183 56.5919 64.5375 56.2781 64.9593 56.087C65.173 55.9888 65.4055 55.938 65.6407 55.938C65.8759 55.938 66.1084 55.9888 66.3221 56.087C66.5247 56.2022 66.7045 56.3534 66.8527 56.5333C67.0046 56.6992 67.1469 56.8737 67.2789 57.0558L67.1784 57.0277C67.3818 56.9485 67.5993 56.9116 67.8175 56.9192C68.0411 56.9233 68.2588 56.9917 68.4447 57.1162C68.6228 57.243 68.7721 57.406 68.8828 57.5945C68.9979 57.7738 69.0898 57.967 69.1562 58.1694L69.0436 58.1131C69.2814 58.032 69.536 58.0126 69.7833 58.0568C70.0331 58.1057 70.2611 58.2323 70.4346 58.4186C70.7227 58.806 70.933 59.2456 71.0536 59.7131L70.9773 59.6528C71.284 59.6904 71.5646 59.8444 71.7612 60.0829C71.9581 60.308 72.1189 60.5332 72.2958 60.7543C72.635 61.2052 73.0309 61.6105 73.4737 61.9603C73.6886 62.1373 73.9217 62.2909 74.1691 62.4185C74.2978 62.4788 74.4264 62.5431 74.5711 62.6155C74.7093 62.6882 74.8269 62.7947 74.9128 62.9251C74.9545 63.0789 74.9475 63.2419 74.8928 63.3916C74.8381 63.5413 74.7383 63.6704 74.6073 63.7612C74.368 63.931 74.093 64.0438 73.8033 64.0908V63.9542C74.2129 64.2025 74.5142 64.5956 74.6475 65.0557C74.7266 65.2736 74.7858 65.4983 74.8244 65.727C74.8505 65.9581 74.8505 66.1914 74.8244 66.4225C74.6978 67.3282 74.4699 68.2168 74.145 69.0716C74.0043 69.5018 73.8274 69.9239 73.7028 70.354C73.5754 70.7873 73.48 71.2293 73.4174 71.6766C73.2847 72.5731 73.2244 73.4776 73.1802 74.3821C73.1079 76.1951 73.1038 78.0001 73.0797 79.8292C73.0556 81.6583 73.0194 83.4753 72.931 85.2883Z" fill="#B16668"/>
<path d="M78.6999 103.021C77.4497 103.491 75.8578 104.516 74.1854 104.97C72.4289 105.415 70.617 105.602 68.8067 105.525C67.8562 105.512 66.9073 105.445 65.9645 105.324C64.9756 105.191 64.1395 104.673 63.247 104.239C62.3546 103.805 61.4059 103.294 61.0722 102.369C60.8953 101.887 60.9154 101.336 60.6461 100.898C60.4813 100.629 60.224 100.432 60.0391 100.178C59.7758 99.7388 59.6215 99.2427 59.5888 98.7313C59.5076 98.1834 59.3729 97.6449 59.1868 97.1233C58.7882 95.9717 58.3142 94.8477 57.7678 93.7585C57.7424 93.7223 57.7323 93.6775 57.7396 93.6339C57.7611 93.5906 57.7986 93.5574 57.8441 93.5414C58.2025 93.4204 58.5872 93.3999 58.9565 93.4821C59.3257 93.5643 59.6654 93.7461 59.9386 94.0078C60.4784 94.5367 60.962 95.12 61.3817 95.7484C61.5667 95.9816 61.7636 96.2067 61.9727 96.4238C62.1227 96.5906 62.2944 96.7366 62.4832 96.8579C62.6793 96.9705 62.8886 97.0583 63.1063 97.1192C63.9988 97.4168 64.9314 97.5768 65.8721 97.5936C66.1575 97.5936 67.6972 97.5936 67.7977 97.1353C67.8298 96.9826 67.6891 96.8579 67.5163 96.7574C67.1143 96.5203 66.9133 96.4358 66.8047 96.3554C66.4451 96.1348 66.129 95.85 65.8721 95.5153C65.7232 95.2958 65.6253 95.0457 65.5857 94.7835C65.546 94.5212 65.5656 94.2534 65.6429 93.9997C65.6546 93.9523 65.6815 93.91 65.7193 93.8791C65.7466 93.8673 65.776 93.8612 65.8058 93.8612C65.8355 93.8612 65.8649 93.8673 65.8922 93.8791C66.9293 94.1927 67.866 94.6831 68.9514 94.8118C70.0194 94.9252 71.0737 95.1434 72.0991 95.463C72.8028 95.7473 73.5207 95.9956 74.2498 96.2067C74.6772 96.3083 75.1208 96.3226 75.5539 96.2487C75.987 96.1748 76.4007 96.0142 76.7703 95.7766C78.5471 94.7957 82.4465 91.6681 84.5289 90.1888L92.4041 85.5537C92.4041 85.5537 92.9508 87.1617 93.4935 89.0873C94.5347 92.7897 94.4141 93.5093 92.7619 95.0851C90.0041 97.7222 84.742 100.745 78.6999 103.021Z" fill="#FFA8A7"/>
<path d="M57.824 93.5534C58.0425 93.4629 58.2768 93.4163 58.5134 93.4163C58.75 93.4163 58.9843 93.4629 59.2028 93.5534C59.6428 93.7294 60.0363 94.0046 60.3526 94.3574C60.6742 94.7072 60.9435 95.0971 61.2249 95.471C61.3616 95.6599 61.5184 95.8328 61.6751 96.0097C61.8319 96.1865 61.9766 96.3674 62.1495 96.5242C62.4906 96.8282 62.9071 97.0351 63.3555 97.1232C63.8036 97.2542 64.2603 97.3536 64.7223 97.4207C65.184 97.4884 65.6509 97.514 66.1172 97.4971C66.5758 97.5005 67.0319 97.4299 67.468 97.288C67.681 97.1996 67.7534 97.0388 67.5644 96.886C67.3755 96.7333 67.1624 96.6529 66.9614 96.5363C66.7522 96.4213 66.5543 96.2867 66.3705 96.1343C66.1767 95.9914 66.0023 95.8238 65.8519 95.6358C65.7015 95.4421 65.591 95.2205 65.5268 94.9838C65.4626 94.7472 65.446 94.5001 65.4781 94.2569C65.4923 94.1331 65.522 94.0116 65.5665 93.8951C65.5825 93.8558 65.6106 93.8225 65.6467 93.8001C65.6828 93.7778 65.7251 93.7674 65.7675 93.7705C65.8308 93.7772 65.8929 93.7921 65.9524 93.8147C66.1775 93.8871 66.3986 93.9675 66.6197 94.0479C67.0619 94.2127 67.5001 94.3856 67.9463 94.5223C68.3939 94.6544 68.8528 94.7446 69.3172 94.7916C70.2504 94.922 71.1696 95.1386 72.0628 95.4388C71.1631 95.1664 70.2398 94.9794 69.3051 94.88C68.8347 94.836 68.3692 94.7499 67.9142 94.6228C67.4599 94.4861 67.0217 94.3172 66.5795 94.1605C66.3584 94.0801 66.1373 94.0037 65.9122 93.9394C65.8637 93.9181 65.8122 93.9045 65.7595 93.8992C65.7193 93.8992 65.7072 93.8992 65.6831 93.9514C65.6477 94.0558 65.6235 94.1636 65.6107 94.273C65.5825 94.4979 65.5996 94.7262 65.661 94.9444C65.7225 95.1626 65.827 95.3662 65.9685 95.5433C66.1146 95.7201 66.282 95.8781 66.467 96.0137C66.6498 96.1585 66.8464 96.2851 67.0539 96.3916C67.2647 96.4991 67.47 96.6171 67.669 96.7453C67.7257 96.7878 67.7735 96.8411 67.8097 96.9021C67.8301 96.9369 67.8432 96.9756 67.8481 97.0157C67.8529 97.0559 67.8494 97.0966 67.8378 97.1353C67.8137 97.2031 67.7743 97.2644 67.7227 97.3146C67.6711 97.3648 67.6087 97.4024 67.5403 97.4247C67.0818 97.5768 66.6002 97.6475 66.1172 97.6337C65.6439 97.6465 65.1703 97.6169 64.7022 97.5453C64.2347 97.4704 63.7727 97.3643 63.3193 97.2277C63.0893 97.1651 62.8637 97.0872 62.644 96.9946C62.4221 96.8992 62.2202 96.7628 62.049 96.5926C61.8761 96.4277 61.7314 96.2428 61.5746 96.0659C61.4179 95.8891 61.2651 95.7082 61.1284 95.5152C60.847 95.1373 60.5817 94.7514 60.2722 94.4017C59.9753 94.0398 59.5981 93.7521 59.1707 93.5615C58.7401 93.3826 58.2566 93.3797 57.824 93.5534Z" fill="#B16668"/>
<path d="M84.2393 90.4018C85.6382 89.3324 88.5608 88.2631 90.6713 88.8179C89.4653 87.5274 85.7628 88.3154 84.2393 89.1475V90.4018Z" fill="#F28F8F"/>
<path d="M72.135 143.148C72.2179 143.654 72.1558 144.172 71.956 144.644C71.7562 145.115 71.4268 145.521 71.006 145.813C70.5853 146.105 70.0903 146.272 69.5786 146.294C69.0669 146.316 68.5594 146.193 68.115 145.938L33.5028 125.955C32.6195 125.446 31.9142 124.678 31.4827 123.754C31.0511 122.831 30.9143 121.797 31.0908 120.793L38.4514 103.403H34.0294L22.0257 137.914C21.9728 138.075 21.9694 138.248 22.0161 138.411C22.0627 138.573 22.1571 138.718 22.2872 138.827C22.4172 138.935 22.5767 139.002 22.7452 139.018C22.9136 139.035 23.0831 139 23.2317 138.919C23.3894 138.826 23.5133 138.686 23.5854 138.517L26.8617 130.771C27.4691 130.105 28.2862 129.667 29.1771 129.53C30.068 129.393 30.9789 129.566 31.7581 130.019L70.2375 152.238C71.4331 152.939 72.4613 153.892 73.2507 155.032C74.0401 156.171 74.5716 157.469 74.8083 158.834L72.135 143.148Z" fill="#386DA7"/>
<path opacity="0.2" d="M72.135 143.148C72.2179 143.654 72.1558 144.172 71.956 144.644C71.7562 145.115 71.4268 145.521 71.006 145.813C70.5853 146.105 70.0903 146.272 69.5786 146.294C69.0669 146.316 68.5594 146.193 68.115 145.938L33.5028 125.955C32.6195 125.446 31.9142 124.678 31.4827 123.754C31.0511 122.831 30.9143 121.797 31.0908 120.793L38.4514 103.403H34.0294L22.0257 137.914C21.9728 138.075 21.9694 138.248 22.0161 138.411C22.0627 138.573 22.1571 138.718 22.2872 138.827C22.4172 138.935 22.5767 139.002 22.7452 139.018C22.9136 139.035 23.0831 139 23.2317 138.919C23.3894 138.826 23.5133 138.686 23.5854 138.517L26.8617 130.771C27.4691 130.105 28.2862 129.667 29.1771 129.53C30.068 129.393 30.9789 129.566 31.7581 130.019L70.2375 152.238C71.4331 152.939 72.4613 153.892 73.2507 155.032C74.0401 156.171 74.5716 157.469 74.8083 158.834L72.135 143.148Z" fill="white"/>
<path d="M78.6072 148.865C78.3499 149.043 78.0489 149.147 77.7367 149.166C77.4244 149.186 77.1128 149.119 76.8355 148.975C76.5582 148.83 76.3258 148.612 76.1633 148.345C76.0009 148.077 75.9146 147.77 75.9138 147.458L75.7289 145.548L75.7811 146.115L74.0887 128.56C73.9618 127.038 73.5247 125.558 72.8043 124.211C72.0839 122.864 71.0955 121.679 69.8999 120.729L35.9912 93.7947L35.3198 90.0681C34.1497 90.9962 33.2187 92.1908 32.6046 93.5522C31.9905 94.9135 31.7112 96.4021 31.7899 97.8935C31.8686 99.3849 32.303 100.836 33.057 102.125C33.811 103.414 34.8625 104.504 36.1238 105.304L65.0678 123.591C66.3971 124.432 67.5342 125.543 68.4049 126.853C69.2756 128.163 69.8604 129.642 70.121 131.193L76.758 170.368C76.7804 170.548 76.8734 170.712 77.0167 170.823C77.0876 170.879 77.1687 170.919 77.2554 170.943C77.342 170.967 77.4326 170.974 77.5218 170.963C77.611 170.951 77.6972 170.923 77.7753 170.879C77.8535 170.834 77.9222 170.775 77.9774 170.704C78.0327 170.633 78.0734 170.552 78.0973 170.465C78.1212 170.379 78.1278 170.288 78.1167 170.199L77.156 160.237C76.9107 157.278 77.96 154.3 80.5328 152.816" fill="#386DA7"/>
<path opacity="0.1" d="M78.6072 148.865C78.3499 149.043 78.0489 149.147 77.7367 149.166C77.4244 149.186 77.1128 149.119 76.8355 148.975C76.5582 148.83 76.3258 148.612 76.1633 148.345C76.0009 148.077 75.9146 147.77 75.9138 147.458L75.7289 145.548L75.7811 146.115L74.0887 128.56C73.9618 127.038 73.5247 125.558 72.8043 124.211C72.0839 122.864 71.0955 121.679 69.8999 120.729L35.9912 93.7947L35.3198 90.0681C34.1497 90.9962 33.2187 92.1908 32.6046 93.5522C31.9905 94.9135 31.7112 96.4021 31.7899 97.8935C31.8686 99.3849 32.303 100.836 33.057 102.125C33.811 103.414 34.8625 104.504 36.1238 105.304L65.0678 123.591C66.3971 124.432 67.5342 125.543 68.4049 126.853C69.2756 128.163 69.8604 129.642 70.121 131.193L76.758 170.368C76.7804 170.548 76.8734 170.712 77.0167 170.823C77.0876 170.879 77.1687 170.919 77.2554 170.943C77.342 170.967 77.4326 170.974 77.5218 170.963C77.611 170.951 77.6972 170.923 77.7753 170.879C77.8535 170.834 77.9222 170.775 77.9774 170.704C78.0327 170.633 78.0734 170.552 78.0973 170.465C78.1212 170.379 78.1278 170.288 78.1167 170.199L77.156 160.237C76.9107 157.278 77.96 154.3 80.5328 152.816" fill="black"/>
</svg>
