<svg width="17" height="17" viewBox="0 0 17 17" fill="none" xmlns="http://www.w3.org/2000/svg">
<path opacity="0.75" fill-rule="evenodd" clip-rule="evenodd" d="M12.3104 11.7988L16.4244 15.9138L15.5764 16.7618L11.4534 12.6388C10.0611 13.7869 8.27934 14.3529 6.4798 14.2188C4.68026 14.0847 3.00203 13.2608 1.79533 11.9191C0.588628 10.5774 -0.0533137 8.82152 0.00347006 7.01789C0.0602539 5.21425 0.811376 3.50223 2.10009 2.23908C3.3888 0.97593 5.11553 0.259257 6.91994 0.238618C8.72435 0.217978 10.467 0.894967 11.7843 2.12831C13.1016 3.36165 13.8916 5.05604 13.9897 6.85791C14.0877 8.65977 13.4861 10.4299 12.3104 11.7988ZM12.8004 7.23784C12.8004 5.69959 12.1893 4.22433 11.1016 3.13662C10.0139 2.04891 8.53864 1.43784 7.00039 1.43784C5.46213 1.43784 3.98688 2.04891 2.89917 3.13662C1.81146 4.22433 1.20039 5.69959 1.20039 7.23784C1.20039 8.7761 1.81146 10.2514 2.89917 11.3391C3.98688 12.4268 5.46213 13.0378 7.00039 13.0378C8.53864 13.0378 10.0139 12.4268 11.1016 11.3391C12.1893 10.2514 12.8004 8.7761 12.8004 7.23784Z" fill="black"/>
</svg>
